<?xml version="1.0" encoding="UTF-8" standalone="no"?>
<!-- Created with Inkscape (http://www.inkscape.org/) -->

<svg
   version="1.1"
   id="svg2"
   xml:space="preserve"
   width="1372.5699"
   height="1124.6621"
   viewBox="0 0 1372.5699 1124.6621"
   sodipodi:docname="hand-app.svg"
   inkscape:version="1.1.1 (3bf5ae0d25, 2021-09-20)"
   xmlns:inkscape="http://www.inkscape.org/namespaces/inkscape"
   xmlns:sodipodi="http://sodipodi.sourceforge.net/DTD/sodipodi-0.dtd"
   xmlns="http://www.w3.org/2000/svg"
   xmlns:svg="http://www.w3.org/2000/svg"><defs
     id="defs6" /><sodipodi:namedview
     id="namedview4"
     pagecolor="#ffffff"
     bordercolor="#666666"
     borderopacity="1.0"
     inkscape:pageshadow="2"
     inkscape:pageopacity="0.0"
     inkscape:pagecheckerboard="0"
     showgrid="false"
     fit-margin-top="0"
     fit-margin-left="0"
     fit-margin-right="0"
     fit-margin-bottom="0"
     inkscape:zoom="0.1795"
     inkscape:cx="2479.1086"
     inkscape:cy="676.88022"
     inkscape:window-width="2560"
     inkscape:window-height="1019"
     inkscape:window-x="0"
     inkscape:window-y="25"
     inkscape:window-maximized="1"
     inkscape:current-layer="g10" /><g
     id="g8"
     inkscape:groupmode="layer"
     inkscape:label="ink_ext_XXXXXX"
     transform="matrix(1.3333333,0,0,-1.3333333,-1518.8597,2008.764)"><g
       id="g10"
       transform="matrix(0.1,0,0,0.1,420.68049,17.311245)"><g
         id="g687"
         transform="translate(-18090.757,681.11759)"><path
           d="m 28500.2,11659.6 c -1.7,0 -3.3,0.1 -5,0.3 -22,2.8 -37.6,22.8 -34.9,44.8 4,31.8 8.2,63.8 12.5,95.9 3,21.9 23.1,37.4 45.2,34.3 21.9,-3 37.3,-23.2 34.3,-45.1 -4.3,-31.9 -8.4,-63.5 -12.3,-95 -2.6,-20.4 -19.9,-35.2 -39.8,-35.2"
           style="fill:#f65216;fill-opacity:1;fill-rule:nonzero;stroke:none"
           id="path270" /><path
           d="m 30006,14105.5 c -3.2,0 -6.5,0.4 -9.7,1.2 -57,14.1 -118.8,22.4 -183.6,24.6 -22.1,0.7 -39.5,19.3 -38.7,41.5 0.7,21.6 18.5,38.7 40,38.7 0.5,0 1,0 1.4,0 70.4,-2.4 137.7,-11.4 200.2,-26.9 21.5,-5.4 34.6,-27.1 29.3,-48.6 -4.5,-18.3 -20.9,-30.5 -38.9,-30.5 z m -561,-71 c -13.5,0 -26.8,6.9 -34.3,19.3 -11.5,18.9 -5.5,43.6 13.4,55.1 60.3,36.7 123.4,63.9 187.7,81 21.4,5.6 43.4,-7 49.1,-28.5 5.7,-21.4 -7.1,-43.3 -28.5,-49.1 -56.8,-15 -112.8,-39.3 -166.6,-71.9 -6.5,-4 -13.7,-5.9 -20.8,-5.9 z m 895.9,-114.8 c -10.2,0 -20.4,3.9 -28.2,11.6 -43.8,43.3 -92.9,80.1 -145.9,109.3 -19.4,10.7 -26.4,35.1 -15.7,54.5 10.6,19.4 35,26.6 54.5,15.8 59.5,-32.8 114.5,-74 163.5,-122.5 15.8,-15.6 16,-41 0.4,-56.8 -7.9,-7.9 -18.2,-11.9 -28.6,-11.9 z M 29164,13770 c -8.5,0 -17,2.7 -24.3,8.2 -17.6,13.4 -21.1,38.6 -7.7,56.2 42.6,56.1 87.2,106.6 132.5,150.2 16,15.3 41.4,14.8 56.7,-1.2 15.4,-15.9 14.9,-41.3 -1.1,-56.7 -42.3,-40.7 -84.1,-88.1 -124.2,-140.8 -7.9,-10.4 -19.8,-15.9 -31.9,-15.9 z m 1381.5,-176.9 c -16.2,0 -31.4,9.9 -37.5,25.9 -23.3,60.9 -50.7,117.3 -81.6,167.6 -11.6,19 -5.7,43.7 13.2,55.2 19,11.7 43.6,5.7 55.2,-13.2 33.5,-54.6 63.2,-115.5 88.2,-181 7.9,-20.7 -2.5,-43.9 -23.2,-51.8 -4.7,-1.8 -9.6,-2.7 -14.3,-2.7 z m -1582,-155.3 c -5.9,0 -11.9,1.3 -17.6,4.1 -19.9,9.8 -28.1,33.8 -18.4,53.7 30.2,61.7 61.8,120.1 93.9,173.8 11.3,19.1 36,25.3 55,13.9 19,-11.3 25.2,-36 13.9,-55 -31,-51.8 -61.5,-108.3 -90.7,-168 -7,-14.2 -21.2,-22.5 -36.1,-22.5 z m 1670.1,-222.1 c -20.1,0 -37.4,15 -39.8,35.5 -7.6,65.2 -18.3,128.2 -31.8,187.2 -4.9,21.6 8.6,43.1 30.2,48 21.7,4.9 43.2,-8.6 48.1,-30.2 14.1,-61.8 25.3,-127.7 33.2,-195.7 2.6,-22 -13.2,-41.9 -35.2,-44.5 -1.6,-0.2 -3.1,-0.3 -4.7,-0.3 z m -1819.1,-136.5 c -4.4,0 -8.9,0.7 -13.4,2.3 -20.9,7.4 -31.8,30.3 -24.4,51.2 22.5,63.5 46.1,125.2 70.2,183.4 8.4,20.5 31.8,30.2 52.4,21.8 20.4,-8.5 30.2,-31.9 21.7,-52.4 -23.5,-57 -46.6,-117.4 -68.6,-179.6 -5.9,-16.5 -21.3,-26.7 -37.9,-26.7 z m 1831.3,-251.6 c -0.6,0 -1.3,0.1 -1.9,0.1 -22.1,1 -39.3,19.8 -38.3,41.9 1.9,40.3 2.8,80.7 2.8,120 0,23.6 -0.3,47.3 -1,71.2 -0.6,22.2 16.8,40.7 38.9,41.3 22.9,0.2 40.7,-16.8 41.3,-38.9 0.7,-24.7 1.1,-49.2 1.1,-73.6 0,-40.5 -1,-82.1 -2.9,-123.7 -1,-21.5 -18.7,-38.3 -40,-38.3 z m -1945.9,-119.7 c -3.5,0 -7,0.4 -10.5,1.4 -21.4,5.7 -34.1,27.7 -28.3,49.1 17.3,64.3 35.5,127.6 54.1,188.2 6.6,21.2 29,33.1 50.2,26.5 21.2,-6.5 33.1,-29 26.6,-50.1 -18.4,-59.7 -36.4,-122.1 -53.4,-185.4 -4.8,-17.9 -21,-29.7 -38.7,-29.7 z m 1900.1,-265.7 c -2.6,0 -5.2,0.3 -7.8,0.8 -21.8,4.3 -35.9,25.4 -31.6,47.1 11.9,60 21.8,123.5 29.4,188.8 2.6,22 22.7,37.6 44.6,35.2 22,-2.6 37.7,-22.6 35.2,-44.6 -8,-67.3 -18.2,-133 -30.5,-194.9 -3.8,-19.2 -20.5,-32.4 -39.3,-32.4 z m -1989.7,-112.5 c -2.7,0 -5.4,0.2 -8.1,0.8 -21.7,4.5 -35.7,25.7 -31.2,47.4 13.4,64.4 27.6,128.6 42.3,190.9 5.1,21.6 26.7,34.9 48.2,29.8 21.6,-5.1 35,-26.7 29.9,-48.2 -14.5,-61.6 -28.6,-125.1 -41.8,-188.8 -3.9,-18.9 -20.6,-31.9 -39.3,-31.9 z m 3008.6,-203.2 c -19.1,0 -36,13.7 -39.4,33.3 -3.9,21.8 10.8,42.6 32.6,46.4 38.6,6.7 77.1,13.2 115.4,19.4 29.2,4.6 57.3,7 83.6,7.2 0.1,0 0.1,0 0.2,0 22.1,0 40,-17.9 40.1,-40 0.1,-22.2 -17.8,-40.2 -40,-40.3 -22.2,-0.1 -46.1,-2.2 -71.2,-6.2 -37.9,-6 -76.1,-12.5 -114.3,-19.2 -2.3,-0.4 -4.7,-0.6 -7,-0.6 z m -954,-40.7 c -7.7,0 -15.4,2.2 -22.3,6.8 -64.2,43.1 -100,108.7 -106.4,194.8 -1.6,22.1 15,41.3 37,43 22.3,1.6 41.4,-15 43,-37.1 4.6,-61.1 27.8,-105 71.1,-134.1 18.4,-12.3 23.3,-37.3 11,-55.7 -7.8,-11.5 -20.4,-17.7 -33.4,-17.7 z m 571.2,-25.8 c -19.4,0 -36.5,14.2 -39.6,34 -3.3,22 11.7,42.4 33.6,45.8 65.7,10.1 133.2,22 190.6,32.2 21.9,4 42.6,-10.6 46.5,-32.5 3.9,-21.8 -10.6,-42.6 -32.4,-46.5 -57.9,-10.3 -125.9,-22.3 -192.5,-32.5 -2.1,-0.3 -4.1,-0.5 -6.2,-0.5 z m -318,-30.2 c -25.5,0.1 -49.6,1 -71.8,2.7 -22,1.7 -38.6,21 -36.9,43.1 1.8,22.1 21,38.6 43.2,36.9 51.8,-4 113.8,-3 187.4,3.5 22,1.7 41.5,-14.4 43.5,-36.5 1.9,-22.1 -14.4,-41.6 -36.5,-43.5 -47.4,-4.1 -89.6,-6.2 -128.9,-6.2 z m 1192.6,-82.4 c -15,0 -29.4,8.4 -36.2,22.8 -29.6,62 -63.9,106.4 -104.9,136 -18,13 -22,38.1 -9.1,56.1 13,17.9 38.1,22 56.1,9 52.2,-37.6 94.8,-92.1 130.3,-166.5 9.5,-20 1,-43.9 -19,-53.5 -5.5,-2.7 -11.4,-3.9 -17.2,-3.9 z m -3569.9,-0.1 c -2.1,0 -4.2,0.1 -6.3,0.4 -21.9,3.5 -36.8,24 -33.4,45.9 10.3,64.9 21.3,129.7 32.7,192.5 3.9,21.9 24.8,36.3 46.6,32.4 21.8,-4 36.3,-24.9 32.3,-46.7 -11.3,-62.3 -22.1,-126.4 -32.3,-190.7 -3.1,-19.7 -20.2,-33.8 -39.6,-33.8 z m 3675.6,-372.9 c -18.8,0 -35.5,13.2 -39.3,32.4 -10.5,53.5 -24.8,123.1 -41.6,187.3 -5.6,21.5 7.3,43.4 28.7,49 21.4,5.6 43.4,-7.2 49,-28.7 17.3,-66.3 31.9,-137.5 42.6,-192.2 4.3,-21.7 -9.8,-42.8 -31.6,-47.1 -2.6,-0.5 -5.2,-0.7 -7.8,-0.7 z m 78.2,-380.9 c -18,0 -34.4,12.3 -38.9,30.6 -13.7,55.6 -26.6,114.8 -41.8,191.7 -4.3,21.7 9.9,42.8 31.6,47.1 21.8,4.3 42.9,-9.8 47.2,-31.6 14.9,-75.6 27.6,-133.6 41,-188.1 5.2,-21.5 -7.9,-43.2 -29.4,-48.5 -3.2,-0.8 -6.5,-1.2 -9.7,-1.2 z m 129.8,-365.6 c -14.5,0 -28.6,7.9 -35.7,21.7 -28.9,56 -54.3,116.2 -77.8,184.3 -7.2,20.9 3.9,43.8 24.9,51 20.9,7.2 43.8,-3.9 51,-24.9 22.2,-64.3 46.1,-121.1 73.2,-173.5 10.2,-19.7 2.5,-43.9 -17.2,-54.1 -5.9,-3 -12.2,-4.5 -18.4,-4.5 z m 2569,-283 c -11.4,0 -22.7,4.8 -30.6,14.2 -14.4,16.9 -12.3,42.2 4.6,56.5 49.5,42.1 94,86.6 132.2,132.4 14.2,17 39.5,19.3 56.5,5.1 17,-14.2 19.3,-39.5 5.1,-56.5 -41.1,-49.3 -88.9,-97.1 -141.9,-142.2 -7.5,-6.3 -16.7,-9.5 -25.9,-9.5 z m -2334.9,-24.6 c -10,0 -20,3.6 -27.7,11.1 -48.3,45.9 -93.3,96.1 -133.8,148.9 -13.5,17.6 -10.2,42.8 7.4,56.3 17.6,13.4 42.8,10.1 56.3,-7.4 38,-49.6 80.2,-96.6 125.5,-139.8 16,-15.3 16.6,-40.7 1.3,-56.7 -7.9,-8.3 -18.5,-12.4 -29,-12.4 z m 2008.8,-184.8 c -14.8,0 -29.1,8.3 -36.1,22.6 -9.7,19.9 -1.4,44 18.5,53.7 58.2,28.3 114,59.3 165.6,92.2 18.7,12 43.5,6.4 55.4,-12.2 12,-18.7 6.4,-43.5 -12.2,-55.4 -54.3,-34.6 -112.7,-67.2 -173.6,-96.8 -5.7,-2.8 -11.7,-4.1 -17.6,-4.1 z m -1691.8,-37 c -6,0 -12.1,1.4 -17.9,4.3 -60.1,30.1 -117.9,64.5 -171.8,102 -18.2,12.7 -22.6,37.7 -10,55.9 12.7,18.2 37.7,22.6 55.9,10 50.7,-35.4 105.2,-67.7 161.9,-96.1 19.8,-10 27.8,-34.1 17.9,-53.9 -7.1,-14.1 -21.2,-22.2 -36,-22.2 z m 1327.9,-97.4 c -17.8,0 -34,11.9 -38.8,29.9 -5.7,21.4 7,43.4 28.5,49.1 61.6,16.3 122.7,35.6 181.6,57.3 20.8,7.5 43.9,-3 51.6,-23.8 7.6,-20.8 -3.1,-43.9 -23.9,-51.6 -61.2,-22.4 -124.7,-42.5 -188.7,-59.5 -3.5,-0.9 -6.9,-1.4 -10.3,-1.4 z m -962,-30.3 c -2.9,0 -5.8,0.3 -8.6,0.9 -65.7,14.4 -130.1,32.5 -191.5,53.8 -20.9,7.3 -32,30.1 -24.7,51 7.2,21 30,32.2 51,24.8 58.5,-20.3 119.8,-37.5 182.3,-51.2 21.7,-4.7 35.4,-26.2 30.6,-47.8 -4.1,-18.7 -20.7,-31.5 -39.1,-31.5 z m 579.4,-35.7 c -20.7,0 -38.2,15.9 -39.9,36.9 -1.9,22.1 14.6,41.4 36.7,43.3 62.9,5.1 126.5,13.2 189.1,24 22,3.8 42.6,-10.9 46.4,-32.7 3.8,-21.9 -10.9,-42.6 -32.7,-46.4 -65,-11.2 -131,-19.6 -196.3,-24.9 -1.1,-0.1 -2.2,-0.2 -3.3,-0.2 z m -194,-7 c -0.2,0 -0.3,0 -0.5,0 -66.7,0.7 -133.2,4.7 -197.7,11.7 -22.1,2.4 -38,22.2 -35.6,44.2 2.4,22.1 22.4,37.7 44.3,35.6 61.9,-6.8 125.8,-10.6 189.9,-11.2 22.2,-0.3 39.9,-18.4 39.7,-40.6 -0.2,-22 -18.1,-39.7 -40.1,-39.7"
           style="fill:#f65216;fill-opacity:1;fill-rule:nonzero;stroke:none"
           id="path272" /><path
           d="m 35240.3,10847.6 c -6.1,0 -12.2,1.3 -18.1,4.3 -19.7,10 -27.6,34.1 -17.6,53.9 13.9,27.6 26,55.7 35.8,83.7 7.3,20.9 30.2,31.9 51.1,24.5 21,-7.3 32,-30.2 24.6,-51.1 -11,-31.3 -24.4,-62.7 -39.9,-93.3 -7.1,-14 -21.2,-22 -35.9,-22"
           style="fill:#f65216;fill-opacity:1;fill-rule:nonzero;stroke:none"
           id="path274" /><path
           d="m 25770.1,7107.3 c -16.9,0 -32.7,10.8 -38.2,27.8 -6.8,21.1 4.7,43.7 25.8,50.5 24.6,8 52.2,20 81.8,35.7 19.6,10.4 43.9,2.8 54.3,-16.8 10.3,-19.6 2.8,-43.8 -16.8,-54.2 -33.7,-17.8 -65.5,-31.6 -94.5,-41 -4.1,-1.4 -8.3,-2 -12.4,-2"
           style="fill:#f65216;fill-opacity:1;fill-rule:nonzero;stroke:none"
           id="path276" /><path
           d="m 25803.4,11668 c -19.6,0 -36.8,14.5 -39.7,34.5 -3.1,22 12.2,42.3 34.1,45.4 62.2,8.8 131.2,11.2 202,7.1 22.1,-1.2 39,-20.2 37.8,-42.3 -1.3,-22.1 -20.2,-39.3 -42.4,-37.8 -65.6,3.7 -129.2,1.5 -186.1,-6.5 -1.9,-0.3 -3.8,-0.4 -5.7,-0.4 z m 575.5,-65 c -3.8,0 -7.8,0.5 -11.6,1.7 -62.8,19 -124.9,34.6 -184.7,46.1 -21.7,4.3 -35.9,25.3 -31.7,47.1 4.2,21.8 25.3,36.1 47,31.7 62.5,-12.1 127.3,-28.2 192.7,-48.1 21.2,-6.4 33.1,-28.8 26.7,-50 -5.2,-17.4 -21.2,-28.5 -38.4,-28.5 z m -912.6,-108.8 c -8.8,0 -17.6,2.9 -25,8.8 -17.3,13.8 -20.2,39.1 -6.3,56.4 43.3,54.3 98.9,98.2 165.1,130.4 19.9,9.7 43.9,1.4 53.6,-18.5 9.7,-19.9 1.4,-44 -18.5,-53.6 -55.4,-27 -101.6,-63.5 -137.5,-108.4 -7.9,-9.9 -19.6,-15.1 -31.4,-15.1 z m 1273.5,-35.2 c -5.9,0 -12,1.3 -17.7,4.1 -57.4,28.5 -116.2,54.8 -174.7,78.2 -20.6,8.2 -30.6,31.6 -22.3,52.2 8.2,20.6 31.6,30.5 52.1,22.3 60.5,-24.2 121.2,-51.4 180.5,-80.7 19.9,-9.9 28,-34 18.1,-53.8 -7,-14.1 -21.2,-22.3 -36,-22.3 z m 332.8,-200.8 c -8.3,0 -16.6,2.5 -23.7,7.8 -49.7,36.3 -103.2,71.8 -159.1,105.4 -19,11.4 -25.1,36.1 -13.7,55.1 11.4,19 36,25.1 55.1,13.7 57.9,-34.8 113.5,-71.7 165.1,-109.5 17.9,-13 21.8,-38.2 8.7,-56 -7.9,-10.8 -20.1,-16.5 -32.4,-16.5 z m -1735,-126.3 c -1.9,0 -3.9,0.1 -5.8,0.4 -22,3.2 -37.2,23.5 -34,45.5 9.7,66.3 24.6,132.2 44.4,195.6 6.6,21.2 29.1,33 50.3,26.3 21.1,-6.6 32.9,-29.1 26.3,-50.2 -18.5,-59.4 -32.5,-121.1 -41.5,-183.3 -2.9,-19.9 -20.1,-34.3 -39.7,-34.3 z m -0.1,-387.5 c -19.8,0 -37.1,14.6 -39.7,34.8 -8.9,67.6 -13.6,134.5 -13.8,198.9 0,22.1 17.9,40.1 40,40.2 0.1,0 0.1,0 0.2,0 22.1,0 40,-17.9 40.1,-40 0.2,-60.9 4.6,-124.4 13.1,-188.5 2.9,-22 -12.6,-42.2 -34.6,-45.1 -1.8,-0.2 -3.5,-0.3 -5.3,-0.3 z m 89.6,-377.8 c -16.8,0 -32.4,10.7 -38,27.5 -21.5,64.8 -39.9,128.7 -54.7,190 -5.2,21.6 8.1,43.3 29.6,48.5 21.6,5.1 43.2,-8.1 48.4,-29.7 14.3,-59.1 32.1,-120.9 52.8,-183.5 7,-21.1 -4.4,-43.8 -25.4,-50.8 -4.2,-1.3 -8.5,-2 -12.7,-2 z m 145.6,-360.6 c -15.2,0 -29.6,8.6 -36.4,23.2 -28.9,61.8 -55.4,122.4 -78.8,180 -8.4,20.6 1.5,44 22.1,52.3 20.5,8.4 43.9,-1.5 52.2,-22 23,-56.4 48.9,-115.8 77.2,-176.4 9.4,-20.1 0.7,-44 -19.4,-53.3 -5.5,-2.6 -11.3,-3.8 -16.9,-3.8 z m 176.9,-346.6 c -14.2,0 -28,7.5 -35.3,20.9 -33.7,61.7 -63.7,118.2 -91.7,172.8 -10.1,19.8 -2.3,44 17.4,54 19.7,10.1 43.9,2.4 54,-17.4 27.7,-53.9 57.4,-109.9 90.7,-171 10.7,-19.4 3.5,-43.8 -15.9,-54.4 -6.1,-3.3 -12.7,-4.9 -19.2,-4.9 z m 191.5,-338.8 c -13.9,0 -27.4,7.2 -34.8,20.1 -32.3,56 -64.7,112.3 -96.9,169.1 -10.9,19.3 -4.2,43.8 15.1,54.7 19.3,10.9 43.8,4.2 54.7,-15.1 32.1,-56.6 64.5,-112.8 96.6,-168.7 11.1,-19.2 4.5,-43.7 -14.7,-54.8 -6.3,-3.6 -13.2,-5.3 -20,-5.3 z m 192.3,-338.4 c -14.2,0 -27.9,7.5 -35.2,20.8 -27.4,49.7 -57.6,103.4 -95.1,169.1 -10.9,19.2 -4.2,43.7 15,54.7 19.3,11.1 43.8,4.3 54.8,-14.9 37.6,-66.1 68,-120.1 95.6,-170.2 10.7,-19.4 3.6,-43.8 -15.8,-54.5 -6.1,-3.4 -12.8,-5 -19.3,-5 z m 176.4,-346.8 c -15.2,0 -29.8,8.8 -36.5,23.6 -24.7,54.5 -52.2,111.2 -84.1,173.3 -10.1,19.8 -2.3,43.9 17.4,54 19.7,10.1 43.9,2.4 54,-17.3 32.5,-63.3 60.5,-121.2 85.8,-176.9 9.1,-20.1 0.2,-43.9 -20,-53.1 -5.4,-2.4 -11,-3.6 -16.6,-3.6 z m 130.5,-365.7 c -18.2,0 -34.7,12.4 -39,30.9 -13.4,56.8 -32,117.8 -55.2,181.4 -7.6,20.8 3.1,43.9 24,51.4 20.8,7.7 43.8,-3.1 51.4,-23.9 24.3,-66.6 43.7,-130.6 57.9,-190.4 5.1,-21.6 -8.3,-43.2 -29.8,-48.3 -3.2,-0.8 -6.3,-1.1 -9.3,-1.1 z m 8.9,-385 c -2.9,0 -5.9,0.4 -8.9,1 -21.6,5 -35.2,26.5 -30.2,48.1 12.2,53.8 18.4,108 18.4,161.1 0,7.2 -0.1,14.4 -0.3,21.6 -0.7,22.2 16.7,40.7 38.8,41.4 22.7,0.3 40.7,-16.7 41.4,-38.8 0.3,-8.1 0.4,-16.2 0.4,-24.2 0,-59.1 -6.9,-119.3 -20.5,-178.9 -4.2,-18.6 -20.8,-31.3 -39.1,-31.3 z m -162,-350.8 c -7.9,0 -16,2.3 -23,7.3 -18.2,12.8 -22.5,37.8 -9.7,55.9 37.1,52.8 69,107.2 94.5,161.6 9.4,20.1 33.4,28.7 53.4,19.3 20.1,-9.4 28.7,-33.3 19.3,-53.4 -27.6,-58.7 -61.8,-117.1 -101.6,-173.7 -7.8,-11.1 -20.2,-17 -32.9,-17 z m -267,-281.1 c -11.8,0 -23.6,5.3 -31.5,15.3 -13.7,17.4 -10.8,42.6 6.6,56.4 48.8,38.5 95.7,81.3 139.4,127.2 15.3,16 40.7,16.6 56.7,1.3 16.1,-15.2 16.7,-40.6 1.4,-56.7 -46.3,-48.6 -96,-94 -147.7,-134.8 -7.4,-5.8 -16.2,-8.7 -24.9,-8.7"
           style="fill:#f65216;fill-opacity:1;fill-rule:nonzero;stroke:none"
           id="path278" /><path
           d="m 27291.7,11066.9 c -10.7,0 -21.4,4.3 -29.3,12.8 -20.4,21.8 -42.7,43.9 -66.3,65.7 -16.3,15.1 -17.2,40.5 -2.2,56.7 15,16.3 40.5,17.3 56.7,2.2 25,-23.1 48.7,-46.6 70.4,-69.8 15.1,-16.2 14.3,-41.6 -1.9,-56.8 -7.8,-7.2 -17.6,-10.8 -27.4,-10.8"
           style="fill:#f65216;fill-opacity:1;fill-rule:nonzero;stroke:none"
           id="path280" /><path
           d="m 35069.7,10983.7 c -10.3,0 -20.5,4 -28.4,11.8 -15.6,15.7 -15.6,41.1 0,56.8 l 459.9,459.8 c 15.7,15.7 41.1,15.7 56.7,0 15.7,-15.7 15.7,-41.1 0,-56.8 l -459.8,-459.8 c -7.8,-7.8 -18.1,-11.8 -28.4,-11.8"
           style="fill:#f65216;fill-opacity:1;fill-rule:nonzero;stroke:none"
           id="path282" /><path
           d="m 35529.6,10983.7 c -10.3,0 -20.6,4 -28.4,11.8 l -459.9,459.8 c -15.6,15.7 -15.6,41.1 0,56.8 15.7,15.7 41.1,15.7 56.8,0 l 459.8,-459.8 c 15.7,-15.7 15.7,-41.1 0,-56.8 -7.8,-7.8 -18.1,-11.8 -28.3,-11.8"
           style="fill:#f65216;fill-opacity:1;fill-rule:nonzero;stroke:none"
           id="path284" /><path
           d="m 25480.4,7129.5 c -68.8,0 -124.8,-56 -124.8,-124.9 0,-68.8 56,-124.7 124.8,-124.7 68.8,0 124.8,55.9 124.8,124.7 0,68.9 -56,124.9 -124.8,124.9 z m 0,-329.9 c -113.1,0 -205,92 -205,205 0,113.1 91.9,205.1 205,205.1 113.1,0 205.1,-92 205.1,-205.1 0,-113 -92,-205 -205.1,-205"
           style="fill:#f65216;fill-opacity:1;fill-rule:nonzero;stroke:none"
           id="path286" /><path
           d="m 34310.4,5805.2 c -531.7,339 -972.7,516.3 -1566,685.8 -465.4,133.1 -1247.9,177.9 -1544.9,199.9 -256.4,18.9 -789.5,23.7 -1155.3,16.8 -128.8,-2.4 -236.8,-6.6 -304.8,-12.5 -262,-23.1 -520.1,46.2 -974.8,250.4 -454.6,204.2 -643.3,211.9 -785.9,273.5 -142.5,61.7 -196.5,262 -196.5,262 -246.5,30.8 -331.3,-34.7 -508.5,377.6 -83.1,193.6 -118.5,349.9 -132.6,461.3 -15.9,126 -4.6,194.6 -4.6,194.6 l -0.2,0.1 c -6.9,7.6 -225.7,249.3 -290.2,427.5 -63.9,176.7 30,385.7 34.5,395.5 l 0.1,0.4 c 0,0 -516.2,50 -547,378.2 -1.3,14.2 -1.6,27.7 -0.8,40.6 17.3,281 524.7,213 524.7,213 l 3307.5,435.3 c 0,0 -53,55.4 -133.8,145.1 -278.6,310 -888.1,1030.8 -785.1,1299.6 17.7,46.3 36,84.3 54.8,115.1 122,199.7 266.1,93 436.4,-57.3 196.5,-173.3 456.6,-202.2 890,-618.3 433.4,-416.1 550.6,-348.8 836.1,-540.3 269.7,-180.9 387.1,-390.1 795.4,-721.4 92,-74.7 162.5,-148.5 218.8,-220.3 v -0.1 c 193.6,-246.8 219.3,-468.6 374.5,-611.8 23.8,-22 339.9,-357.6 631.9,-439.2 331.3,-92.4 477.7,-208 824.4,-362.1 154,-68.4 286.1,-104.7 489.1,-149.1 363.2,-79.4 599.4,-913.8 462.9,-1526.5 -136.5,-612.8 -732.5,-1052.2 -950.1,-913.4"
           style="fill:#b96b43;fill-opacity:1;fill-rule:nonzero;stroke:none"
           id="path288" /><path
           d="m 30031.4,10550.3 c -278.7,310 -888.2,1030.7 -785.1,1299.6 17.6,46.3 35.9,84.3 54.7,115.1 -9.8,-114.4 35,-269.3 280.4,-438.7 410.3,-283.2 484,-339.2 681.9,-213.8 198,125.4 -104,-138.7 -92.4,-248.5 11.5,-109.8 187.8,-367.9 497.1,-642.1 201.5,-178.5 -266.6,-23.6 -636.6,128.4"
           style="fill:#8c4a2a;fill-opacity:1;fill-rule:nonzero;stroke:none"
           id="path290" /><path
           d="m 32919.9,9130.8 c -56.2,-49.8 -145.8,-109.8 -239.1,-247.4 -117.3,-173.3 -224.7,-130.3 -179.3,-90.5 45.5,39.6 131.2,167.6 173.6,383.3 42.3,215.8 -157.8,423.7 -197.3,631.1 193.6,-246.8 219.3,-468.6 374.5,-611.8 23.7,-22 46,-43.5 67.6,-64.7"
           style="fill:#8c4a2a;fill-opacity:1;fill-rule:nonzero;stroke:none"
           id="path292" /><path
           d="m 29564.1,8657.2 -361.4,-961.5 -342.8,-68.7 -446.9,232.4 -172.3,-20 -441.6,341.4 11.7,87 -519.1,1193.5 2272.4,-804.1"
           style="fill:#7a371c;fill-opacity:1;fill-rule:nonzero;stroke:none"
           id="path294" /><path
           d="m 34316.3,5801.6 c -62.6,38.6 -141.2,88.5 -233.2,141.9 -175.5,101.9 -332.8,178 -471.5,241.4 -260.6,119 -480,195.4 -867.2,306.1 -468,133.7 -942.9,166.7 -1293,185.7 -3.9,0.3 -7.6,0.5 -11.3,0.6 -34.5,2 -67.7,3.7 -99.7,5.3 -50.5,2.8 -97.7,5.3 -140.9,8.2 -256.5,16.9 -789.5,23.8 -1155.3,16.9 -63.2,100 -269.4,275.3 -405,276.4 -58.1,0.5 -61.6,-100.2 -73.2,-145.4 -11.6,-45.2 -51.2,59.7 -51.2,159.7 0,100.1 -79.1,239.4 -246.6,414.1 -70.1,73.2 -182.6,111.1 -242.7,88.6 -88.8,-33.1 -157.4,-206.1 -155.1,-265.8 3.9,-100.2 11.6,-208.7 -23.1,-212.6 -34.6,-3.8 -60.6,197.2 -79.9,378.3 -19.3,181 -211.9,242.7 -238.9,188.7 -26.9,-53.9 -160.7,-224.2 -322.5,-324.4 -161.8,-100.1 -39,43.2 40.3,105.8 109.8,86.7 152.5,277.6 100.5,255.8 -52,-21.6 -207.4,-79.5 -343.2,-79.5 -134.9,0 133.1,199.5 237.1,292 l 147.2,-3.1 c 0,0 171.5,15.4 294.7,-57.8 123.3,-73.2 164.7,-101.1 196.5,-106.9 31.8,-5.8 81.5,25 144.5,46.2 64.1,21.7 150.2,37.6 150.2,37.6 l 390.3,901.8 c 0,0 2838.7,213.5 3000.8,-133.2 90.7,-193.6 -118.5,-399.9 -291.7,-579.8 -122.4,-127.3 -396.9,-480.5 -412.4,-626.9 -15.4,-146.4 221.3,-349.6 504.9,-397.9 329.7,-56.2 781.9,-143.3 1193.8,-258 323.6,-90.1 655.4,-208.9 815.3,-281.4 168.2,-76.2 375.6,-144.4 574,-266 -26.3,-71.2 -433.4,-435.1 -632.5,-312.4"
           style="fill:#8c4a2a;fill-opacity:1;fill-rule:nonzero;stroke:none"
           id="path296" /><path
           d="m 27020.2,9756.8 c 0,0 53.3,-89 42.4,-127.1 -27.9,-96.8 -90.1,-270.9 -181.8,-291.7 0,0 -320.4,31.1 -471.4,204.7 391.2,-174 499.1,-24.9 610.8,214.1"
           style="fill:#8c4a2a;fill-opacity:1;fill-rule:nonzero;stroke:none"
           id="path298" /><path
           d="M 32450.6,8283.7 30433,6907.9 c -158.3,-108 -422.6,-86.8 -559.1,45 L 26107,10583.2 c -135.4,126.4 -113.6,321.1 2.6,450.4 l 2107,1117.2 c 117.4,71.4 266.9,58.7 368.7,-31.5 l 3966.3,-3449.2 c 6,-106.9 19.8,-141.6 9.9,-210.9 -9.9,-69.4 -50.4,-134.2 -110.9,-175.5"
           style="fill:#431d73;fill-opacity:1;fill-rule:nonzero;stroke:none"
           id="path300" /><path
           d="M 32460.3,8450.1 30434.9,7073.9 c -156.9,-106.6 -367.1,-88.6 -503.6,43.2 l -3786.2,3656 c -91.3,88.2 -74.4,239 34.3,304.7 l 2023.7,1224.5 c 116.4,70.4 265,57 366.8,-33.3 l 3913,-3468.3 c 108.6,-96.3 97.4,-269 -22.6,-350.6"
           style="fill:#190b2b;fill-opacity:1;fill-rule:nonzero;stroke:none"
           id="path302" /><path
           d="m 30142.1,7147.5 c -83.5,0 -162.6,31.9 -222.7,89.9 l -3724.7,3611.5 c -25.5,24.6 -37.9,58.9 -33.9,94.1 3.9,35.2 23.6,65.9 53.9,84.2 l 2023.8,1224.5 c 35.9,21.8 77.1,33.3 119.1,33.3 56.4,0 110.7,-20.6 152.8,-58 L 32362,8803.2 c 33.1,-29.4 50.4,-71.5 47.6,-115.6 -2.8,-44.1 -25.4,-83.7 -62,-108.5 L 30322.2,7202.9 c -53.4,-36.3 -115.6,-55.4 -180.1,-55.4"
           style="fill:#ffffff;fill-opacity:1;fill-rule:nonzero;stroke:none"
           id="path304" /><path
           d="m 27578.1,8972 -404.4,-418.8 -36.6,-37.9 -0.6,-0.8 -0.2,0.2 c -6.9,7.5 -225.7,249.3 -290.2,427.5 -63.9,176.7 30,385.7 34.5,395.5 l 0.2,0.3 198.4,355.9 c 0,0 88.9,24.9 188.7,6.1 84.3,-15.9 176.3,-62.9 229.3,-182.2 57,-128.4 77.3,-262.8 83.4,-366 6.5,-106.4 -2.5,-179.8 -2.5,-179.8"
           style="fill:#b96b43;fill-opacity:1;fill-rule:nonzero;stroke:none"
           id="path306" /><path
           d="m 27578.1,8972 -225.5,-260.7 c 0,0 -181.1,-178.6 -187.9,-158.4 8.2,90.5 45,203.3 127,271.6 82.1,68.4 214.9,161.8 288.9,327.3 6.5,-106.4 -2.5,-179.8 -2.5,-179.8"
           style="fill:#8c4a2a;fill-opacity:1;fill-rule:nonzero;stroke:none"
           id="path308" /><path
           d="m 28055.8,8532.9 c -26.5,-89.5 -89.2,-161.2 -168.5,-216.1 l -0.5,-0.3 c -96,-74.7 -215.4,-107.8 -324.6,-125.6 -88.8,-14.4 -170.6,-13.3 -226.8,2.9 -86.9,25.1 -155.4,71.5 -194.2,126.2 -15.9,126 -4.7,194.6 -4.7,194.6 l -0.2,0.1 c 0,0 174.8,268.6 321.4,351.1 148.2,83.1 209,268 328.4,268 51.4,0 127,-30.6 188.5,-100.3 18.1,-20.4 35,-44.1 49.6,-71.6 51.5,-96 76.1,-236.1 31.6,-429"
           style="fill:#b96b43;fill-opacity:1;fill-rule:nonzero;stroke:none"
           id="path310" /><path
           d="m 27809.2,7693 c -111.7,-104 -200.3,-61.7 -165.6,-30.8 34.7,30.8 103,350.9 7.7,342.8 -95.4,-8 -254.2,61.4 -184.9,65.5 141.4,8.5 334.1,191.3 344.4,197.3 52.5,30.8 110.2,-470.8 -1.6,-574.8"
           style="fill:#8c4a2a;fill-opacity:1;fill-rule:nonzero;stroke:none"
           id="path312" /><path
           d="m 32002.3,6924.4 c 25.3,375.8 386.3,608.7 457,770.5 70.3,160.8 296.3,624.4 303,705.1 7.7,92.4 204.9,372.9 204.9,305.9 0,-67.1 -143.2,-294.4 -166.3,-421.5 -23.1,-127.2 -197.1,-525.9 -289.6,-734 -92.4,-208 -236.3,-462.6 -242.1,-527.7 -5.8,-65.1 -278.5,-270 -266.9,-98.3"
           style="fill:#8c4a2a;fill-opacity:1;fill-rule:nonzero;stroke:none"
           id="path314" /><path
           d="m 27457.7,8865.8 c 0,0 -118.5,-228.9 46.2,-231.8 164.7,-2.9 260.3,176.2 260.3,176.2 0,0 78.5,264.6 0,332.8 -78.6,68.1 -306.5,-277.2 -306.5,-277.2"
           style="fill:#ffcec7;fill-opacity:1;fill-rule:nonzero;stroke:none"
           id="path316" /><path
           d="m 26935.3,9488.3 c -30.1,-67.2 -47.2,-118.6 -50.7,-143.5 -9,-63.5 11.5,-141.4 53,-170.5 57.8,-40.5 135.8,72.6 164.7,224.1 28.9,151.5 33.7,288.5 -23.1,295.5 -56.8,7.1 -113.8,-138.4 -143.9,-205.6"
           style="fill:#ffcec7;fill-opacity:1;fill-rule:nonzero;stroke:none"
           id="path318" /><path
           d="m 27782.3,7481.1 c 0,0 -65.5,265.8 -54,423.8 11.6,157.9 65.5,258.1 285.1,389.1 219.6,131 518.2,344.7 589.5,19.3 88.6,-404.6 -213.6,-536.2 -328.2,-635.7 -141.8,-123.3 -504,-73.2 -492.4,-196.5"
           style="fill:#b96b43;fill-opacity:1;fill-rule:nonzero;stroke:none"
           id="path320" /><path
           d="m 28297.9,8452.2 c 0,0 -315.3,-212.2 -284.5,-296.9 30.9,-84.8 269.7,-53.9 366,0 96.3,53.9 234.1,178.2 159,290.5 -53.5,80 -81.7,88.7 -240.5,6.4"
           style="fill:#ffcec7;fill-opacity:1;fill-rule:nonzero;stroke:none"
           id="path322" /><path
           d="m 30999.9,7771.9 -724.3,663 1011,345.3 1040.1,-114.5 -1326.8,-893.8"
           style="fill:#70d443;fill-opacity:1;fill-rule:nonzero;stroke:none"
           id="path324" /><path
           d="m 27130.6,11479.9 733.8,-734.7 171.9,-786.8 -499.5,-305 -1252.5,1231.5 c -28,27.5 -22.5,74 11.2,94.2 l 835.1,500.8"
           style="fill:#70d443;fill-opacity:1;fill-rule:nonzero;stroke:none"
           id="path326" /><path
           d="m 30198.5,8538.2 -650.7,644 1023.7,1113.1 -3.7,-737 635.4,-703.7 -1004.7,-316.4"
           style="fill:#f2e1bd;fill-opacity:1;fill-rule:nonzero;stroke:none"
           id="path328" /><path
           d="m 30699.1,10176.9 5.8,-579.8 549.6,-708.5 1048.2,-117.3 -1603.6,1405.6"
           style="fill:#f5c970;fill-opacity:1;fill-rule:nonzero;stroke:none"
           id="path330" /><path
           d="m 27206.1,11523.2 712.4,-688.9 788.6,250.1 -865.3,837.6 -635.7,-398.8"
           style="fill:#f5c970;fill-opacity:1;fill-rule:nonzero;stroke:none"
           id="path332" /><path
           d="m 27610.9,9584.6 1638,-1572 589.7,360.1 -539.1,590.5 -1181.8,930.9 -506.8,-309.5"
           style="fill:#f5c970;fill-opacity:1;fill-rule:nonzero;stroke:none"
           id="path334" /><path
           d="m 28097.2,10091 -125.3,648.8 683.8,252.3 -89.2,-453.7 31.1,-545.6 -500.4,98.2"
           style="fill:#f2e1bd;fill-opacity:1;fill-rule:nonzero;stroke:none"
           id="path336" /><path
           d="m 28113.7,10005.7 991.5,-794.7 -465.1,665.6 z"
           style="fill:#f2e1bd;fill-opacity:1;fill-rule:nonzero;stroke:none"
           id="path338" /><path
           d="m 29348.4,11400.4 1114.1,-978 -1551.1,447.8 z"
           style="fill:#70d443;fill-opacity:1;fill-rule:nonzero;stroke:none"
           id="path340" /><path
           d="m 28879.1,10766.2 1623.2,-406.7 -1013.5,-1095.6 -577.4,886.8 -32.3,615.5"
           style="fill:#f5c970;fill-opacity:1;fill-rule:nonzero;stroke:none"
           id="path342" /><path
           d="m 29336.7,7924.1 594.2,362.9 844.1,-682.2 -564,-357.2 c -53.9,-34.2 -124.2,-26 -168.9,19.5 l -705.4,657"
           style="fill:#70d443;fill-opacity:1;fill-rule:nonzero;stroke:none"
           id="path344" /><path
           d="m 27901.8,11957.4 395.8,241.7 c 53.4,32.6 122.1,25.8 168.1,-16.6 l 632.8,-584 -357.1,-418.7 -839.6,777.6"
           style="fill:#f2e1bd;fill-opacity:1;fill-rule:nonzero;stroke:none"
           id="path346" /><path
           d="m 30948.6,9958.2 c -2.1,-11.5 -4.2,-23 -6.3,-34.6 -59.2,-326 -120.4,-663.1 -268.9,-862.4 -40.1,-53.6 -94.9,-101.6 -163.1,-143.2 -136.1,-83.1 -324.9,-140.8 -552.5,-167.2 -40.9,-4.7 -82.4,-8.4 -124.3,-10.9 -56.8,-3.6 -114.2,-5.2 -171.8,-4.9 -400.1,1.5 -800.9,92.8 -1024.8,243.2 -559.4,375.5 -1499.9,1537.8 -2005.4,2162.1 -18.1,22.5 -5.1,6.3 -21.9,27.1 l 173,103.8 c 21.9,-27 13.2,-16.3 37.2,-45.8 499.1,-616.7 1428.1,-1764.6 1961.8,-2123.1 154.7,-103.7 426.8,-173.8 715.7,-193.7 59.4,-4.2 119.7,-6.2 179.5,-6 81.9,0.5 163.3,5 242.2,14.2 274.8,31.6 474,113.2 560.6,229.5 128.5,172.1 189.4,507.9 243.2,804.2 11.3,62.7 22.2,121.6 33,176.6 l 192.8,-168.9"
           style="fill:#7ac7eb;fill-opacity:1;fill-rule:nonzero;stroke:none"
           id="path348" /><path
           d="m 29168.1,11569.9 101.3,-98 c -501.9,-436.9 -554.8,-789.2 -438.1,-1372.5 59.2,-296.1 429.9,-757 845.5,-1196.8 51.8,-54.6 104.1,-109 156.7,-162.7 463,-472.7 954.3,-904.6 1095.2,-1026.9 l -98.3,-64.7 c -58.4,50 -622.6,521.4 -1168.7,1086.7 -55.3,57.3 -110.3,115.3 -164.4,173.6 -399.2,430.8 -746.8,876.9 -806.8,1177.2 -71.6,358.2 -37.4,674.1 104.4,965.8 104.1,214.2 140.5,318.7 373.2,518.3"
           style="fill:#f6bb19;fill-opacity:1;fill-rule:nonzero;stroke:none"
           id="path350" /><path
           d="m 30716.5,9756.8 c -311.5,0 -599,-251.5 -599,-599 0,-347.4 599,-1341.7 599,-1341.7 0,0 599,994.3 599,1341.7 0,347.5 -287.5,599 -599,599"
           style="fill:#f65216;fill-opacity:1;fill-rule:nonzero;stroke:none"
           id="path352" /><path
           d="m 30357.1,9169.8 c 0,198.5 160.9,359.4 359.4,359.4 198.5,0 359.4,-160.9 359.4,-359.4 0,-198.5 -160.9,-359.4 -359.4,-359.4 -198.5,0 -359.4,160.9 -359.4,359.4"
           style="fill:#ffffff;fill-opacity:1;fill-rule:nonzero;stroke:none"
           id="path354" /><path
           d="m 29021.9,12590.2 c -214.5,0 -412.5,-173.3 -412.5,-412.5 0,-239.2 412.5,-923.9 412.5,-923.9 0,0 412.5,684.7 412.5,923.9 0,239.2 -198,412.5 -412.5,412.5"
           style="fill:#f65216;fill-opacity:1;fill-rule:nonzero;stroke:none"
           id="path356" /><path
           d="m 28774.4,12185.9 c 0,136.7 110.8,247.5 247.5,247.5 136.7,0 247.5,-110.8 247.5,-247.5 0,-136.6 -110.8,-247.4 -247.5,-247.4 -136.7,0 -247.5,110.8 -247.5,247.4"
           style="fill:#ffffff;fill-opacity:1;fill-rule:nonzero;stroke:none"
           id="path358" /></g></g></g></svg>
