<?xml version="1.0" encoding="UTF-8" standalone="no"?>
<!-- Created with Inkscape (http://www.inkscape.org/) -->

<svg
   width="484.93845mm"
   height="442.96585mm"
   viewBox="0 0 484.93845 442.96585"
   version="1.1"
   id="svg5"
   inkscape:version="1.1.1 (3bf5ae0d25, 2021-09-20)"
   sodipodi:docname="partners.svg"
   xmlns:inkscape="http://www.inkscape.org/namespaces/inkscape"
   xmlns:sodipodi="http://sodipodi.sourceforge.net/DTD/sodipodi-0.dtd"
   xmlns="http://www.w3.org/2000/svg"
   xmlns:svg="http://www.w3.org/2000/svg">
  <sodipodi:namedview
     id="namedview7"
     pagecolor="#ffffff"
     bordercolor="#666666"
     borderopacity="1.0"
     inkscape:pageshadow="2"
     inkscape:pageopacity="0.0"
     inkscape:pagecheckerboard="0"
     inkscape:document-units="mm"
     showgrid="false"
     fit-margin-top="0"
     fit-margin-left="0"
     fit-margin-right="0"
     fit-margin-bottom="0"
     inkscape:zoom="0.25890048"
     inkscape:cx="994.59066"
     inkscape:cy="1152.9527"
     inkscape:window-width="2560"
     inkscape:window-height="1019"
     inkscape:window-x="0"
     inkscape:window-y="25"
     inkscape:window-maximized="0"
     inkscape:current-layer="g79" />
  <defs
     id="defs2" />
  <g
     inkscape:label="Camada 1"
     inkscape:groupmode="layer"
     id="layer1"
     transform="translate(635.19619,277.20248)">
    <g
       id="g79"
       transform="matrix(0.03527778,0,0,-0.03527778,-383.12816,386.01868)">
      <g
         id="g5225"
         transform="matrix(3.1626908,0,0,3.1626908,-8187.0698,4666.6943)">
        <g
           id="g5932">
          <path
             d="m 3887.7,2812.43 c 0,-914.75 -741.56,-1656.31 -1656.31,-1656.31 -914.76,0 -1656.316,741.56 -1656.316,1656.31 0,914.76 741.556,1656.32 1656.316,1656.32 914.75,0 1656.31,-741.56 1656.31,-1656.32"
             style="fill:#9eded6;fill-opacity:1;fill-rule:nonzero;stroke:none"
             id="path5229" />
          <path
             d="m 2470.51,2199.85 c 0,0 -461.7,-560.3 -625,-545.7 -163.3,14.6 -275.2,287.71 -275.2,287.71 0,0 5.6,2.99 15.1,8.7 47.8,28.19 194.8,121.6 229.2,221.3 33.3,54.1 275.5,446.79 349.2,546.99 79.3,107.7 172.6,111.9 172.6,111.9 52.6,-86.5 119,-152.3 201.3,-164.7 11.3,-1.69 22.3,-2.8 32.8,-3.3 5,-35.2 38.1,-214.79 199.4,-306.7 0,0 6.2,125.1 88.9,136.21 0,0 87.61,47.99 159.9,-22.2 0,0 114.6,123 0,468.39 l -81.8,74.01 -0.09,0.09 -37.5,89.2 c 0,0 418.49,20.91 515.29,-68.8 96.81,-89.6 716,-908.99 716,-908.99 l -900.7,-699.3 c 0,0 -546.1,541.59 -759.4,775.19"
             style="fill:#ffffff;fill-opacity:1;fill-rule:nonzero;stroke:none"
             id="path5231" />
          <path
             d="m 3018.71,2938.45 c 114.6,-345.39 0,-468.39 0,-468.39 -72.29,70.19 -159.9,22.2 -159.9,22.2 l 116.8,428.19 -38.7,92.01 81.8,-74.01"
             style="fill:#cfeee3;fill-opacity:1;fill-rule:nonzero;stroke:none"
             id="path5233" />
          <path
             d="m 2737.71,2572.15 121.1,-79.89 c -82.7,-11.11 -88.9,-136.21 -88.9,-136.21 -161.3,91.91 -194.4,271.5 -199.4,306.7 10.2,-0.49 20.1,-0.4 29.5,0.2 l 137.7,-90.8"
             style="fill:#cfeee3;fill-opacity:1;fill-rule:nonzero;stroke:none"
             id="path5235" />
          <path
             d="m 2467.71,2204.36 c -50.38,62.17 -100.76,124.36 -151.15,186.54 -4.05,5 -11.09,-2.11 -7.07,-7.07 50.38,-62.18 100.77,-124.37 151.15,-186.54 4.05,-5 11.09,2.1 7.07,7.07"
             style="fill:#252936;fill-opacity:1;fill-rule:nonzero;stroke:none"
             id="path5237" />
          <path
             d="m 2423.56,2192.11 c -35.66,15.31 -71.33,30.61 -107,45.93 -5.85,2.51 -10.95,-6.11 -5.05,-8.64 35.67,-15.31 71.34,-30.62 107.01,-45.92 5.85,-2.51 10.94,6.1 5.04,8.63"
             style="fill:#252936;fill-opacity:1;fill-rule:nonzero;stroke:none"
             id="path5239" />
          <path
             d="m 3219.72,1906.89 c -45.35,75.02 -90.7,150.04 -136.05,225.05 -45.14,74.66 -90.27,149.33 -135.41,223.99 -25.57,42.3 -51.15,84.61 -76.73,126.92 -3.32,5.5 -11.97,0.48 -8.63,-5.05 45.35,-75.02 90.7,-150.03 136.05,-225.05 45.13,-74.65 90.27,-149.31 135.41,-223.98 25.57,-42.31 51.15,-84.61 76.72,-126.91 3.33,-5.51 11.99,-0.49 8.64,5.03"
             style="fill:#252936;fill-opacity:1;fill-rule:nonzero;stroke:none"
             id="path5241" />
          <path
             d="m 1821.91,2208.75 c -0.5,-12.29 -3,-24.6 -7.3,-36.89 -34.4,-99.7 -181.4,-193.11 -229.2,-221.3 l -15.1,55.29 c 0,0 -77.5,-17.39 -134.2,31.71 -1.5,-2.9 -3.9,-5.51 -6.7,-7.31 -8,-4.9 -18.1,-4.9 -27.5,-4.1 -42.5,3.8 -83.9,20.1 -117.6,46.41 -19.9,15.5 -37.8,35.59 -43.3,60.19 -5.3,23.3 3.6,51 24.3,62.41 -0.8,3.7 -1.3,7.5 -1.5,11.3 -0.9,21.69 10.5,42.5 26,57.69 14.3,14.2 32,24.31 49.7,33.91 0.2,0.9 0.4,1.7 0.6,2.5 4.3,15.4 15.3,28.19 28.1,37.69 11.6,8.61 24.8,14.81 38,20.8 -64.1,33 -125.6,69.6 -119.4,86.01 12.5,33.29 143.8,21.49 276.6,-25 132.7,-46.6 176.1,-116.01 176.1,-116.01 41.3,18.3 86.5,14.7 82.4,-95.3"
             style="fill:#f68164;fill-opacity:1;fill-rule:nonzero;stroke:none"
             id="path5243" />
          <path
             d="m 1773.25,2190.03 c -30.94,-13.28 -61.89,-26.55 -92.83,-39.83 -15.66,-6.72 -31.33,-13.44 -46.99,-20.16 -12.87,-5.53 -28.55,-14.53 -43,-10.06 -15.56,4.82 -15.73,22.25 -9.77,34.73 5.97,12.48 15.28,23.87 23.9,34.61 17.01,21.2 36.24,40.62 57.21,57.91 24.34,20.05 51.15,36.98 79.55,50.66 5.8,2.79 0.73,11.42 -5.05,8.63 -54.89,-26.44 -103.65,-65.41 -141.32,-113.33 -14.7,-18.69 -42.39,-51.65 -20.33,-75.06 10.07,-10.67 26.25,-10.71 39.33,-6.67 16.23,5.02 31.85,13.08 47.45,19.77 38.97,16.73 77.93,33.45 116.9,50.17 5.89,2.53 0.81,11.14 -5.05,8.63"
             style="fill:#252936;fill-opacity:1;fill-rule:nonzero;stroke:none"
             id="path5245" />
          <path
             d="m 1529.32,2289.86 c -38.8,23.17 -77.6,46.33 -116.39,69.5 -5.54,3.31 -10.57,-5.34 -5.05,-8.64 l 116.39,-69.49 c 5.54,-3.31 10.57,5.33 5.05,8.63"
             style="fill:#252936;fill-opacity:1;fill-rule:nonzero;stroke:none"
             id="path5247" />
          <path
             d="m 1547.42,2102.53 c -1.06,9.46 -5.34,18.2 -8.97,26.88 -3.99,9.55 -7.99,19.11 -11.98,28.67 -18.36,43.93 -36.72,87.88 -55.09,131.81 -2.44,5.85 -12.12,3.28 -9.64,-2.65 14.85,-35.54 29.7,-71.08 44.55,-106.61 7.5,-17.95 15.01,-35.91 22.51,-53.87 4.56,-10.9 18.58,-39.58 -1.65,-44.21 -14.18,-3.25 -30.73,10.92 -41.49,18.49 -12.43,8.75 -24.25,18.32 -35.45,28.59 -22.24,20.41 -41.95,43.52 -58.53,68.74 -18.74,28.51 -33.4,59.5 -43.47,92.1 -1.9,6.13 -11.55,3.51 -9.65,-2.66 19.49,-63.08 55.92,-120.61 104.58,-165.25 11.82,-10.84 24.36,-20.93 37.48,-30.16 12.44,-8.76 27.35,-20.44 43.38,-20.19 16.35,0.26 25.12,15.25 23.42,30.32"
             style="fill:#252936;fill-opacity:1;fill-rule:nonzero;stroke:none"
             id="path5249" />
          <path
             d="m 1463.39,2097.29 c -3.83,5.07 -12.52,0.09 -8.63,-5.04 6.77,-8.97 7.44,-21.17 -0.5,-29.71 -7.87,-8.48 -19.57,-8.56 -29.64,-4.11 -10.25,4.52 -19.21,12.15 -27.96,19.01 -9.11,7.16 -18.06,14.53 -26.83,22.09 -34.82,30.04 -66.83,63.22 -95.72,99 -4.05,5 -11.08,-2.11 -7.07,-7.07 26.54,-32.87 55.71,-63.55 87.29,-91.62 15.38,-13.66 31.3,-26.78 47.78,-39.11 14.48,-10.84 33.4,-21.17 51.2,-11.43 17.3,9.45 21.89,32.37 10.08,47.99"
             style="fill:#252936;fill-opacity:1;fill-rule:nonzero;stroke:none"
             id="path5251" />
          <path
             d="m 2975.61,2920.45 -116.8,-428.19 -121.1,79.89 c 124.6,177.01 100.3,387.21 100.3,387.21 0,0 -19.4,-283.11 -238,-296.41 -9.4,-0.6 -19.3,-0.69 -29.5,-0.2 -10.5,0.51 -21.5,1.61 -32.8,3.3 -82.3,12.4 -148.7,78.2 -201.3,164.71 -104.5,171.79 -155,424.8 -168.7,502.5 123.1,16.1 242.7,67.79 359.5,114.4 36.1,14.4 74.21,28.69 112.9,24.4 39.6,-4.31 75.1,-27.9 101.71,-57.61 23.29,-26.1 40.69,-56.7 57.1,-87.59 4.6,28.19 23.69,112.79 87.69,88.39 7.4,-2.79 14,-7.3 19.7,-12.99 53.1,-53.61 33.6,-220 -26.6,-253.91 l 19.61,-46.6 37.5,-89.2 0.09,-0.09 38.7,-92.01"
             style="fill:#f68164;fill-opacity:1;fill-rule:nonzero;stroke:none"
             id="path5253" />
          <path
             d="m 2838.01,2959.36 c 0,0 24.3,-210.2 -100.3,-387.21 l -137.7,90.8 c 218.6,13.3 238,296.41 238,296.41"
             style="fill:#252936;fill-opacity:1;fill-rule:nonzero;stroke:none"
             id="path5255" />
          <path
             d="m 2683.21,3798.75 c -47.8,17.21 -101.39,6.01 -148,-14.19 -46.6,-20.11 -89.2,-48.71 -136,-68.21 -85.5,-35.39 -183.9,-38.49 -271.3,-8.4 -32.4,11.21 -67.8,26.81 -99.3,13.4 -24.42,-10.39 -38,-36 -40.6,-62.88 -0.01,6.04 0.29,12.06 1.3,18.01 2.71,16.01 9.75,31.28 22.52,41.7 13.83,11.28 32.37,15.15 49.84,15.04 20.62,-0.13 40.65,-5.95 60.37,-11.37 19.2,-5.28 38.5,-9.68 58.26,-12.32 76.68,-10.24 156.04,2.81 225.25,37.4 70.96,35.47 135.87,94.87 219.02,97.52 37.2,1.18 73,-11.78 98.96,-38.79 26.22,-27.24 38.39,-65.58 33.32,-103.01 -0.18,-1.29 -0.55,-2.55 -0.77,-3.83 1.86,42.64 -31.4,84.9 -72.87,99.93 z m 212.3,-245.29 c -5.9,37.59 -15.1,76.7 -40.2,105.29 -22.49,25.53 -61.36,39.11 -91.85,26.54 8.74,33.57 4.5,70.28 -12.74,100.6 -17.78,31.27 -48.32,54.89 -83.15,63.96 -84.8,22.08 -162.24,-33.72 -231.09,-74.45 -36.8,-21.77 -75.21,-39.21 -116.95,-49.08 -40.67,-9.61 -82.87,-12.46 -124.47,-8.49 -21.14,2.02 -41.99,6.02 -62.5,11.52 -20.47,5.48 -40.89,11.83 -62.13,13.5 -35.28,2.78 -71.24,-10.58 -85.44,-45.07 -13.23,-32.13 -6.43,-69.63 6.45,-100.71 9.04,-21.84 21.86,-41.98 37.61,-59.51 -38.44,4 -79.08,-15.66 -98.34,-49.41 -21.8,-38.19 -14.1,-90.8 17.7,-121.2 27.5,-26.3 67.3,-34.69 105.2,-37.5 38.4,-2.9 76.4,-1.19 114.1,3.81 123.1,16.1 242.7,67.79 359.51,114.4 36.09,14.4 74.2,28.69 112.9,24.4 39.6,-4.31 75.09,-27.9 101.7,-57.61 23.3,-26.1 40.69,-56.7 57.1,-87.59 4.6,28.19 23.7,112.79 87.69,88.39 7.4,-2.79 14,-7.3 19.7,-12.99 0.7,50.49 -2.9,101.2 -10.8,151.2"
             style="fill:#252936;fill-opacity:1;fill-rule:nonzero;stroke:none"
             id="path5257" />
          <path
             d="m 2685.12,2955.95 c 0,0 55.59,-101.59 -29.21,-160.59 -84.8,-59.11 -144.6,24.8 -144.6,24.8 l 173.81,135.79"
             style="fill:#ffffff;fill-opacity:1;fill-rule:nonzero;stroke:none"
             id="path5259" />
          <path
             d="m 2396.01,3140.05 115.3,-229.4 c 0,0 -93.8,-52.79 -115.3,-22.2 -21.6,30.6 0,251.6 0,251.6"
             style="fill:#f36254;fill-opacity:1;fill-rule:nonzero;stroke:none"
             id="path5261" />
          <path
             d="m 2353.56,3088.26 c 8.85,-29.94 -0.84,-59.19 -21.64,-65.34 -20.8,-6.14 -44.83,13.15 -53.67,43.09 -8.85,29.94 0.85,59.19 21.64,65.33 20.8,6.15 44.83,-13.14 53.67,-43.08"
             style="fill:#252936;fill-opacity:1;fill-rule:nonzero;stroke:none"
             id="path5263" />
          <path
             d="m 2596.88,3170.34 c 8.85,-29.94 -0.84,-59.19 -21.64,-65.34 -20.79,-6.14 -44.82,13.15 -53.67,43.09 -8.85,29.94 0.85,59.19 21.64,65.33 20.8,6.15 44.84,-13.14 53.67,-43.08"
             style="fill:#252936;fill-opacity:1;fill-rule:nonzero;stroke:none"
             id="path5265" />
          <path
             d="m 2303,3209.4 c -18.95,-4.52 -37.25,-11.91 -54.27,-21.36 -9.16,-5.08 -12.32,-18.94 -6.43,-27.55 6.38,-9.31 17.74,-11.87 27.55,-6.43 4.22,2.34 8.56,4.44 12.93,6.47 10.22,4.36 20.74,7.93 31.55,10.51 10.2,2.43 16.91,15 13.52,24.85 -3.69,10.7 -13.93,16.12 -24.85,13.51"
             style="fill:#252936;fill-opacity:1;fill-rule:nonzero;stroke:none"
             id="path5267" />
          <path
             d="m 2588,3276.66 c -4.2,3.61 -8.6,4.9 -14.06,5.43 -24.22,2.34 -49.5,-1.42 -72.01,-10.63 -5.06,-2.07 -9.2,-4.66 -11.9,-9.62 -2.35,-4.32 -3.24,-10.51 -1.61,-15.23 3.24,-9.4 14.47,-17.75 24.84,-13.51 9.32,3.81 18.99,6.47 28.88,8.25 10.79,1.43 21.67,1.78 32.52,0.73 4.82,-0.46 11.04,2.93 14.21,6.3 3.29,3.51 5.74,9.19 5.43,14.07 -0.34,5.24 -2.2,10.68 -6.3,14.21"
             style="fill:#252936;fill-opacity:1;fill-rule:nonzero;stroke:none"
             id="path5269" />
          <path
             d="m 2760.76,3853.49 c -2.55,5.89 -11.16,0.81 -8.63,-5.05 18.58,-43.05 27.79,-89.68 27.31,-136.54 -0.06,-6.44 9.94,-6.44 10,0 0.5,48.73 -9.37,96.86 -28.68,141.59"
             style="fill:#252936;fill-opacity:1;fill-rule:nonzero;stroke:none"
             id="path5271" />
          <path
             d="m 2806.56,3767.26 c -4.27,-17.59 -8.53,-35.17 -12.8,-52.75 -1.51,-6.25 8.12,-8.92 9.64,-2.66 4.27,17.58 8.53,35.17 12.8,52.75 1.51,6.25 -8.12,8.92 -9.64,2.66"
             style="fill:#252936;fill-opacity:1;fill-rule:nonzero;stroke:none"
             id="path5273" />
          <path
             d="M 2738.59,805.59 V 741.68 H 1846.4 l -680.1,369.71 v 57.5 l 693.1,-363.3 h 879.19"
             style="fill:#7e8182;fill-opacity:1;fill-rule:nonzero;stroke:none"
             id="path5275" />
          <path
             d="M 2738.59,805.59 H 1859.4 l -693.1,363.3 h 879.2 l 693.09,-363.3"
             style="fill:#aaacab;fill-opacity:1;fill-rule:nonzero;stroke:none"
             id="path5277" />
          <path
             d="m 1952.45,833.52 h -108.27 l -85.35,44.742 h 108.26 l 85.36,-44.742"
             style="fill:#7e8182;fill-opacity:1;fill-rule:nonzero;stroke:none"
             id="path5279" />
          <path
             d="m 1838.03,893.289 h -108.27 l -85.35,44.75 h 108.27 l 85.35,-44.75"
             style="fill:#7e8182;fill-opacity:1;fill-rule:nonzero;stroke:none"
             id="path5281" />
          <path
             d="m 1741.22,950.73 h -108.27 l -85.35,44.739 h 108.27 l 85.35,-44.739"
             style="fill:#7e8182;fill-opacity:1;fill-rule:nonzero;stroke:none"
             id="path5283" />
          <path
             d="m 1626.8,1010.51 h -108.26 l -85.36,44.73 h 108.27 l 85.35,-44.73"
             style="fill:#7e8182;fill-opacity:1;fill-rule:nonzero;stroke:none"
             id="path5285" />
          <path
             d="m 2083.12,842.211 h -108.28 l -85.35,44.73 h 108.27 l 85.36,-44.73"
             style="fill:#7e8182;fill-opacity:1;fill-rule:nonzero;stroke:none"
             id="path5287" />
          <path
             d="m 1986.3,899.641 h -108.26 l -85.36,44.75 h 108.27 l 85.35,-44.75"
             style="fill:#7e8182;fill-opacity:1;fill-rule:nonzero;stroke:none"
             id="path5289" />
          <path
             d="m 1871.89,959.422 h -108.27 l -85.35,44.738 h 108.26 l 85.36,-44.738"
             style="fill:#7e8182;fill-opacity:1;fill-rule:nonzero;stroke:none"
             id="path5291" />
          <path
             d="m 2106.74,910.301 h -108.26 l -85.36,44.738 h 108.27 l 85.35,-44.738"
             style="fill:#7e8182;fill-opacity:1;fill-rule:nonzero;stroke:none"
             id="path5293" />
          <path
             d="m 2009.93,967.73 h -108.27 l -85.35,44.75 h 108.27 l 85.35,-44.75"
             style="fill:#7e8182;fill-opacity:1;fill-rule:nonzero;stroke:none"
             id="path5295" />
          <path
             d="m 1895.52,1027.51 h -108.27 l -85.36,44.75 h 108.28 l 85.35,-44.75"
             style="fill:#7e8182;fill-opacity:1;fill-rule:nonzero;stroke:none"
             id="path5297" />
          <path
             d="M 2505.57,828.121 H 2397.3 l -85.35,44.731 h 108.27 l 85.35,-44.731"
             style="fill:#7e8182;fill-opacity:1;fill-rule:nonzero;stroke:none"
             id="path5299" />
          <path
             d="m 2391.15,887.891 h -108.26 l -85.36,44.738 h 108.27 l 85.35,-44.738"
             style="fill:#7e8182;fill-opacity:1;fill-rule:nonzero;stroke:none"
             id="path5301" />
          <path
             d="m 2294.35,945.32 h -108.28 l -85.35,44.75 h 108.27 l 85.36,-44.75"
             style="fill:#7e8182;fill-opacity:1;fill-rule:nonzero;stroke:none"
             id="path5303" />
          <path
             d="m 2179.93,1005.11 h -108.27 l -85.36,44.73 h 108.28 l 85.35,-44.73"
             style="fill:#7e8182;fill-opacity:1;fill-rule:nonzero;stroke:none"
             id="path5305" />
          <path
             d="m 2636.24,836.809 h -108.27 l -85.35,44.73 h 108.27 l 85.35,-44.73"
             style="fill:#7e8182;fill-opacity:1;fill-rule:nonzero;stroke:none"
             id="path5307" />
          <path
             d="m 2539.42,894.242 h -108.26 l -85.35,44.727 h 108.27 l 85.34,-44.727"
             style="fill:#7e8182;fill-opacity:1;fill-rule:nonzero;stroke:none"
             id="path5309" />
          <path
             d="m 2425.01,954.012 h -108.27 l -85.35,44.75 h 108.27 l 85.35,-44.75"
             style="fill:#7e8182;fill-opacity:1;fill-rule:nonzero;stroke:none"
             id="path5311" />
          <path
             d="m 3300.29,498.551 h -879.2 l -448.91,235.781 h 879.21 l 448.9,-235.781"
             style="fill:#ccddd8;fill-opacity:1;fill-rule:nonzero;stroke:none"
             id="path5313" />
          <path
             d="m 2690.54,526.852 h -255.88 l -130.65,68.617 h 255.88 l 130.65,-68.617"
             style="fill:#55c6c2;fill-opacity:1;fill-rule:nonzero;stroke:none"
             id="path5315" />
          <path
             d="m 2770.43,531.172 c -1.56,0 -3.15,0.367 -4.64,1.137 l -303.41,159.363 c -4.89,2.57 -6.77,8.609 -4.21,13.508 2.58,4.89 8.62,6.742 13.51,4.211 l 303.41,-159.36 c 4.89,-2.57 6.77,-8.609 4.21,-13.511 -1.8,-3.399 -5.28,-5.348 -8.87,-5.348"
             style="fill:#aaacab;fill-opacity:1;fill-rule:nonzero;stroke:none"
             id="path5317" />
          <path
             d="m 2872.5,537.039 c -1.56,0 -3.15,0.371 -4.64,1.141 l -303.41,159.359 c -4.89,2.57 -6.77,8.609 -4.21,13.512 2.58,4.89 8.62,6.738 13.51,4.199 l 303.41,-159.352 c 4.89,-2.566 6.78,-8.609 4.21,-13.507 -1.8,-3.411 -5.28,-5.352 -8.87,-5.352"
             style="fill:#aaacab;fill-opacity:1;fill-rule:nonzero;stroke:none"
             id="path5319" />
          <path
             d="m 3011.28,528.23 c -1.56,0 -3.16,0.372 -4.64,1.149 L 2703.23,688.73 c -4.89,2.571 -6.78,8.61 -4.21,13.512 2.58,4.887 8.62,6.738 13.51,4.207 L 3015.94,547.09 c 4.89,-2.57 6.77,-8.61 4.21,-13.508 -1.8,-3.402 -5.28,-5.352 -8.87,-5.352"
             style="fill:#aaacab;fill-opacity:1;fill-rule:nonzero;stroke:none"
             id="path5321" />
          <path
             d="m 3113.35,534.102 c -1.56,0 -3.15,0.367 -4.64,1.136 L 2805.3,694.602 c -4.89,2.57 -6.77,8.609 -4.21,13.507 2.58,4.891 8.62,6.743 13.51,4.2 l 303.41,-159.348 c 4.89,-2.57 6.77,-8.609 4.21,-13.512 -1.8,-3.398 -5.28,-5.347 -8.87,-5.347"
             style="fill:#aaacab;fill-opacity:1;fill-rule:nonzero;stroke:none"
             id="path5323" />
          <path
             d="m 4030.06,3187.25 171.11,89.08 c 68.23,-17.88 142.34,-16.87 214.35,6.92 198.81,65.68 306.73,280.09 241.04,478.9 -65.68,198.81 -280.09,306.73 -478.89,241.05 -198.71,-65.65 -306.63,-280.06 -240.94,-478.87 18.99,-57.5 50.52,-107.48 90.46,-147.78 l 2.87,-189.3"
             style="fill:#9eded6;fill-opacity:1;fill-rule:nonzero;stroke:none"
             id="path5325" />
          <path
             d="m 4403.48,3380.13 v -24.82 h -188.13 v 70.94 l 188.13,-46.12"
             style="fill:#7e8182;fill-opacity:1;fill-rule:nonzero;stroke:none"
             id="path5327" />
          <path
             d="m 4237.59,3355.31 h 144.48 c 0,0 -3.42,-29.89 -72.71,-29.89 -69.18,0 -71.77,29.89 -71.77,29.89"
             style="fill:#aaacab;fill-opacity:1;fill-rule:nonzero;stroke:none"
             id="path5329" />
          <path
             d="m 4403.48,3447.66 v -67.53 l -188.13,46.12 v 21.41 h 13.48 165.42 9.23"
             style="fill:#aaacab;fill-opacity:1;fill-rule:nonzero;stroke:none"
             id="path5331" />
          <path
             d="m 4533.38,3745.2 c 0,-81.74 -44.2,-153.24 -110.07,-191.71 l -29.06,-105.83 h -165.42 l -28.98,105.83 c -65.87,38.47 -110.15,109.97 -110.15,191.71 0,122.52 99.36,221.8 221.88,221.8 122.52,0 221.8,-99.28 221.8,-221.8"
             style="fill:#55c6c2;fill-opacity:1;fill-rule:nonzero;stroke:none"
             id="path5333" />
          <path
             d="m 4222.5,3693.75 c -0.83,5.3 -8.88,3.05 -8.06,-2.21 12.41,-79.49 24.8,-158.99 37.19,-238.48 0.82,-5.3 8.87,-3.05 8.05,2.22 -12.4,79.49 -24.79,158.98 -37.18,238.47"
             style="fill:#ffffff;fill-opacity:1;fill-rule:nonzero;stroke:none"
             id="path5335" />
          <path
             d="m 4398.43,3701.83 c -13.37,-83.68 -26.75,-167.36 -40.13,-251.05 -0.84,-5.25 7.21,-7.52 8.06,-2.22 13.38,83.69 26.75,167.37 40.12,251.05 0.84,5.26 -7.2,7.52 -8.05,2.22"
             style="fill:#ffffff;fill-opacity:1;fill-rule:nonzero;stroke:none"
             id="path5337" />
          <path
             d="m 4336.45,3653.5 c -9.01,19.92 -11.94,43.93 -6.58,65.26 1.21,4.84 3.46,10.59 8.72,12.18 5.12,1.56 8.58,-2.81 10.42,-7.01 3.8,-8.61 3.58,-19.5 2.85,-28.7 -1.22,-15.24 -6.35,-30.29 -14.7,-43.17 -0.23,0.47 -0.5,0.95 -0.71,1.44 z m -72.72,50.34 c 0.77,5.34 1.81,11.73 6.03,15.52 5.09,4.59 10.85,1.6 13.08,-4.11 2.06,-5.27 1.24,-11.65 1.08,-17.17 -0.19,-5.87 -0.41,-11.76 -0.98,-17.61 -1.08,-11.04 -4,-23.4 -9.79,-33.54 -8.78,17.41 -12.19,37.64 -9.42,56.91 z m 157.29,-62.46 c -6.27,-17.3 -25.68,-28.99 -43.94,-25.49 -15.44,2.96 -27.21,14.4 -35.26,27.58 7.53,10.83 12.85,23.42 15.71,35.07 3.03,12.31 3.79,25.15 2.02,37.7 -1.35,9.56 -5.84,21.76 -16.86,23.25 -12.9,1.74 -19.52,-11.24 -21.61,-21.87 -2.69,-13.72 -2.67,-27.85 -0.22,-41.61 1.87,-10.58 5.48,-21.52 10.72,-31.56 -1.09,-1.36 -2.18,-2.73 -3.36,-4.02 -7.16,-7.81 -16.24,-15.07 -27.25,-15.68 -10.55,-0.58 -17.89,6 -23.27,14.16 5.57,8.02 9.44,17.5 11.43,26.93 2.94,13.87 4.17,29.3 3.22,43.44 -0.73,11 -8.35,23.92 -21.25,20.21 -13.26,-3.81 -15.48,-19.96 -16.34,-31.58 -1,-13.29 0.66,-26.9 4.72,-39.59 2.03,-6.35 4.71,-13.03 8.15,-19.21 -5.41,-6.26 -12.45,-10.85 -21.56,-12.37 -25.13,-4.18 -34.6,21.55 -39.48,41.09 -1.31,5.21 -9.36,3 -8.06,-2.22 5.43,-21.68 15.99,-47.73 42.45,-47.63 12.74,0.05 23.15,5.65 31.13,14.04 2.02,-2.76 4.25,-5.32 6.74,-7.54 9.63,-8.57 22.62,-10.11 34.47,-5.33 8.83,3.56 16.5,9.7 22.97,17.19 7.7,-11.72 18.07,-21.4 31.26,-26.4 24.64,-9.33 52.68,4.85 61.51,29.22 1.84,5.06 -6.23,7.24 -8.04,2.22"
             style="fill:#ffffff;fill-opacity:1;fill-rule:nonzero;stroke:none"
             id="path5339" />
          <path
             d="m 1890.06,3131.2 -178.01,-27.61 c -41.45,-51.19 -97.75,-91.41 -165.1,-113.34 -185.91,-60.53 -385.68,41.1 -446.22,227.01 -60.53,185.9 41.11,385.68 227.01,446.22 185.81,60.49 385.59,-41.14 446.12,-227.04 17.51,-53.78 21.43,-108.81 13.67,-161.22 l 102.53,-144.02"
             style="fill:#ffffff;fill-opacity:1;fill-rule:nonzero;stroke:none"
             id="path5341" />
          <path
             d="m 1718.64,3440.44 -331.47,-331.47 -180.21,180.32 87.37,87.37 92.84,-92.84 243.99,244 87.48,-87.38"
             style="fill:#55c6c2;fill-opacity:1;fill-rule:nonzero;stroke:none"
             id="path5343" />
          <path
             d="m 3791.11,2343.23 -225.8,-253.4 -57.69,-155.7 -11.81,146.01 -23.7,177.9 2.4,32.9 13.51,185.9 c -37.5,-3.51 -74.01,-2.5 -108.3,3.7 -135,23.99 -238.01,127.09 -250.91,350.19 -7.89,135.91 8.9,238.3 31.6,312.1 33.3,108.41 79.6,154.9 79.6,154.9 0,0 168.91,-282.9 392.7,-314.19 0,0 41,96.69 104.91,68.19 63.99,-28.5 63.99,-220.9 -37.41,-246.1 -13.3,-133.1 6.1,-269.5 56.1,-393.6 9.61,-23.7 20.7,-47.5 34.8,-68.8"
             style="fill:#f68164;fill-opacity:1;fill-rule:nonzero;stroke:none"
             id="path5345" />
          <path
             d="m 3570.31,2902.93 c 50,0 90.5,-40.5 90.5,-90.5 0,-50 -40.5,-90.5 -90.5,-90.5 -50,0 -90.5,40.5 -90.5,90.5 0,50 40.5,90.5 90.5,90.5"
             style="fill:#f36254;fill-opacity:1;fill-rule:nonzero;stroke:none"
             id="path5347" />
          <path
             d="m 3600.71,2499.13 -119.8,-119.6 7.11,97.31 c 36.79,3.3 74.69,10.99 112.69,22.29"
             style="fill:#252936;fill-opacity:1;fill-rule:nonzero;stroke:none"
             id="path5349" />
          <path
             d="m 3480.91,2379.53 -6.4,-88.59 c 0,0 -129.79,-58.21 -189.3,-195.71 -12.9,41.8 -11.5,87.5 -2.19,130.4 10.5,48 30.29,93.31 50.29,138 17.1,38.3 34.5,76.8 46.41,116.91 34.29,-6.2 70.8,-7.21 108.3,-3.7 l -7.11,-97.31"
             style="fill:#252936;fill-opacity:1;fill-rule:nonzero;stroke:none"
             id="path5351" />
          <path
             d="m 3266.42,2940.53 51.49,-216.9 c 0,0 -89.7,-27.1 -101.49,-5.5 -11.81,21.5 50,222.4 50,222.4"
             style="fill:#f36254;fill-opacity:1;fill-rule:nonzero;stroke:none"
             id="path5353" />
          <path
             d="m 4528.1,2091.78 c -9.73,144.87 -79.83,280.07 -160.69,401.35 -55.08,82.53 -115.99,161.62 -170.18,244.58 38.54,-38.14 77.7,-75.71 115.28,-114.7 79.4,-82.38 154.59,-174.37 192.82,-283.75 27.65,-79.11 34.48,-164.66 22.77,-247.48 z m -1097.87,973.24 c -28.12,20.49 -53.76,44.25 -78,69.15 -23.75,24.38 -47.09,49.64 -66.61,77.61 -14.68,21.07 -27.07,44 -34.48,68.51 34.5,-52.24 146.77,-208.11 295.02,-271.86 -41.7,10.69 -81.03,31.16 -115.93,56.59 z M 4528.56,2296 c -26.81,109.66 -91.9,204.56 -166.05,287.86 -60.02,67.43 -126.73,128.42 -189.99,192.72 -19.82,32.27 -38.36,65.29 -54.9,99.46 -62.01,127.9 -94.51,268.59 -158.3,395.49 -63.91,127.01 -171.01,245.2 -311.41,267.1 -206.2,32.2 -403,-150.6 -608.1,-112.1 -8.1,-104.3 34.91,-211.5 112.9,-281.3 l 7.7,-2.4 c 28.57,93 66.62,140.33 76.88,151.93 12.34,-61.41 54.99,-111.92 97.18,-156.53 49.34,-52.17 104.89,-100.66 172.34,-127.58 29.11,-11.62 60.05,-18.8 91.32,-20.08 11.38,-2.93 22.89,-5.4 34.58,-7.03 0,0 41,96.69 104.91,68.19 63.99,-28.5 63.99,-220.9 -37.41,-246.1 -13.3,-133.1 6.1,-269.5 56.1,-393.6 9.61,-23.7 20.7,-47.5 34.8,-68.8 8.7,-13.3 18.61,-25.59 30.1,-36.39 v -0.1 c 4.1,-3.81 8.4,-7.5 13,-11.01 87.9,-67.1 217.4,-26.89 320.91,-65.8 95.8,-35.99 155.19,-136.8 170.8,-238 15.69,-101.2 -4.71,-204.1 -24.9,-304.5 l 1.79,-0.59 c 2,5.99 3.9,12.1 5.8,18.09 134.35,47.56 213.95,193.22 220.33,336.53 19.32,83.39 19.97,171.3 -0.38,254.54"
             style="fill:#252936;fill-opacity:1;fill-rule:nonzero;stroke:none"
             id="path5355" />
          <path
             d="m 3228.69,2938.64 c 0,-31.22 -17.59,-56.53 -39.27,-56.53 -21.69,0 -39.26,25.31 -39.26,56.53 0,31.22 17.57,56.53 39.26,56.53 21.68,0 39.27,-25.31 39.27,-56.53"
             style="fill:#252936;fill-opacity:1;fill-rule:nonzero;stroke:none"
             id="path5357" />
          <path
             d="m 3432.2,2946.75 c 0,-31.22 -17.58,-56.53 -39.26,-56.53 -21.69,0 -39.27,25.31 -39.27,56.53 0,31.21 17.58,56.52 39.27,56.52 21.68,0 39.26,-25.31 39.26,-56.52"
             style="fill:#252936;fill-opacity:1;fill-rule:nonzero;stroke:none"
             id="path5359" />
          <path
             d="m 3214.52,3069.15 c -19.45,1.03 -39.1,-0.88 -58.1,-5.12 -10.23,-2.27 -17.18,-14.67 -13.97,-24.6 3.48,-10.73 13.65,-16.41 24.6,-13.97 4.71,1.05 9.46,1.83 14.24,2.54 11.02,1.29 22.13,1.73 33.23,1.15 10.46,-0.56 20.46,9.59 20,20 -0.51,11.3 -8.79,19.39 -20,20"
             style="fill:#252936;fill-opacity:1;fill-rule:nonzero;stroke:none"
             id="path5361" />
          <path
             d="m 3453.8,3051.23 c -3,4.65 -6.86,7.13 -11.95,9.19 -22.56,9.11 -47.87,12.66 -72.07,10.21 -5.43,-0.55 -10.14,-1.87 -14.14,-5.86 -3.47,-3.47 -6.08,-9.16 -5.86,-14.14 0.44,-9.93 8.85,-21.13 20,-20 10.01,1.01 20.04,0.83 30.03,-0.27 10.77,-1.68 21.28,-4.43 31.4,-8.51 4.49,-1.81 11.43,-0.32 15.41,2.02 4.15,2.42 8.11,7.18 9.19,11.95 1.17,5.12 0.92,10.86 -2.01,15.41"
             style="fill:#252936;fill-opacity:1;fill-rule:nonzero;stroke:none"
             id="path5363" />
          <path
             d="m 3468.96,2650.23 c 14.5,-35.83 0.86,-75.14 -30.44,-87.82 -31.32,-12.67 -68.45,6.11 -82.95,41.93 -14.51,35.83 -0.87,75.14 30.45,87.81 31.3,12.67 68.44,-6.1 82.94,-41.92"
             style="fill:#e85b41;fill-opacity:1;fill-rule:nonzero;stroke:none"
             id="path5365" />
          <path
             d="m 3479.81,2700.03 c 0,0 29.91,-85.5 -56.29,-113.99 -70.21,-23.21 -99.71,22.9 -107.61,38.69 l 163.9,75.3"
             style="fill:#ffffff;fill-opacity:1;fill-rule:nonzero;stroke:none"
             id="path5367" />
          <path
             d="m 4301.02,1687.43 1.79,-0.59 c -27.8,-86.3 -59.39,-172.9 -91.3,-254.6 v -0.11 c -98.6,-252.39 -200.2,-458.29 -203.3,-464.4 -97.4,134.51 -278.8,223.8 -337.69,250.31 -12.1,5.4 -19.01,8.19 -19.01,8.19 l -37.1,-111.2 c 3.1,-2.9 6.3,-5.79 9.3,-8.59 l -336.3,-44.81 v 138.6 c 0,0 -8.3,18 -20.59,46.61 -16.81,38.99 -41.11,97.79 -61.41,157 -22.3,65 -39.8,130.5 -37.7,170.79 5.6,103.81 233,504.1 233,504.1 0.31,-57.69 13.1,-104.3 13.1,-104.3 1,6.2 3.3,12.81 6.71,19.51 0.99,-4.31 33.19,-137.1 93.29,-237.71 l 128.01,218.2 c 5.29,-13.7 10.49,-29 15.19,-45.8 0,0 142,229.6 164.2,378.11 4.1,-3.81 8.4,-7.5 13,-11.01 87.9,-67.1 217.4,-26.89 320.91,-65.8 95.8,-35.99 155.19,-136.8 170.8,-238 15.69,-101.2 -4.71,-204.1 -24.9,-304.5"
             style="fill:#55c6c2;fill-opacity:1;fill-rule:nonzero;stroke:none"
             id="path5369" />
          <path
             d="m 4211.51,1432.13 59.91,-526.489 h -269.81 l 22.4,38.89 c -4.9,7.899 -10.2,15.61 -15.8,23.199 3.1,6.11 104.7,212.01 203.3,464.4"
             style="fill:#55c6c2;fill-opacity:1;fill-rule:nonzero;stroke:none"
             id="path5371" />
          <path
             d="m 4008.21,967.73 c 5.6,-7.589 10.9,-15.3 15.8,-23.199 l -22.4,-38.89 -112.9,-196.512 c 0,0 -39.7,186.703 -265,397.311 -3,2.79 -6.2,5.69 -9.3,8.59 l 37.1,111.2 c 0,0 6.9,-2.79 19.01,-8.19 58.89,-26.51 240.29,-115.8 337.69,-250.31"
             style="fill:#49c2b7;fill-opacity:1;fill-rule:nonzero;stroke:none"
             id="path5373" />
          <path
             d="m 3888.71,709.129 c 0,0 -258.3,-4.598 -980.4,37.101 0,0 -168.7,-116.8 -237.2,-109.39 -68.6,7.402 -203.9,134.39 -237.3,187.191 -33.3,52.809 53.8,131.61 53.8,131.61 0,0 0.9,39.789 55.6,62.989 24.41,10.31 91.3,8.9 158.1,4.2 83.2,-5.99 166.2,-17.19 166.2,-17.19 l 200.91,26.79 218.99,29.2 336.3,44.81 c 225.3,-210.608 265,-397.311 265,-397.311"
             style="fill:#f68164;fill-opacity:1;fill-rule:nonzero;stroke:none"
             id="path5375" />
          <path
             d="m 3821.21,2306.84 v -0.11 c -22.2,-148.5 -164.2,-378.1 -164.2,-378.1 -4.7,16.8 -9.9,32.1 -15.19,45.8 -34.31,88.8 -76.51,115.4 -76.51,115.4 l 225.8,253.4 c 8.7,-13.3 18.61,-25.59 30.1,-36.39"
             style="fill:#ffffff;fill-opacity:1;fill-rule:nonzero;stroke:none"
             id="path5377" />
          <path
             d="m 3641.82,1974.43 -128.01,-218.2 c -60.1,100.61 -92.3,233.4 -93.29,237.71 0,0.09 0,0.09 0,0.09 20.09,40.6 75.29,86.11 75.29,86.11 l 11.81,-146.01 57.69,155.7 c 0,0 42.2,-26.6 76.51,-115.4"
             style="fill:#cfeee3;fill-opacity:1;fill-rule:nonzero;stroke:none"
             id="path5379" />
          <path
             d="m 3507.51,1266.84 v 150.09 h -125.4 v -150.09 z m -107.2,180.8 h 156 l 6.2,-319.6 h -230.69 l -4.71,319.6 h 73.2"
             style="fill:#ffffff;fill-opacity:1;fill-rule:nonzero;stroke:none"
             id="path5381" />
          <path
             d="m 3507.51,1416.93 v -150.09 h -125.4 v 150.09 h 125.4"
             style="fill:#55c6c2;fill-opacity:1;fill-rule:nonzero;stroke:none"
             id="path5383" />
          <path
             d="m 3472.11,2258.04 23.7,-177.9 c 0,0 -55.2,-45.51 -75.29,-86.11 0,0 0,0 0,-0.09 -3.41,-6.7 -5.71,-13.31 -6.71,-19.51 0,0 -12.79,46.61 -13.1,104.3 -0.3,61.3 13.4,135.3 71.4,179.31"
             style="fill:#ffffff;fill-opacity:1;fill-rule:nonzero;stroke:none"
             id="path5385" />
          <path
             d="m 3440.52,1496.34 38.49,-48.7 h -78.7 z"
             style="fill:#aaacab;fill-opacity:1;fill-rule:nonzero;stroke:none"
             id="path5387" />
          <path
             d="m 3285.21,2095.23 c 59.51,137.5 189.3,195.71 189.3,195.71 l -2.4,-32.9 c -58,-44.01 -71.7,-118.01 -71.4,-179.31 0,0 -227.4,-400.29 -233,-504.1 -2.1,-40.29 15.4,-105.79 37.7,-170.79 l -13.59,-3.41 -97.61,47.4 3.1,6.3 c 0,0 124.2,440.21 174.2,604.2 3.9,12.9 8.5,25.21 13.7,36.9"
             style="fill:#55c6c2;fill-opacity:1;fill-rule:nonzero;stroke:none"
             id="path5389" />
          <path
             d="m 3287.41,1200.23 v -138.6 l -218.99,-29.2 -666.53,1.39 c -112.8,-48.511 -171.12,-51.101 -214.72,-29.41 -17.8,-1.2 -84.56,-8.578 -102.36,-9.672 -1.7,-19.199 -7.6,-36.297 -23.5,-36.297 -36.1,0 -76.4,80.589 -76.4,80.589 0,0 -11.1,-80.589 -47.3,-61.202 -36.1,19.504 -26.4,129.812 -26.4,129.812 0,0 -82,-80.4 -93.1,-50.11 -11.1,30.4 43.1,174.71 177.9,187.21 134.8,12.5 439.2,-41.7 439.2,-41.7 l 603.71,100.99 227.9,-57.19 c 12.29,-28.61 20.59,-46.61 20.59,-46.61"
             style="fill:#f68164;fill-opacity:1;fill-rule:nonzero;stroke:none"
             id="path5391" />
          <path
             d="m 3266.82,1246.84 -227.9,57.19 c -14.01,112.1 23.19,159.41 23.19,159.41 l 32.1,-15.61 111.2,-43.99 v 0 c 20.3,-59.21 44.6,-118.01 61.41,-157"
             style="fill:#49c2b7;fill-opacity:1;fill-rule:nonzero;stroke:none"
             id="path5393" />
          <path
             d="m 2808.07,1248 c 14.29,-9.8 18.19,-29.4 9.49,-44.4 -70.5,9.1 -87.3,41.2 -87.3,41.2 5.8,9.8 17.3,21.4 28.61,22 13.8,0.6 31.79,-6.9 49.2,-18.8"
             style="fill:#f2564a;fill-opacity:1;fill-rule:nonzero;stroke:none"
             id="path5395" />
          <path
             d="m 2817.56,1203.6 -42.6,-73.5 c -56.09,8.1 -86.09,45.2 -86.09,45.2 l 41.39,69.5 c 0,0 16.8,-32.1 87.3,-41.2"
             style="fill:#f5776b;fill-opacity:1;fill-rule:nonzero;stroke:none"
             id="path5397" />
          <path
             d="m 2774.96,1130.1 -66.4,-114.6 -113.39,2.4 93.7,157.4 c 0,0 30,-37.1 86.09,-45.2"
             style="fill:#55c6c2;fill-opacity:1;fill-rule:nonzero;stroke:none"
             id="path5399" />
          <path
             d="m 3867.55,1919.37 c -27.44,-86.42 -54.88,-172.85 -82.34,-259.27 -27.31,-86.03 -54.63,-172.05 -81.95,-258.09 -15.49,-48.76 -30.97,-97.52 -46.45,-146.28 -1.96,-6.15 7.69,-8.78 9.64,-2.66 27.45,86.42 54.89,172.85 82.33,259.27 27.32,86.03 54.64,172.05 81.96,258.09 15.48,48.76 30.97,97.52 46.46,146.28 1.95,6.15 -7.71,8.78 -9.65,2.66"
             style="fill:#252936;fill-opacity:1;fill-rule:nonzero;stroke:none"
             id="path5401" />
          <path
             d="m 4206.55,1417.92 c -57.49,-114.34 -110.32,-231 -158.3,-349.64 -13.53,-33.47 -26.67,-67.08 -39.43,-100.85 -2.28,-6.02 7.38,-8.629 9.64,-2.649 44.95,118.889 94.69,235.959 149.18,350.809 15.47,32.6 31.32,65.04 47.55,97.28 2.88,5.73 -5.75,10.8 -8.64,5.05"
             style="fill:#252936;fill-opacity:1;fill-rule:nonzero;stroke:none"
             id="path5403" />
          <path
             d="m 3387.09,2067.14 c -47.56,-88.17 -96.27,-175.82 -142.43,-264.72 -41.66,-80.19 -78.44,-166.25 -78.12,-258.21 0.18,-47.81 10.58,-95.64 34.31,-137.41 3.17,-5.6 11.82,-0.57 8.63,5.04 -43.16,76.01 -39.27,168.64 -14.39,249.94 13.42,43.85 32.6,85.64 53.45,126.39 21.79,42.57 44.99,84.45 67.69,126.54 26.49,49.12 53,98.25 79.49,147.38 3.06,5.66 -5.57,10.71 -8.63,5.05"
             style="fill:#252936;fill-opacity:1;fill-rule:nonzero;stroke:none"
             id="path5405" />
          <path
             d="m 3641.33,1962.75 c -54.03,-122.21 -108.06,-244.42 -162.09,-366.64 -13.16,-29.77 -26.32,-59.55 -39.48,-89.32 -20.24,121.8 -28.89,245.48 -25.53,368.91 0.99,36.63 3.05,73.24 6.12,109.76 0.54,6.41 -9.46,6.38 -10,0 -10.9,-129.87 -8.74,-260.77 6.63,-390.2 4.2,-35.42 9.41,-70.71 15.52,-105.85 -0.04,-0.91 0.19,-1.75 0.58,-2.52 0.53,-1.63 1.68,-2.51 3.04,-2.77 2.01,-0.79 4.3,-0.4 5.45,2.19 0.03,0.08 0.07,0.16 0.11,0.24 0.31,0.49 0.58,1.02 0.7,1.61 53.76,121.6 107.52,243.2 161.27,364.79 15.44,34.92 30.88,69.84 46.31,104.76 2.58,5.83 -6.03,10.92 -8.63,5.04"
             style="fill:#252936;fill-opacity:1;fill-rule:nonzero;stroke:none"
             id="path5407" />
          <path
             d="m 3280.35,1059.25 c -70.89,-6.95 -141.78,-13.9 -212.65,-20.85 -6.35,-0.63 -6.42,-10.63 0,-10 70.87,6.95 141.76,13.9 212.65,20.85 6.35,0.61 6.42,10.62 0,10"
             style="fill:#252936;fill-opacity:1;fill-rule:nonzero;stroke:none"
             id="path5409" />
          <path
             d="m 2291.51,1040.68 c -59.63,-18.88 -121.22,-31.43 -183.53,-36.97 -7.15,-0.63 -14.3,-1.18 -21.46,-1.64 -6,-0.38 -12.23,-1.08 -18.19,0.15 -4.55,0.94 -9.64,3.12 -9.33,8.62 0.38,6.83 9.07,13.2 13.56,17.47 20.51,19.43 42.51,37.26 65.78,53.28 26.32,18.12 54.2,33.88 83.23,47.22 5.84,2.68 0.77,11.31 -5.05,8.64 -56.47,-25.97 -108.53,-61.29 -153.4,-104.32 -8.4,-8.07 -19.41,-20.03 -11.34,-32.17 5.78,-8.71 18.13,-9.698 27.58,-9.312 33.82,1.411 67.74,5.774 101.07,11.562 38.5,6.68 76.49,16.03 113.73,27.83 6.12,1.93 3.51,11.59 -2.65,9.64"
             style="fill:#252936;fill-opacity:1;fill-rule:nonzero;stroke:none"
             id="path5411" />
          <path
             d="m 1989.99,1040.29 c -13.15,44.16 -13.33,91.16 -0.48,135.4 1.8,6.2 -7.85,8.84 -9.64,2.66 -13.33,-45.89 -13.17,-94.92 0.48,-140.71 1.83,-6.16 11.48,-3.54 9.64,2.65"
             style="fill:#252936;fill-opacity:1;fill-rule:nonzero;stroke:none"
             id="path5413" />
          <path
             d="m 1952.35,1191.86 c -2.55,1.53 -5.2,0.34 -6.84,-1.8 -18.62,-24.32 -31.32,-52.93 -36.92,-83.05 -1.17,-6.29 8.47,-8.98 9.64,-2.65 5.47,29.4 17.74,56.91 35.92,80.66 1.65,2.16 0.32,5.58 -1.8,6.84"
             style="fill:#252936;fill-opacity:1;fill-rule:nonzero;stroke:none"
             id="path5415" />
          <path
             d="m 3491.75,2080.45 c -28.89,-28.6 -56.01,-58.93 -81.21,-90.82 -3.96,-4.99 3.07,-12.12 7.07,-7.07 25.2,31.89 52.32,62.22 81.21,90.82 4.58,4.53 -2.49,11.6 -7.07,7.07"
             style="fill:#252936;fill-opacity:1;fill-rule:nonzero;stroke:none"
             id="path5417" />
          <path
             d="m 3658.56,1938.92 c -16.96,57.08 -46.44,109.83 -86.1,154.24 -4.3,4.82 -11.35,-2.28 -7.07,-7.07 38.5,-43.11 67.07,-94.43 83.53,-149.84 1.82,-6.15 11.48,-3.54 9.64,2.67"
             style="fill:#252936;fill-opacity:1;fill-rule:nonzero;stroke:none"
             id="path5419" />
          <path
             d="m 3515.59,1925.8 c -0.28,6.41 -10.28,6.45 -10,0 1.89,-44.33 3.78,-88.66 5.69,-132.99 0.27,-6.4 10.27,-6.44 10,0 -1.91,44.33 -3.8,88.66 -5.69,132.99"
             style="fill:#252936;fill-opacity:1;fill-rule:nonzero;stroke:none"
             id="path5421" />
          <path
             d="m 3551.78,1900.29 c -2.77,5.69 -10.22,8.8 -16.15,6.49 -1.78,-0.71 -3.38,-1.79 -4.79,-3.09 -0.18,-0.14 -0.39,-0.19 -0.54,-0.37 -0.29,-0.33 -0.43,-0.75 -0.68,-1.1 -0.47,-0.59 -1.08,-1.05 -1.43,-1.73 -0.18,-0.35 -0.18,-0.76 -0.34,-1.14 -0.14,-0.33 -0.19,-0.68 -0.31,-1.01 -0.4,-1.23 -0.68,-2.45 -0.71,-3.74 0,-0.15 -0.08,-0.27 -0.08,-0.41 0,-0.36 0.16,-0.68 0.19,-1.04 0.07,-0.82 -0.03,-1.64 0.2,-2.45 0.09,-0.31 0.31,-0.56 0.43,-0.87 0.2,-0.59 0.53,-1.11 0.81,-1.67 0.46,-0.89 0.92,-1.74 1.57,-2.51 0.14,-0.16 0.2,-0.39 0.34,-0.55 0.35,-0.37 0.84,-0.57 1.22,-0.9 0.51,-0.43 0.89,-0.99 1.45,-1.33 0.22,-0.15 0.52,-0.15 0.74,-0.27 0.65,-0.33 1.34,-0.49 2.03,-0.72 0.83,-0.28 1.6,-0.64 2.47,-0.74 3.17,-0.46 6.46,0.11 9.05,1.97 2.64,1.9 4.6,4.5 5.47,7.66 0.91,3.22 0.51,6.53 -0.94,9.52"
             style="fill:#252936;fill-opacity:1;fill-rule:nonzero;stroke:none"
             id="path5423" />
          <path
             d="M 1001.31,1015.14 971.609,770.332 1483.11,801.84 V 699.832 l -745.001,-83.391 -201.996,153.891 230.403,545.308 82.797,195.99 205.697,-53.8 -25.8,-213.09 -27.9,-229.6"
             style="fill:#7e8182;fill-opacity:1;fill-rule:nonzero;stroke:none"
             id="path5425" />
          <path
             d="m 1274.61,2865.43 345.7,-1801.4 h -148.3 l -347.5,1801.4 h 150.1"
             style="fill:#7e8182;fill-opacity:1;fill-rule:nonzero;stroke:none"
             id="path5427" />
          <path
             d="M 1483.11,801.84 971.609,770.332 1001.31,1015.14 Z"
             style="fill:#aaacab;fill-opacity:1;fill-rule:nonzero;stroke:none"
             id="path5429" />
          <path
             d="m 1124.51,2865.43 347.5,-1801.4 -442.8,180.71 25.8,213.09 -205.697,53.8 -82.797,-195.99 -36.703,15.59 -400.399,1534.2 h 795.096"
             style="fill:#aaacab;fill-opacity:1;fill-rule:nonzero;stroke:none"
             id="path5431" />
          <path
             d="m 1399.04,1464.32 c -19.17,112.77 -38.85,225.48 -59.03,338.07 -20.28,113.18 -41.07,226.25 -62.36,339.24 -21.19,112.41 -42.89,224.75 -65.08,336.97 -22.19,112.23 -44.89,224.35 -68.08,336.38 -2.9,14 -5.81,28 -8.72,42 -1.32,6.3 -10.96,3.64 -9.65,-2.65 23.32,-112.01 46.14,-224.11 68.46,-336.31 22.32,-112.2 44.14,-224.5 65.45,-336.9 21.43,-112.96 42.34,-226.01 62.75,-339.16 20.31,-112.58 40.11,-225.26 59.41,-338.01 19.3,-112.77 38.09,-225.61 56.38,-338.54 2.29,-14.12 4.57,-28.23 6.84,-42.35 1.02,-6.34 10.66,-3.66 9.64,2.65 -18.17,112.95 -36.83,225.82 -56.01,338.61"
             style="fill:#252936;fill-opacity:1;fill-rule:nonzero;stroke:none"
             id="path5433" />
          <path
             d="M 993.254,1462.11 C 962.832,1353.67 931.188,1245.58 898.301,1137.85 865.535,1030.53 831.547,923.559 796.34,817.012 776.426,756.742 756.113,696.59 735.43,636.57 c -2.106,-6.09 7.554,-8.711 9.636,-2.648 36.707,106.476 72.207,213.379 106.473,320.66 34.141,106.898 67.059,214.188 98.75,321.848 17.93,60.88 35.457,121.9 52.611,183.02 1.73,6.21 -7.912,8.86 -9.646,2.66"
             style="fill:#252936;fill-opacity:1;fill-rule:nonzero;stroke:none"
             id="path5435" />
        </g>
      </g>
    </g>
  </g>
</svg>
