<?xml version="1.0" encoding="UTF-8" standalone="no"?>
<!-- Created with Inkscape (http://www.inkscape.org/) -->

<svg
   width="787.57043mm"
   height="442.51437mm"
   viewBox="0 0 787.57044 442.51437"
   version="1.1"
   id="svg5"
   inkscape:version="1.1.1 (3bf5ae0d25, 2021-09-20)"
   sodipodi:docname="schools.svg"
   xmlns:inkscape="http://www.inkscape.org/namespaces/inkscape"
   xmlns:sodipodi="http://sodipodi.sourceforge.net/DTD/sodipodi-0.dtd"
   xmlns="http://www.w3.org/2000/svg"
   xmlns:svg="http://www.w3.org/2000/svg">
  <sodipodi:namedview
     id="namedview7"
     pagecolor="#ffffff"
     bordercolor="#666666"
     borderopacity="1.0"
     inkscape:pageshadow="2"
     inkscape:pageopacity="0.0"
     inkscape:pagecheckerboard="0"
     inkscape:document-units="mm"
     showgrid="false"
     fit-margin-top="0"
     fit-margin-left="0"
     fit-margin-right="0"
     fit-margin-bottom="0"
     inkscape:zoom="0.25890048"
     inkscape:cx="1083.4279"
     inkscape:cy="1149.0902"
     inkscape:window-width="2560"
     inkscape:window-height="1019"
     inkscape:window-x="0"
     inkscape:window-y="25"
     inkscape:window-maximized="0"
     inkscape:current-layer="g6241" />
  <defs
     id="defs2" />
  <g
     inkscape:label="Camada 1"
     inkscape:groupmode="layer"
     id="layer1"
     transform="translate(658.35986,276.19011)">
    <g
       id="g79"
       transform="matrix(0.03527778,0,0,-0.03527778,-383.12816,386.01868)">
      <g
         id="g6241"
         transform="matrix(2.565309,0,0,2.2498155,-7081.4367,6165.6366)">
        <g
           id="g7623"
           transform="matrix(1.1832726,0,0,1.2297827,-366.01266,27.522612)">
          <path
             d="M 1201.41,2310.5247 V 4478.48 h 821.972 V 2310.5247 H 1201.41"
             style="fill:#feefcc;fill-opacity:1;fill-rule:nonzero;stroke:none;stroke-width:2.38657"
             id="path6283-3-6" />
          <path
             d="m 1539.12,3764.48 h -492.13 c -21.78,0 -39.44,17.66 -39.44,39.44 v 567.85 c 0,21.78 17.66,39.43 39.44,39.43 h 492.13 c 21.78,0 39.43,-17.65 39.43,-39.43 v -567.85 c 0,-21.78 -17.65,-39.44 -39.43,-39.44"
             style="fill:#ffffff;fill-opacity:1;fill-rule:nonzero;stroke:none"
             id="path6245" />
          <path
             d="m 1665.53,3764.48 h 492.13 c 21.78,0 39.43,17.66 39.43,39.44 v 567.85 c 0,21.78 -17.65,39.43 -39.43,39.43 h -492.13 c -21.78,0 -39.43,-17.65 -39.43,-39.43 v -567.85 c 0,-21.78 17.65,-39.44 39.43,-39.44"
             style="fill:#ffffff;fill-opacity:1;fill-rule:nonzero;stroke:none"
             id="path6247" />
          <path
             d="m 1539.12,3081.86 h -492.13 c -21.78,0 -39.44,17.65 -39.44,39.43 v 567.85 c 0,21.78 17.66,39.43 39.44,39.43 h 492.13 c 21.78,0 39.43,-17.65 39.43,-39.43 v -567.85 c 0,-21.78 -17.65,-39.43 -39.43,-39.43"
             style="fill:#ffffff;fill-opacity:1;fill-rule:nonzero;stroke:none"
             id="path6249" />
          <path
             d="m 1665.53,3081.86 h 492.13 c 21.78,0 39.43,17.65 39.43,39.43 v 567.85 c 0,21.78 -17.65,39.43 -39.43,39.43 h -492.13 c -21.78,0 -39.43,-17.65 -39.43,-39.43 v -567.85 c 0,-21.78 17.65,-39.43 39.43,-39.43"
             style="fill:#ffffff;fill-opacity:1;fill-rule:nonzero;stroke:none"
             id="path6251" />
          <path
             d="m 1539.12,2406.33 h -492.13 c -21.78,0 -39.44,17.65 -39.44,39.43 v 567.85 c 0,21.78 17.66,39.44 39.44,39.44 h 492.13 c 21.78,0 39.43,-17.66 39.43,-39.44 v -567.85 c 0,-21.78 -17.65,-39.43 -39.43,-39.43"
             style="fill:#ffffff;fill-opacity:1;fill-rule:nonzero;stroke:none"
             id="path6253" />
          <path
             d="m 1665.53,2406.33 h 492.13 c 21.78,0 39.43,17.66 39.43,39.43 v 567.85 c 0,21.78 -17.65,39.44 -39.43,39.44 h -492.13 c -21.78,0 -39.43,-17.66 -39.43,-39.44 v -567.85 c 0,-21.77 17.65,-39.43 39.43,-39.43"
             style="fill:#ffffff;fill-opacity:1;fill-rule:nonzero;stroke:none"
             id="path6255" />
          <path
             d="M 2678.33,4478.48 H 526.313 v 55.2 H 2678.33 v -55.2"
             style="fill:#fddc6f;fill-opacity:1;fill-rule:nonzero;stroke:none"
             id="path6257" />
          <path
             d="M 1201.41,2406.33 H 609.418 V 4478.48 H 1201.41 V 2406.33"
             style="fill:#fddc6f;fill-opacity:1;fill-rule:nonzero;stroke:none"
             id="path6259" />
          <path
             d="m 5492.82,2350.38 v 2167.9554 h 821.9718 V 2350.38 H 5492.82"
             style="fill:#feefcc;fill-opacity:1;fill-rule:nonzero;stroke:none;stroke-width:2.38657"
             id="path6283-3" />
          <path
             d="m 2003.24,2406.33 h 591.992 V 4478.47 H 2003.24 Z"
             style="fill:#fddc6f;fill-opacity:1;fill-rule:nonzero;stroke:none"
             id="path6261" />
          <path
             d="m 5834.47,3764.48 h -492.13 c -21.78,0 -39.43,17.66 -39.43,39.44 v 567.85 c 0,21.78 17.65,39.43 39.43,39.43 h 492.13 c 21.78,0 39.44,-17.65 39.44,-39.43 v -567.85 c 0,-21.78 -17.66,-39.44 -39.44,-39.44"
             style="fill:#ffffff;fill-opacity:1;fill-rule:nonzero;stroke:none"
             id="path6263" />
          <path
             d="m 5960.88,3764.48 h 492.13 c 21.78,0 39.43,17.66 39.43,39.44 v 567.85 c 0,21.78 -17.65,39.43 -39.43,39.43 h -492.13 c -21.78,0 -39.43,-17.65 -39.43,-39.43 v -567.85 c 0,-21.78 17.65,-39.44 39.43,-39.44"
             style="fill:#ffffff;fill-opacity:1;fill-rule:nonzero;stroke:none"
             id="path6265" />
          <path
             d="m 5834.47,3081.86 h -492.13 c -21.78,0 -39.43,17.65 -39.43,39.43 v 567.85 c 0,21.78 17.65,39.43 39.43,39.43 h 492.13 c 21.78,0 39.44,-17.65 39.44,-39.43 v -567.85 c 0,-21.78 -17.66,-39.43 -39.44,-39.43"
             style="fill:#ffffff;fill-opacity:1;fill-rule:nonzero;stroke:none"
             id="path6267" />
          <path
             d="m 5960.88,3081.86 h 492.13 c 21.78,0 39.43,17.65 39.43,39.43 v 567.85 c 0,21.78 -17.65,39.43 -39.43,39.43 h -492.13 c -21.78,0 -39.43,-17.65 -39.43,-39.43 v -567.85 c 0,-21.78 17.65,-39.43 39.43,-39.43"
             style="fill:#ffffff;fill-opacity:1;fill-rule:nonzero;stroke:none"
             id="path6269" />
          <path
             d="m 5834.47,2406.33 h -492.13 c -21.78,0 -39.43,17.65 -39.43,39.43 v 567.85 c 0,21.78 17.65,39.44 39.43,39.44 h 492.13 c 21.78,0 39.44,-17.66 39.44,-39.44 v -567.85 c 0,-21.78 -17.66,-39.43 -39.44,-39.43"
             style="fill:#ffffff;fill-opacity:1;fill-rule:nonzero;stroke:none"
             id="path6271" />
          <path
             d="m 5960.88,2406.33 h 492.13 c 21.78,0 39.43,17.65 39.43,39.43 v 567.85 c 0,21.78 -17.65,39.44 -39.43,39.44 h -492.13 c -21.78,0 -39.43,-17.66 -39.43,-39.44 v -567.85 c 0,-21.78 17.65,-39.43 39.43,-39.43"
             style="fill:#ffffff;fill-opacity:1;fill-rule:nonzero;stroke:none"
             id="path6273" />
          <path
             d="M 6973.68,4478.48 H 4821.67 v 55.2 h 2152.01 v -55.2"
             style="fill:#fddc6f;fill-opacity:1;fill-rule:nonzero;stroke:none"
             id="path6275" />
          <path
             d="m 4904.78,2406.33 h 591.98 v 2072.14 h -591.98 z"
             style="fill:#fddc6f;fill-opacity:1;fill-rule:nonzero;stroke:none"
             id="path6277" />
          <path
             d="m 6890.58,2406.33 h -591.99 v 2072.15 h 591.99 V 2406.33"
             style="fill:#fddc6f;fill-opacity:1;fill-rule:nonzero;stroke:none"
             id="path6279" />
          <path
             d="m 3546.62,3764.48 h -673.57 v 769.2 h 673.57 v -769.2"
             style="fill:#fddc6f;fill-opacity:1;fill-rule:nonzero;stroke:none"
             id="path6281" />
          <path
             d="m 4509.72,3764.48 h -673.57 v 769.2 h 673.57 v -769.2"
             style="fill:#fddc6f;fill-opacity:1;fill-rule:nonzero;stroke:none"
             id="path6285" />
          <path
             d="m 3916.15,3844.48 v 609.2 h 513.57 v -609.2 h -513.57"
             style="fill:#feefcc;fill-opacity:1;fill-rule:nonzero;stroke:none"
             id="path6287" />
          <path
             d="M 3472.92,1808.14 H 1452.18 c -12.79,0 -23.15,-10.37 -23.15,-23.16 0,-12.78 10.36,-23.15 23.15,-23.15 h 2020.74 c 12.79,0 23.15,10.37 23.15,23.15 0,12.79 -10.36,23.16 -23.15,23.16"
             style="fill:#fddc6f;fill-opacity:1;fill-rule:nonzero;stroke:none"
             id="path6289" />
          <path
             d="m 2239.77,2501.46 h -114.88 v 242.29 h 114.88 v -242.29"
             style="fill:#9f2e46;fill-opacity:1;fill-rule:nonzero;stroke:none"
             id="path6291" />
          <path
             d="m 2682.57,2501.46 h 114.88 v 242.29 h -114.88 v -242.29"
             style="fill:#9f2e46;fill-opacity:1;fill-rule:nonzero;stroke:none"
             id="path6293" />
          <path
             d="m 2239.77,1762.1 h -114.88 v 242.28 h 114.88 V 1762.1"
             style="fill:#9f2e46;fill-opacity:1;fill-rule:nonzero;stroke:none"
             id="path6295" />
          <path
             d="m 2682.57,1762.1 h 114.879 v 242.289 H 2682.57 Z"
             style="fill:#9f2e46;fill-opacity:1;fill-rule:nonzero;stroke:none"
             id="path6297" />
          <path
             d="M 3242.69,2496.05 H 1679.64 v 85.3 h 1563.05 v -85.3"
             style="fill:#f57a5d;fill-opacity:1;fill-rule:nonzero;stroke:none"
             id="path6299" />
          <path
             d="m 1862.54,2004.39 h 1197.25 v 491.66 H 1862.54 Z"
             style="fill:#d5555f;fill-opacity:1;fill-rule:nonzero;stroke:none"
             id="path6301" />
          <path
             d="m 1739.86,1762.1 h 122.68 v 733.949 h -122.68 z"
             style="fill:#f57a5d;fill-opacity:1;fill-rule:nonzero;stroke:none"
             id="path6303" />
          <path
             d="m 3059.79,1762.1 h 122.691 v 733.949 H 3059.79 Z"
             style="fill:#f57a5d;fill-opacity:1;fill-rule:nonzero;stroke:none"
             id="path6305" />
          <path
             d="m 1862.54,2437.78 h 1197.25 v 58.2695 H 1862.54 Z"
             style="fill:#a9465b;fill-opacity:1;fill-rule:nonzero;stroke:none"
             id="path6307" />
          <path
             d="m 1739.86,2437.78 h 122.68 v 58.2695 h -122.68 z"
             style="fill:#c45f5a;fill-opacity:1;fill-rule:nonzero;stroke:none"
             id="path6309" />
          <path
             d="m 3059.79,2437.78 h 122.691 v 58.2695 H 3059.79 Z"
             style="fill:#c45f5a;fill-opacity:1;fill-rule:nonzero;stroke:none"
             id="path6311" />
          <path
             d="m 2395.92,2004.38 h -146.91 v -136.22 h 146.91 v 136.22"
             style="fill:#f79484;fill-opacity:1;fill-rule:nonzero;stroke:none"
             id="path6313" />
          <path
             d="m 2161.83,1762.1 h 234.09 v 41.7695 h -234.09 z"
             style="fill:#ffffff;fill-opacity:1;fill-rule:nonzero;stroke:none"
             id="path6315" />
          <path
             d="m 2254.41,1868.16 h 141.51 v -64.29 h -141.51 v 64.29"
             style="fill:#3f244a;fill-opacity:1;fill-rule:nonzero;stroke:none"
             id="path6317" />
          <path
             d="m 2261.2,1878.02 c -43.97,0 -81.8,-30.37 -99.37,-74.15 h 198.75 c -17.58,43.78 -55.41,74.15 -99.38,74.15"
             style="fill:#3f244a;fill-opacity:1;fill-rule:nonzero;stroke:none"
             id="path6319" />
          <path
             d="m 2526.25,2004.38 h 147.24 v -136.22 h -147.24 v 136.22"
             style="fill:#f79484;fill-opacity:1;fill-rule:nonzero;stroke:none"
             id="path6321" />
          <path
             d="m 2526.42,1762.1 h 234.09 v 41.7695 h -234.09 z"
             style="fill:#ffffff;fill-opacity:1;fill-rule:nonzero;stroke:none"
             id="path6323" />
          <path
             d="m 2667.92,1868.16 h -141.5 v -64.29 h 141.5 v 64.29"
             style="fill:#3f244a;fill-opacity:1;fill-rule:nonzero;stroke:none"
             id="path6325" />
          <path
             d="m 2661.13,1878.02 c 43.97,0 81.8,-30.37 99.38,-74.15 h -198.75 c 17.57,43.78 55.4,74.15 99.37,74.15"
             style="fill:#3f244a;fill-opacity:1;fill-rule:nonzero;stroke:none"
             id="path6327" />
          <path
             d="m 2620.96,2763.35 c -177.42,-64.23 -382.61,-34.5 -538.51,71.77 50.71,53.73 64.52,132.21 67.5,206.04 2.97,73.83 -2.31,149.42 19.37,220.06 32.99,107.48 131.71,191.75 243.04,207.46 81.94,11.57 172.53,-11.18 237.13,-62.9 64.61,-51.72 107.54,-129.7 116.68,-211.95 9.73,-87.48 -17.29,-174.81 -50.42,-256.36 -23.55,-57.96 -64.88,-119.16 -94.79,-174.12"
             style="fill:#742844;fill-opacity:1;fill-rule:nonzero;stroke:none"
             id="path6329" />
          <path
             d="m 2208.18,2676.47 -26.77,-95.12 h 100.47 v 217.4 c -34.28,-32.59 -60.22,-74.38 -73.7,-122.28"
             style="fill:#f79484;fill-opacity:1;fill-rule:nonzero;stroke:none"
             id="path6331" />
          <path
             d="m 2467.62,2872.98 v 0 c -70.97,0 -136.84,-27.75 -185.74,-74.23 v -217.4 h 371.48 v 217.4 c -48.89,46.48 -114.77,74.23 -185.74,74.23"
             style="fill:#9e4ca8;fill-opacity:1;fill-rule:nonzero;stroke:none"
             id="path6333" />
          <path
             d="m 2727.07,2676.47 c -13.48,47.9 -39.42,89.69 -73.71,122.28 v -217.4 h 100.47 l -26.76,95.12"
             style="fill:#f79484;fill-opacity:1;fill-rule:nonzero;stroke:none"
             id="path6335" />
          <path
             d="m 2534.02,2860.4 c 0,-36.67 -29.73,-66.4 -66.4,-66.4 -36.67,0 -66.4,29.73 -66.4,66.4 0,36.67 29.73,66.4 66.4,66.4 36.67,0 66.4,-29.73 66.4,-66.4"
             style="fill:#f46f7c;fill-opacity:1;fill-rule:nonzero;stroke:none"
             id="path6337" />
          <path
             d="m 2738.59,3211.53 c 0,-149.65 -121.31,-270.97 -270.97,-270.97 -149.65,0 -270.96,121.32 -270.96,270.97 0,149.65 121.31,270.97 270.96,270.97 149.66,0 270.97,-121.32 270.97,-270.97"
             style="fill:#9e4ca8;fill-opacity:1;fill-rule:nonzero;stroke:none"
             id="path6339" />
          <path
             d="m 2197.03,3113.5 c -37.39,0 -67.69,-30.31 -67.69,-67.69 0,-37.39 30.3,-67.7 67.69,-67.7 h 36.46 v 135.39 h -36.46"
             style="fill:#f46f7c;fill-opacity:1;fill-rule:nonzero;stroke:none"
             id="path6341" />
          <path
             d="m 2738.21,3113.5 c 37.39,0 67.7,-30.31 67.7,-67.69 0,-37.39 -30.31,-67.7 -67.7,-67.7 h -36.45 v 135.39 h 36.45"
             style="fill:#f46f7c;fill-opacity:1;fill-rule:nonzero;stroke:none"
             id="path6343" />
          <path
             d="m 2181.29,3052.96 c 0,-74.85 73.06,-112.4 73.06,-112.4 l -23.39,143.05 -49.67,-30.65"
             style="fill:#742844;fill-opacity:1;fill-rule:nonzero;stroke:none"
             id="path6345" />
          <path
             d="m 2753.95,3113.33 c 0,-2.41 4.15,-35.51 -0.22,-67.51 -9.52,-69.59 -72.83,-105.26 -72.83,-105.26 l 20.86,213.06 52.19,-40.29"
             style="fill:#742844;fill-opacity:1;fill-rule:nonzero;stroke:none"
             id="path6347" />
          <path
             d="m 2738.59,3107.72 c 0,-149.65 -121.31,-270.97 -270.97,-270.97 -149.65,0 -270.96,121.32 -270.96,270.97 0,149.65 121.31,270.97 270.96,270.97 149.66,0 270.97,-121.32 270.97,-270.97"
             style="fill:#f79484;fill-opacity:1;fill-rule:nonzero;stroke:none"
             id="path6349" />
          <path
             d="m 2753.95,3113.33 c -62.32,24.15 -114.23,70.91 -143.39,131.96 -40.4,-55.23 -99.52,-95.15 -165.35,-110.91 36.16,28.33 64.85,66.45 81.85,109.56 -82.59,-108.7 -211.25,-179.77 -345.77,-190.98 -4.04,78.39 3.58,164.4 45.07,231.04 41.49,66.64 109.01,118.26 186,133.58 76.99,15.33 162.31,-8.44 215.3,-66.36 24.64,9.06 56.67,-2.01 75.47,-20.34 18.8,-18.33 29.29,-43.53 36.64,-68.74 12.98,-44.52 18.14,-102.6 14.18,-148.81"
             style="fill:#742844;fill-opacity:1;fill-rule:nonzero;stroke:none"
             id="path6351" />
          <path
             d="m 2286.64,3141.44 c -1.9,0 -3.83,0.47 -5.6,1.48 -5.41,3.11 -7.28,10 -4.18,15.41 21.34,37.27 69.03,50.23 106.3,28.89 5.41,-3.09 7.29,-9.99 4.19,-15.39 -3.1,-5.41 -9.99,-7.29 -15.4,-4.19 -26.47,15.15 -60.35,5.95 -75.5,-20.53 -2.09,-3.64 -5.9,-5.67 -9.81,-5.67"
             style="fill:#742844;fill-opacity:1;fill-rule:nonzero;stroke:none"
             id="path6353" />
          <path
             d="m 2648.6,3141.44 c -3.91,0 -7.72,2.03 -9.8,5.67 -15.16,26.48 -49.03,35.68 -75.51,20.53 -5.41,-3.1 -12.3,-1.22 -15.39,4.19 -3.1,5.4 -1.23,12.3 4.18,15.39 37.28,21.34 84.97,8.38 106.3,-28.89 3.1,-5.41 1.23,-12.3 -4.18,-15.41 -1.77,-1.01 -3.69,-1.48 -5.6,-1.48"
             style="fill:#742844;fill-opacity:1;fill-rule:nonzero;stroke:none"
             id="path6355" />
          <path
             d="m 2490.36,2993.18 c -5.65,-5.56 -13.55,-8.76 -21.48,-8.7 -7.92,0.07 -15.77,3.4 -21.33,9.05 2.34,-5.65 3.59,-10.9 7.87,-15.27 4.28,-4.36 10.12,-7.47 16.23,-7.4 4.83,0.06 9.6,2.17 12.9,5.69 3.3,3.52 6.07,11.81 5.81,16.63"
             style="fill:#f46f7c;fill-opacity:1;fill-rule:nonzero;stroke:none"
             id="path6357" />
          <path
             d="m 2352.21,3048 c -12.94,0 -23.46,10.53 -23.46,23.46 0,12.93 10.52,23.46 23.46,23.46 12.93,0 23.45,-10.53 23.45,-23.46 0,-12.93 -10.52,-23.46 -23.45,-23.46"
             style="fill:#3f244a;fill-opacity:1;fill-rule:nonzero;stroke:none"
             id="path6359" />
          <path
             d="m 2585.72,3048 c -12.93,0 -23.45,10.53 -23.45,23.46 0,12.93 10.52,23.46 23.45,23.46 12.93,0 23.45,-10.53 23.45,-23.46 0,-12.93 -10.52,-23.46 -23.45,-23.46"
             style="fill:#3f244a;fill-opacity:1;fill-rule:nonzero;stroke:none"
             id="path6361" />
          <path
             d="m 2713.74,3035.21 c -139.95,-64.17 -191.42,4.93 -251.19,4.93 -59.77,0 -111.25,-69.1 -251.19,-4.93 l -7.31,-47 c 24.03,-54.3 129.5,-160.83 258.5,-160.83 129,0 234.48,106.53 258.49,160.83 l -7.3,47"
             style="fill:#ffffff;fill-opacity:1;fill-rule:nonzero;stroke:none"
             id="path6363" />
          <path
             d="M 5279.68,1808.14 H 3258.94 c -12.79,0 -23.15,-10.37 -23.15,-23.16 0,-12.78 10.36,-23.15 23.15,-23.15 h 2020.74 c 12.78,0 23.15,10.37 23.15,23.15 0,12.79 -10.37,23.16 -23.15,23.16"
             style="fill:#fddc6f;fill-opacity:1;fill-rule:nonzero;stroke:none"
             id="path6365" />
          <path
             d="m 4046.52,2501.46 h -114.87 v 242.29 h 114.87 v -242.29"
             style="fill:#9f2e46;fill-opacity:1;fill-rule:nonzero;stroke:none"
             id="path6367" />
          <path
             d="m 4489.33,2501.46 h 114.87 v 242.29 h -114.87 v -242.29"
             style="fill:#9f2e46;fill-opacity:1;fill-rule:nonzero;stroke:none"
             id="path6369" />
          <path
             d="m 3931.65,1762.1 h 114.871 v 242.289 H 3931.65 Z"
             style="fill:#9f2e46;fill-opacity:1;fill-rule:nonzero;stroke:none"
             id="path6371" />
          <path
             d="m 4489.33,1762.1 h 114.867 v 242.289 H 4489.33 Z"
             style="fill:#9f2e46;fill-opacity:1;fill-rule:nonzero;stroke:none"
             id="path6373" />
          <path
             d="M 5049.45,2496.05 H 3486.4 v 85.3 h 1563.05 v -85.3"
             style="fill:#f57a5d;fill-opacity:1;fill-rule:nonzero;stroke:none"
             id="path6375" />
          <path
             d="m 3669.3,2004.39 h 1197.25 v 491.66 H 3669.3 Z"
             style="fill:#d5555f;fill-opacity:1;fill-rule:nonzero;stroke:none"
             id="path6377" />
          <path
             d="m 3546.62,1762.1 h 122.68 v 733.949 h -122.68 z"
             style="fill:#f57a5d;fill-opacity:1;fill-rule:nonzero;stroke:none"
             id="path6379" />
          <path
             d="m 4866.55,1762.1 h 122.691 v 733.949 H 4866.55 Z"
             style="fill:#f57a5d;fill-opacity:1;fill-rule:nonzero;stroke:none"
             id="path6381" />
          <path
             d="m 3669.3,2437.78 h 1197.25 v 58.2695 H 3669.3 Z"
             style="fill:#a9465b;fill-opacity:1;fill-rule:nonzero;stroke:none"
             id="path6383" />
          <path
             d="m 3546.62,2437.78 h 122.68 v 58.2695 h -122.68 z"
             style="fill:#c45f5a;fill-opacity:1;fill-rule:nonzero;stroke:none"
             id="path6385" />
          <path
             d="m 4866.55,2437.78 h 122.691 v 58.2695 H 4866.55 Z"
             style="fill:#c45f5a;fill-opacity:1;fill-rule:nonzero;stroke:none"
             id="path6387" />
          <path
             d="m 4202.68,2004.38 h -146.91 v -136.22 h 146.91 v 136.22"
             style="fill:#f79484;fill-opacity:1;fill-rule:nonzero;stroke:none"
             id="path6389" />
          <path
             d="m 3968.58,1762.1 h 234.098 v 41.7695 H 3968.58 Z"
             style="fill:#ffffff;fill-opacity:1;fill-rule:nonzero;stroke:none"
             id="path6391" />
          <path
             d="m 4061.17,1868.16 h 141.51 v -64.29 h -141.51 v 64.29"
             style="fill:#3f244a;fill-opacity:1;fill-rule:nonzero;stroke:none"
             id="path6393" />
          <path
             d="m 4067.96,1878.02 c -43.98,0 -81.8,-30.37 -99.38,-74.15 h 198.75 c -17.56,43.78 -55.4,74.15 -99.37,74.15"
             style="fill:#3f244a;fill-opacity:1;fill-rule:nonzero;stroke:none"
             id="path6395" />
          <path
             d="m 4333.01,2004.38 h 147.23 v -136.22 h -147.23 v 136.22"
             style="fill:#f79484;fill-opacity:1;fill-rule:nonzero;stroke:none"
             id="path6397" />
          <path
             d="m 4333.17,1762.1 h 234.098 v 41.7695 H 4333.17 Z"
             style="fill:#ffffff;fill-opacity:1;fill-rule:nonzero;stroke:none"
             id="path6399" />
          <path
             d="m 4474.68,1868.16 h -141.51 v -64.29 h 141.51 v 64.29"
             style="fill:#3f244a;fill-opacity:1;fill-rule:nonzero;stroke:none"
             id="path6401" />
          <path
             d="m 4467.89,1878.02 c 43.98,0 81.81,-30.37 99.38,-74.15 h -198.75 c 17.57,43.78 55.41,74.15 99.37,74.15"
             style="fill:#3f244a;fill-opacity:1;fill-rule:nonzero;stroke:none"
             id="path6403" />
          <path
             d="m 4524.26,2674.8 c -13.24,47.06 -38.72,88.11 -72.4,120.12 -48.04,45.66 -112.75,72.93 -182.48,72.93 -69.72,0 -134.43,-27.27 -182.47,-72.93 -33.68,-32.01 -59.16,-73.06 -72.4,-120.12 l -26.3,-93.45 h 98.7 364.95 98.7 l -26.3,93.45"
             style="fill:#fab850;fill-opacity:1;fill-rule:nonzero;stroke:none"
             id="path6405" />
          <path
             d="m 4334.61,2855.48 c 0,-36.02 -29.2,-65.23 -65.23,-65.23 -36.02,0 -65.23,29.21 -65.23,65.23 0,36.03 29.21,65.23 65.23,65.23 36.03,0 65.23,-29.2 65.23,-65.23"
             style="fill:#9f2e46;fill-opacity:1;fill-rule:nonzero;stroke:none"
             id="path6407" />
          <path
             d="m 4002.1,3104.13 c -36.73,0 -66.5,-29.78 -66.5,-66.51 0,-36.73 29.77,-66.5 66.5,-66.5 h 35.81 v 133.01 h -35.81"
             style="fill:#9f2e46;fill-opacity:1;fill-rule:nonzero;stroke:none"
             id="path6409" />
          <path
             d="m 4533.75,3104.13 c 36.73,0 66.5,-29.78 66.5,-66.51 0,-36.73 -29.77,-66.5 -66.5,-66.5 h -35.81 v 133.01 h 35.81"
             style="fill:#9f2e46;fill-opacity:1;fill-rule:nonzero;stroke:none"
             id="path6411" />
          <path
             d="m 4535.58,3098.45 c 0,-147.02 -119.18,-266.2 -266.2,-266.2 -147.02,0 -266.2,119.18 -266.2,266.2 0,147.01 119.18,266.19 266.2,266.19 147.02,0 266.2,-119.18 266.2,-266.19"
             style="fill:#be3955;fill-opacity:1;fill-rule:nonzero;stroke:none"
             id="path6413" />
          <path
             d="m 4090.14,3131.57 c -1.88,0 -3.76,0.47 -5.5,1.46 -5.31,3.04 -7.16,9.82 -4.11,15.13 20.95,36.62 67.81,49.35 104.42,28.39 5.31,-3.04 7.16,-9.82 4.11,-15.13 -3.03,-5.31 -9.81,-7.15 -15.11,-4.11 -26.01,14.89 -59.29,5.85 -74.18,-20.17 -2.06,-3.57 -5.8,-5.57 -9.63,-5.57"
             style="fill:#3f244a;fill-opacity:1;fill-rule:nonzero;stroke:none"
             id="path6415" />
          <path
             d="m 4445.72,3131.57 c -3.84,0 -7.59,2 -9.63,5.57 -14.9,26.01 -48.17,35.06 -74.18,20.17 -5.31,-3.04 -12.09,-1.2 -15.12,4.11 -3.05,5.31 -1.2,12.09 4.11,15.13 36.62,20.96 83.47,8.23 104.43,-28.39 3.04,-5.31 1.2,-12.09 -4.11,-15.13 -1.74,-0.99 -3.63,-1.46 -5.5,-1.46"
             style="fill:#3f244a;fill-opacity:1;fill-rule:nonzero;stroke:none"
             id="path6417" />
          <path
             d="m 4290.26,2985.92 c -5.54,-5.46 -13.31,-8.6 -21.1,-8.54 -7.78,0.07 -15.5,3.33 -20.96,8.88 2.31,-5.54 3.54,-10.7 7.74,-14.99 4.2,-4.29 9.94,-7.34 15.94,-7.27 4.74,0.06 9.43,2.12 12.67,5.58 3.24,3.47 5.97,11.61 5.71,16.34"
             style="fill:#9f2e46;fill-opacity:1;fill-rule:nonzero;stroke:none"
             id="path6419" />
          <path
             d="m 4545,3445.88 c -57.82,27.95 -226.2,36.62 -275.62,36.62 -49.41,0 -217.79,-8.67 -275.61,-36.62 0,0 -11.56,-339.21 21.44,-431.23 l 5.54,144.46 c 0,0 12.53,7.3 30.84,15.01 31.84,13.41 20.24,114.68 54.47,112.75 0,0 37.03,-14.13 163.32,-14.13 126.29,0 163.33,14.13 163.33,14.13 34.23,1.93 22.63,-99.34 54.47,-112.75 18.31,-7.71 30.84,-15.01 30.84,-15.01 l 5.54,-144.46 c 33,92.02 21.44,431.23 21.44,431.23"
             style="fill:#3f244a;fill-opacity:1;fill-rule:nonzero;stroke:none"
             id="path6421" />
          <path
             d="m 4152.63,3037.62 c -12.93,0 -23.46,10.52 -23.46,23.46 0,12.93 10.53,23.46 23.46,23.46 12.93,0 23.45,-10.53 23.45,-23.46 0,-12.94 -10.52,-23.46 -23.45,-23.46"
             style="fill:#3f244a;fill-opacity:1;fill-rule:nonzero;stroke:none"
             id="path6423" />
          <path
             d="m 4386.14,3037.62 c -12.93,0 -23.45,10.52 -23.45,23.46 0,12.93 10.52,23.46 23.45,23.46 12.93,0 23.46,-10.53 23.46,-23.46 0,-12.94 -10.53,-23.46 -23.46,-23.46"
             style="fill:#3f244a;fill-opacity:1;fill-rule:nonzero;stroke:none"
             id="path6425" />
          <path
             d="m 4520.5,3035.21 c -139.94,-64.17 -191.42,4.93 -251.19,4.93 -59.78,0 -111.24,-69.1 -251.18,-4.93 l -7.32,-47 c 24.02,-54.3 129.5,-160.83 258.5,-160.83 129,0 234.48,106.53 258.49,160.83 l -7.3,47"
             style="fill:#ffffff;fill-opacity:1;fill-rule:nonzero;stroke:none"
             id="path6427" />
          <path
             d="M 2632.96,1264.24 H 101.008 c -16.0275,0 -29.0158,-12.99 -29.0158,-29.02 0,-16.01 12.9883,-29 29.0158,-29 H 2632.96 c 16.02,0 29.01,12.99 29.01,29 0,16.03 -12.99,29.02 -29.01,29.02"
             style="fill:#fddc6f;fill-opacity:1;fill-rule:nonzero;stroke:none"
             id="path6429" />
          <path
             d="M 1087.84,1206.56 H 943.895 v 303.58 h 143.945 v -303.58"
             style="fill:#9f2e46;fill-opacity:1;fill-rule:nonzero;stroke:none"
             id="path6431" />
          <path
             d="m 1642.66,1206.56 h 143.94 v 303.58 h -143.94 v -303.58"
             style="fill:#9f2e46;fill-opacity:1;fill-rule:nonzero;stroke:none"
             id="path6433" />
          <path
             d="M 1087.84,2132.98 H 943.895 v 303.57 h 143.945 v -303.57"
             style="fill:#9f2e46;fill-opacity:1;fill-rule:nonzero;stroke:none"
             id="path6435" />
          <path
             d="m 1642.66,2132.98 h 143.94 v 303.57 h -143.94 v -303.57"
             style="fill:#9f2e46;fill-opacity:1;fill-rule:nonzero;stroke:none"
             id="path6437" />
          <path
             d="m 386.012,2126.2 h 1958.48 v 106.871 H 386.012 Z"
             style="fill:#f57a5d;fill-opacity:1;fill-rule:nonzero;stroke:none"
             id="path6439" />
          <path
             d="m 615.18,1510.14 h 1500.14 v 616.059 H 615.18 Z"
             style="fill:#d5555f;fill-opacity:1;fill-rule:nonzero;stroke:none"
             id="path6441" />
          <path
             d="M 461.457,1206.56 H 615.18 v 919.641 H 461.457 Z"
             style="fill:#f57a5d;fill-opacity:1;fill-rule:nonzero;stroke:none"
             id="path6443" />
          <path
             d="m 2115.32,1206.56 h 153.719 v 919.641 H 2115.32 Z"
             style="fill:#f57a5d;fill-opacity:1;fill-rule:nonzero;stroke:none"
             id="path6445" />
          <path
             d="m 615.18,2053.18 h 1500.14 v 73.0195 H 615.18 Z"
             style="fill:#a9465b;fill-opacity:1;fill-rule:nonzero;stroke:none"
             id="path6447" />
          <path
             d="M 461.457,2053.18 H 615.18 v 73.0195 H 461.457 Z"
             style="fill:#c45f5a;fill-opacity:1;fill-rule:nonzero;stroke:none"
             id="path6449" />
          <path
             d="m 2115.32,2053.18 h 153.719 v 73.0195 H 2115.32 Z"
             style="fill:#c45f5a;fill-opacity:1;fill-rule:nonzero;stroke:none"
             id="path6451" />
          <path
             d="m 1306.78,1510.14 h -230.64 v -170.68 h 230.64 v 170.68"
             style="fill:#3a476c;fill-opacity:1;fill-rule:nonzero;stroke:none"
             id="path6453" />
          <path
             d="M 1283.5,1258.9 H 990.176 v -52.34 H 1283.5 v 52.34"
             style="fill:#3a476c;fill-opacity:1;fill-rule:nonzero;stroke:none"
             id="path6455" />
          <path
             d="m 1106.19,1339.46 h 177.31 v -80.56 h -177.31 v 80.56"
             style="fill:#fab850;fill-opacity:1;fill-rule:nonzero;stroke:none"
             id="path6457" />
          <path
             d="m 1114.69,1351.81 c -55.09,0 -102.49,-38.06 -124.514,-92.91 h 249.034 c -22.02,54.85 -69.42,92.91 -124.52,92.91"
             style="fill:#fab850;fill-opacity:1;fill-rule:nonzero;stroke:none"
             id="path6459" />
          <path
             d="m 1423.72,1510.14 h 230.64 v -170.68 h -230.64 v 170.68"
             style="fill:#3a476c;fill-opacity:1;fill-rule:nonzero;stroke:none"
             id="path6461" />
          <path
             d="m 1447,1258.9 h 293.32 v -52.34 H 1447 v 52.34"
             style="fill:#3a476c;fill-opacity:1;fill-rule:nonzero;stroke:none"
             id="path6463" />
          <path
             d="M 1624.31,1339.46 H 1447 v -80.56 h 177.31 v 80.56"
             style="fill:#fab850;fill-opacity:1;fill-rule:nonzero;stroke:none"
             id="path6465" />
          <path
             d="m 1615.81,1351.81 c 55.09,0 102.49,-38.06 124.51,-92.91 h -249.04 c 22.03,54.85 69.43,92.91 124.53,92.91"
             style="fill:#fab850;fill-opacity:1;fill-rule:nonzero;stroke:none"
             id="path6467" />
          <path
             d="m 1478.2,2581.49 v 0 l -36.63,-80.28 z"
             style="fill:#81b229;fill-opacity:1;fill-rule:nonzero;stroke:none"
             id="path6469" />
          <path
             d="m 1233.39,2423.69 -1.94,149.68 c -88.95,-38.13 -159.55,-113.43 -190.05,-209.41 -1.15,-3.63 -2.25,-7.27 -3.29,-10.94 l -33.75,-119.95 h 167.93 116.63 v 268.14 l -55.53,-77.52"
             style="fill:#ffffff;fill-opacity:1;fill-rule:nonzero;stroke:none"
             id="path6471" />
          <path
             d="m 1252.29,2581.49 v 0 l 36.63,-80.28 z"
             style="fill:#81b229;fill-opacity:1;fill-rule:nonzero;stroke:none"
             id="path6473" />
          <path
             d="m 1478.2,2581.49 c -35.57,12.54 -73.63,19.31 -112.95,19.31 -39.32,0 -77.39,-6.77 -112.96,-19.31 l 36.63,-80.28 v -268.14 h 152.65 v 268.14 l 36.63,80.28"
             style="fill:#fab850;fill-opacity:1;fill-rule:nonzero;stroke:none"
             id="path6475" />
          <path
             d="m 1726.14,2233.07 -33.75,119.95 c -1.04,3.67 -2.15,7.31 -3.3,10.94 -30.5,95.98 -101.09,171.28 -190.04,209.41 l -1.95,-149.68 -55.53,77.52 v -268.14 h 116.64 167.93"
             style="fill:#ffffff;fill-opacity:1;fill-rule:nonzero;stroke:none"
             id="path6477" />
          <path
             d="m 1288.92,2501.21 -36.63,80.28 c -0.93,-0.33 -1.88,-0.66 -2.81,-0.99 -6.09,-2.21 -12.1,-4.59 -18.03,-7.13 l 1.94,-149.68 55.53,77.52"
             style="fill:#e7e7e1;fill-opacity:1;fill-rule:nonzero;stroke:none"
             id="path6479" />
          <path
             d="m 1497.1,2423.69 1.95,149.68 c -5.93,2.54 -11.94,4.92 -18.03,7.13 -0.94,0.33 -1.88,0.66 -2.82,0.99 l -36.63,-80.28 55.53,-77.52"
             style="fill:#e7e7e1;fill-opacity:1;fill-rule:nonzero;stroke:none"
             id="path6481" />
          <path
             d="m 1584.63,3264.8 c 0,-120.23 -97.46,-217.7 -217.69,-217.7 -120.24,0 -217.7,97.47 -217.7,217.7 0,120.23 97.46,217.7 217.7,217.7 120.23,0 217.69,-97.47 217.69,-217.7"
             style="fill:#3f244a;fill-opacity:1;fill-rule:nonzero;stroke:none"
             id="path6483" />
          <path
             d="m 1448.97,2584.93 c 0,-46.24 -37.48,-83.72 -83.72,-83.72 -46.24,0 -83.73,37.48 -83.73,83.72 0,46.24 37.49,83.72 83.73,83.72 46.24,0 83.72,-37.48 83.72,-83.72"
             style="fill:#be3955;fill-opacity:1;fill-rule:nonzero;stroke:none"
             id="path6485" />
          <path
             d="m 1024.05,2904.08 c -47.14,0 -85.359,-38.22 -85.359,-85.36 0,-47.15 38.219,-85.37 85.359,-85.37 h 45.97 v 170.73 h -45.97"
             style="fill:#be3955;fill-opacity:1;fill-rule:nonzero;stroke:none"
             id="path6487" />
          <path
             d="m 1706.44,2904.08 c 47.14,0 85.36,-38.22 85.36,-85.36 0,-47.15 -38.22,-85.37 -85.36,-85.37 h -45.96 v 170.73 h 45.96"
             style="fill:#be3955;fill-opacity:1;fill-rule:nonzero;stroke:none"
             id="path6489" />
          <path
             d="m 1706.92,2896.78 c 0,-188.7 -152.97,-341.67 -341.67,-341.67 -188.7,0 -341.68,152.97 -341.68,341.67 0,188.7 152.98,341.68 341.68,341.68 188.7,0 341.67,-152.98 341.67,-341.68"
             style="fill:#d5555f;fill-opacity:1;fill-rule:nonzero;stroke:none"
             id="path6491" />
          <path
             d="m 1137.05,2939.29 c -2.4,0 -4.83,0.61 -7.06,1.89 -6.82,3.9 -9.18,12.59 -5.28,19.41 26.91,47 87.04,63.35 134.04,36.44 6.82,-3.91 9.18,-12.6 5.28,-19.41 -3.9,-6.83 -12.59,-9.19 -19.42,-5.29 -33.37,19.12 -76.09,7.51 -95.21,-25.87 -2.62,-4.59 -7.42,-7.17 -12.35,-7.17"
             style="fill:#3f244a;fill-opacity:1;fill-rule:nonzero;stroke:none"
             id="path6493" />
          <path
             d="m 1593.45,2939.29 c -4.93,0 -9.73,2.58 -12.36,7.17 -19.11,33.38 -61.83,44.99 -95.21,25.87 -6.82,-3.9 -15.51,-1.53 -19.42,5.29 -3.9,6.81 -1.53,15.5 5.28,19.41 47.01,26.91 107.14,10.56 134.05,-36.44 3.9,-6.82 1.54,-15.51 -5.28,-19.41 -2.23,-1.28 -4.66,-1.89 -7.06,-1.89"
             style="fill:#3f244a;fill-opacity:1;fill-rule:nonzero;stroke:none"
             id="path6495" />
          <path
             d="m 1393.92,2752.35 c -7.12,-7.01 -17.09,-11.04 -27.08,-10.96 -10,0.08 -19.9,4.28 -26.9,11.4 2.95,-7.12 4.53,-13.74 9.92,-19.25 5.39,-5.5 12.76,-9.41 20.47,-9.32 6.09,0.07 12.1,2.72 16.26,7.17 4.16,4.44 7.65,14.88 7.33,20.96"
             style="fill:#be3955;fill-opacity:1;fill-rule:nonzero;stroke:none"
             id="path6497" />
          <path
             d="m 1718.51,2904.08 c 0,236.7 -150.9,369.38 -353.26,369.38 -202.36,0 -353.26,-132.68 -353.26,-369.38 0,-236.71 64.31,-400.15 64.31,-400.15 -38.34,152.78 -47.02,439.28 -23.16,475.55 22.84,-0.14 41.48,20.31 53.29,41.86 11.82,21.56 20.02,46.05 36.17,63.84 26.24,28.91 67.35,33.49 104.24,29.3 36.9,-4.2 78.02,-12.43 118.41,-12.43 40.38,0 81.51,8.23 118.41,12.43 36.89,4.19 77.99,-0.39 104.24,-29.3 16.15,-17.79 24.35,-42.28 36.16,-63.84 11.81,-21.55 30.46,-42 53.29,-41.86 23.87,-36.27 15.18,-322.77 -23.16,-475.55 0,0 64.32,163.44 64.32,400.15"
             style="fill:#3f244a;fill-opacity:1;fill-rule:nonzero;stroke:none"
             id="path6499" />
          <path
             d="m 1217.24,2822.43 c -16.4,0 -29.74,13.34 -29.74,29.73 0,16.39 13.34,29.73 29.74,29.73 16.39,0 29.73,-13.34 29.73,-29.73 0,-16.39 -13.34,-29.73 -29.73,-29.73"
             style="fill:#3f244a;fill-opacity:1;fill-rule:nonzero;stroke:none"
             id="path6501" />
          <path
             d="m 1513.26,2822.43 c -16.39,0 -29.73,13.34 -29.73,29.73 0,16.39 13.34,29.73 29.73,29.73 16.4,0 29.74,-13.34 29.74,-29.73 0,-16.39 -13.34,-29.73 -29.74,-29.73"
             style="fill:#3f244a;fill-opacity:1;fill-rule:nonzero;stroke:none"
             id="path6503" />
          <path
             d="m 1681.71,2801.75 c -175.34,-80.4 -239.83,6.17 -314.73,6.17 -74.9,0 -139.39,-86.57 -314.73,-6.17 l -9.16,-58.89 c 30.09,-68.04 162.26,-201.51 323.89,-201.51 161.63,0 293.8,133.47 323.89,201.51 l -9.16,58.89"
             style="fill:#ffffff;fill-opacity:1;fill-rule:nonzero;stroke:none"
             id="path6505" />
          <path
             d="M 6440.81,1264.24 H 3908.86 c -16.03,0 -29.02,-12.99 -29.02,-29.02 0,-16.01 12.99,-29 29.02,-29 h 2531.95 c 16.03,0 29.01,12.99 29.01,29 0,16.03 -12.98,29.02 -29.01,29.02"
             style="fill:#fddc6f;fill-opacity:1;fill-rule:nonzero;stroke:none"
             id="path6507" />
          <path
             d="m 4895.69,2132.98 h -143.94 v 303.57 h 143.94 v -303.57"
             style="fill:#9f2e46;fill-opacity:1;fill-rule:nonzero;stroke:none"
             id="path6509" />
          <path
             d="m 5450.51,2132.98 h 143.94 v 303.57 h -143.94 v -303.57"
             style="fill:#9f2e46;fill-opacity:1;fill-rule:nonzero;stroke:none"
             id="path6511" />
          <path
             d="m 4852.89,2350.38 -33.02,-117.31 h 164.26 l -128.02,128.01 c -1.12,-3.54 -2.2,-7.1 -3.22,-10.7"
             style="fill:#4c886f;fill-opacity:1;fill-rule:nonzero;stroke:none"
             id="path6513" />
          <path
             d="m 5172.85,2463.87 c 61.05,0 110.95,48.52 113.24,109.01 -35.57,12.9 -73.77,19.85 -113.24,19.85 -39.46,0 -77.65,-6.95 -113.23,-19.85 2.29,-60.49 52.19,-109.01 113.23,-109.01"
             style="fill:#4c886f;fill-opacity:1;fill-rule:nonzero;stroke:none"
             id="path6515" />
          <path
             d="m 5286.09,2572.88 c -2.29,-60.49 -52.19,-109.01 -113.24,-109.01 -61.04,0 -110.94,48.52 -113.23,109.01 -95.25,-34.54 -171.69,-111.66 -203.51,-211.8 l 128.02,-128.01 h 377.45 l 128.02,128.01 c -31.82,100.14 -108.26,177.26 -203.51,211.8"
             style="fill:#a8b750;fill-opacity:1;fill-rule:nonzero;stroke:none"
             id="path6517" />
          <path
             d="m 5492.82,2350.38 c -1.01,3.6 -2.1,7.16 -3.22,10.7 l -128.02,-128.01 h 164.25 l -33.01,117.31"
             style="fill:#4c886f;fill-opacity:1;fill-rule:nonzero;stroke:none"
             id="path6519" />
          <path
             d="m 5254.75,2577.21 c 0,-45.22 -36.67,-81.88 -81.9,-81.88 -45.22,0 -81.88,36.66 -81.88,81.88 0,45.23 36.66,81.89 81.88,81.89 45.23,0 81.9,-36.66 81.9,-81.89"
             style="fill:#f79484;fill-opacity:1;fill-rule:nonzero;stroke:none"
             id="path6521" />
          <path
             d="m 4839.14,2889.36 c -46.1,0 -83.49,-37.38 -83.49,-83.49 0,-46.11 37.39,-83.49 83.49,-83.49 h 44.96 v 166.98 h -44.96"
             style="fill:#f79484;fill-opacity:1;fill-rule:nonzero;stroke:none"
             id="path6523" />
          <path
             d="m 5506.56,2889.36 c 46.12,0 83.5,-37.38 83.5,-83.49 0,-46.11 -37.38,-83.49 -83.5,-83.49 h -44.95 v 166.98 h 44.95"
             style="fill:#f79484;fill-opacity:1;fill-rule:nonzero;stroke:none"
             id="path6525" />
          <path
             d="m 5507.03,2882.23 c 0,-184.56 -149.61,-334.18 -334.18,-334.18 -184.56,0 -334.18,149.62 -334.18,334.18 0,184.56 149.62,334.18 334.18,334.18 184.57,0 334.18,-149.62 334.18,-334.18"
             style="fill:#fac1a4;fill-opacity:1;fill-rule:nonzero;stroke:none"
             id="path6527" />
          <path
             d="m 4949.66,2923.8 c -2.35,0 -4.73,0.6 -6.91,1.85 -6.67,3.82 -8.98,12.32 -5.15,18.99 26.31,45.97 85.12,61.95 131.09,35.64 6.67,-3.82 8.99,-12.33 5.17,-18.99 -3.82,-6.68 -12.33,-8.99 -19,-5.17 -32.64,18.69 -74.42,7.34 -93.11,-25.31 -2.57,-4.49 -7.27,-7.01 -12.09,-7.01"
             style="fill:#f79447;fill-opacity:1;fill-rule:nonzero;stroke:none"
             id="path6529" />
          <path
             d="m 5396.05,2923.8 c -4.82,0 -9.52,2.52 -12.09,7.01 -18.69,32.65 -60.46,44 -93.12,25.31 -6.67,-3.82 -15.17,-1.5 -18.98,5.17 -3.82,6.66 -1.52,15.17 5.15,18.99 45.98,26.31 104.79,10.33 131.11,-35.64 3.81,-6.67 1.51,-15.17 -5.16,-18.99 -2.19,-1.25 -4.56,-1.85 -6.91,-1.85"
             style="fill:#f79447;fill-opacity:1;fill-rule:nonzero;stroke:none"
             id="path6531" />
          <path
             d="m 5200.9,2740.97 c -6.97,-6.86 -16.72,-10.8 -26.5,-10.73 -9.76,0.08 -19.45,4.18 -26.3,11.16 2.89,-6.97 4.43,-13.45 9.7,-18.83 5.29,-5.38 12.49,-9.21 20.02,-9.12 5.96,0.07 11.84,2.66 15.91,7.01 4.07,4.34 7.49,14.56 7.17,20.51"
             style="fill:#f79484;fill-opacity:1;fill-rule:nonzero;stroke:none"
             id="path6533" />
          <path
             d="m 5495.44,2794.72 c -14.08,42.78 -4.4,129.14 -17.72,163.66 -41.59,15.69 -62.41,50.45 -73.22,93.56 -2.21,8.83 -3.56,17.93 -7,26.37 -3.44,8.43 -10.76,20.15 -19.27,23.41 -48.82,-44.5 -122.31,-59.95 -184.92,-38.87 -38.64,13.01 -72.12,38.36 -110.48,52.2 -38.36,13.84 -87.51,12.71 -112.77,-19.29 7.79,-29.17 -13.96,-62.39 -35.64,-83.39 -21.69,-21 -48.03,-37.96 -64.11,-63.51 -24.6,-39.13 -1.11,-98.7 -22.86,-142.99 -26.51,42.19 -36.33,94.11 -25.21,142.67 6.45,28.2 19.29,54.76 24.18,83.28 7.29,42.63 -3.66,86.78 3.4,129.46 7.02,42.39 32.53,81.39 68.58,104.79 36.03,23.4 82.04,30.84 123.62,19.99 49.04,27.13 99.7,47.18 153.78,61.86 54.09,14.69 113.92,15.66 164.26,-8.97 50.34,-24.64 88.31,-78.49 83.57,-134.33 31.82,-9.86 54.68,-38.38 65.94,-69.73 11.26,-31.35 11.88,-65.46 10.15,-98.72 -1.72,-33.26 -5.65,-66.59 -2.98,-99.78 1.92,-23.92 7.26,-47.61 6.96,-71.6 -0.29,-24 -10.05,-54.45 -28.26,-70.07"
             style="fill:#f79447;fill-opacity:1;fill-rule:nonzero;stroke:none"
             id="path6535" />
          <path
             d="m 5489.57,2801.75 c -175.34,-80.4 -239.84,6.17 -314.74,6.17 -74.89,0 -139.38,-86.57 -314.73,-6.17 l -9.16,-58.89 c 30.1,-68.04 162.26,-201.51 323.89,-201.51 161.63,0 293.8,133.47 323.9,201.51 l -9.16,58.89"
             style="fill:#ffffff;fill-opacity:1;fill-rule:nonzero;stroke:none"
             id="path6537" />
          <path
             d="m 5323.26,2734.68 c -59.67,0 -108.22,48.55 -108.22,108.22 0,59.67 48.55,108.22 108.22,108.22 59.68,0 108.22,-48.55 108.22,-108.22 0,-59.67 -48.54,-108.22 -108.22,-108.22 z m -300.82,0 c -59.67,0 -108.21,48.55 -108.21,108.22 0,59.67 48.54,108.22 108.21,108.22 59.68,0 108.22,-48.55 108.22,-108.22 0,-59.67 -48.54,-108.22 -108.22,-108.22 z m 484.59,115.48 h -61.26 c -3.77,64.31 -57.26,115.48 -122.51,115.48 -67.33,0 -122.16,-54.51 -122.71,-121.72 -17.25,9.23 -38.2,9.14 -55.38,-0.25 -0.42,67.32 -55.3,121.97 -122.73,121.97 -65.23,0 -118.73,-51.17 -122.5,-115.48 h -65.02 c -4.01,0 -7.26,-3.25 -7.26,-7.26 0,-4.01 3.25,-7.26 7.26,-7.26 h 65.02 c 3.77,-64.31 57.27,-115.48 122.5,-115.48 61.62,0 112.77,45.65 121.44,104.89 8.03,7.25 18.3,11.26 29.2,11.26 10.67,0 20.74,-3.84 28.7,-10.8 8.47,-59.47 59.71,-105.35 121.48,-105.35 65.25,0 118.74,51.17 122.51,115.48 h 61.26 c 4.01,0 7.27,3.25 7.27,7.26 0,4.01 -3.26,7.26 -7.27,7.26"
             style="fill:#3a476c;fill-opacity:1;fill-rule:nonzero;stroke:none"
             id="path6539" />
          <path
             d="m 5026.82,2807.77 c -16.39,0 -29.73,13.34 -29.73,29.73 0,16.4 13.34,29.74 29.73,29.74 16.39,0 29.73,-13.34 29.73,-29.74 0,-16.39 -13.34,-29.73 -29.73,-29.73"
             style="fill:#3f244a;fill-opacity:1;fill-rule:nonzero;stroke:none"
             id="path6541" />
          <path
             d="m 5322.85,2807.77 c -16.39,0 -29.73,13.34 -29.73,29.73 0,16.4 13.34,29.74 29.73,29.74 16.39,0 29.73,-13.34 29.73,-29.74 0,-16.39 -13.34,-29.73 -29.73,-29.73"
             style="fill:#3f244a;fill-opacity:1;fill-rule:nonzero;stroke:none"
             id="path6543" />
          <path
             d="m 4895.69,1206.56 h -143.94 v 303.58 h 143.94 v -303.58"
             style="fill:#9f2e46;fill-opacity:1;fill-rule:nonzero;stroke:none"
             id="path6545" />
          <path
             d="m 5450.51,1206.56 h 143.94 v 303.58 h -143.94 v -303.58"
             style="fill:#9f2e46;fill-opacity:1;fill-rule:nonzero;stroke:none"
             id="path6547" />
          <path
             d="m 4193.87,2126.2 h 1958.47 v 106.871 H 4193.87 Z"
             style="fill:#f57a5d;fill-opacity:1;fill-rule:nonzero;stroke:none"
             id="path6549" />
          <path
             d="m 4423.03,1510.14 h 1500.14 v 616.059 H 4423.03 Z"
             style="fill:#d5555f;fill-opacity:1;fill-rule:nonzero;stroke:none"
             id="path6551" />
          <path
             d="m 4269.31,1206.56 h 153.723 v 919.641 H 4269.31 Z"
             style="fill:#f57a5d;fill-opacity:1;fill-rule:nonzero;stroke:none"
             id="path6553" />
          <path
             d="m 5923.17,1206.56 h 153.719 v 919.641 H 5923.17 Z"
             style="fill:#f57a5d;fill-opacity:1;fill-rule:nonzero;stroke:none"
             id="path6555" />
          <path
             d="m 4423.03,2053.18 h 1500.14 v 73.0195 H 4423.03 Z"
             style="fill:#a9465b;fill-opacity:1;fill-rule:nonzero;stroke:none"
             id="path6557" />
          <path
             d="m 4269.31,2053.18 h 153.723 v 73.0195 H 4269.31 Z"
             style="fill:#c45f5a;fill-opacity:1;fill-rule:nonzero;stroke:none"
             id="path6559" />
          <path
             d="m 5923.17,2053.18 h 153.719 v 73.0195 H 5923.17 Z"
             style="fill:#c45f5a;fill-opacity:1;fill-rule:nonzero;stroke:none"
             id="path6561" />
          <path
             d="m 5114.63,1510.14 h -230.64 v -170.68 h 230.64 v 170.68"
             style="fill:#3a476c;fill-opacity:1;fill-rule:nonzero;stroke:none"
             id="path6563" />
          <path
             d="m 5091.35,1258.9 h -293.32 v -52.34 h 293.32 v 52.34"
             style="fill:#ffffff;fill-opacity:1;fill-rule:nonzero;stroke:none"
             id="path6565" />
          <path
             d="m 4914.04,1339.46 h 177.31 v -80.56 h -177.31 v 80.56"
             style="fill:#3f244a;fill-opacity:1;fill-rule:nonzero;stroke:none"
             id="path6567" />
          <path
             d="m 4922.55,1351.81 c -55.1,0 -102.5,-38.06 -124.52,-92.91 h 249.03 c -22.02,54.85 -69.41,92.91 -124.51,92.91"
             style="fill:#3f244a;fill-opacity:1;fill-rule:nonzero;stroke:none"
             id="path6569" />
          <path
             d="m 5231.57,1510.14 h 230.64 v -170.68 h -230.64 v 170.68"
             style="fill:#3a476c;fill-opacity:1;fill-rule:nonzero;stroke:none"
             id="path6571" />
          <path
             d="m 5254.85,1258.9 h 293.32 v -52.34 h -293.32 v 52.34"
             style="fill:#ffffff;fill-opacity:1;fill-rule:nonzero;stroke:none"
             id="path6573" />
          <path
             d="m 5432.16,1339.46 h -177.31 v -80.56 h 177.31 v 80.56"
             style="fill:#3f244a;fill-opacity:1;fill-rule:nonzero;stroke:none"
             id="path6575" />
          <path
             d="m 5423.65,1351.81 c 55.1,0 102.5,-38.06 124.52,-92.91 h -249.03 c 22.02,54.85 69.42,92.91 124.51,92.91"
             style="fill:#3f244a;fill-opacity:1;fill-rule:nonzero;stroke:none"
             id="path6577" />
          <path
             d="M 4967.75,702.949 H 1228.72 c -23.66,0 -42.85,-19.179 -42.85,-42.84 0,-23.66 19.19,-42.839 42.85,-42.839 h 3739.03 c 23.67,0 42.85,19.179 42.85,42.839 0,23.661 -19.18,42.84 -42.85,42.84"
             style="fill:#fddc6f;fill-opacity:1;fill-rule:nonzero;stroke:none"
             id="path6579" />
          <path
             d="m 2170.11,1451.8 h -239.52 v -48.1 c -58.91,-44.1 -97.03,-114.44 -97.03,-193.68 V 754.84 c 0,-61.86 40.84,-114.192 97.03,-131.488 v -6.071 h 40.54 151.59 151.6 c 75.98,0 137.57,61.59 137.57,137.559 v 455.18 c 0,133.53 -108.25,241.78 -241.78,241.78"
             style="fill:#3e4c78;fill-opacity:1;fill-rule:nonzero;stroke:none"
             id="path6581" />
          <path
             d="m 2313.82,1210.02 v -35 h 30.74 v 35 c 0,133.53 -108.26,241.78 -241.79,241.78 h -30.74 c 133.54,0 241.79,-108.25 241.79,-241.78"
             style="fill:#3698ac;fill-opacity:1;fill-rule:nonzero;stroke:none"
             id="path6583" />
          <path
             d="m 2336.59,1175.02 h -14.55 v -8.6 h 14.55 v 8.6"
             style="fill:#51adbf;fill-opacity:1;fill-rule:nonzero;stroke:none"
             id="path6585" />
          <path
             d="m 2323.52,1134.26 0.96,10.56 h 9.66 l 0.97,-10.56 z m 13.07,32.16 h -14.55 l -2.89,-31.76 c -0.24,-2.57 1.79,-4.79 4.37,-4.79 h 11.58 c 2.59,0 4.61,2.22 4.38,4.79 l -2.89,31.76"
             style="fill:#ffffff;fill-opacity:1;fill-rule:nonzero;stroke:none"
             id="path6587" />
          <path
             d="m 2082.19,617.281 h -303.2 c -75.97,0 -137.56,61.59 -137.56,137.559 v 455.18 c 0,133.53 108.25,241.78 241.78,241.78 h 94.76 c 133.54,0 241.79,-108.25 241.79,-241.78 V 754.84 c 0,-75.969 -61.6,-137.559 -137.57,-137.559"
             style="fill:#73769e;fill-opacity:1;fill-rule:nonzero;stroke:none"
             id="path6589" />
          <path
             d="M 2071.04,702.949 H 1739.4 c -36.37,0 -65.86,29.492 -65.86,65.871 v 200.539 c 0,36.371 29.49,65.861 65.86,65.861 h 331.64 c 36.39,0 65.88,-29.49 65.88,-65.861 V 768.82 c 0,-36.379 -29.49,-65.871 -65.88,-65.871"
             style="fill:#2e819a;fill-opacity:1;fill-rule:nonzero;stroke:none"
             id="path6591" />
          <path
             d="m 2075.44,969.359 c 0,36.371 -29.49,65.861 -65.87,65.861 h -331.65 c -36.37,0 -65.86,-29.49 -65.86,-65.861 v -66.238 h 463.38 v 66.238"
             style="fill:#3698ac;fill-opacity:1;fill-rule:nonzero;stroke:none"
             id="path6593" />
          <path
             d="M 1612.06,903.121 V 768.82 c 0,-36.379 29.49,-65.871 65.86,-65.871 h 331.65 c 36.38,0 65.87,29.492 65.87,65.871 v 134.301 h -463.38"
             style="fill:#51adbf;fill-opacity:1;fill-rule:nonzero;stroke:none"
             id="path6595" />
          <path
             d="m 2035.87,943.738 h -384.24 v 19.774 h 384.24 v -19.774"
             style="fill:#fccd50;fill-opacity:1;fill-rule:nonzero;stroke:none"
             id="path6597" />
          <path
             d="m 2097.35,1294.68 h -384.24 v 19.76 h 384.24 v -19.76"
             style="fill:#3698ac;fill-opacity:1;fill-rule:nonzero;stroke:none"
             id="path6599" />
          <path
             d="m 1917.55,1130.44 c 0,-6.74 -5.46,-12.2 -12.2,-12.2 -6.74,0 -12.2,5.46 -12.2,12.2 v 37.66 c 0,6.73 5.46,12.2 12.2,12.2 6.74,0 12.2,-5.47 12.2,-12.2 z m -42.23,0 c 0,-6.74 -5.46,-12.2 -12.2,-12.2 -6.74,0 -12.2,5.46 -12.2,12.2 v 37.66 c 0,6.73 5.46,12.2 12.2,12.2 6.74,0 12.2,-5.47 12.2,-12.2 z m 75.54,36.77 -48.69,48.68 c -9.9,9.91 -25.96,9.91 -35.87,0 l -48.69,-48.68 c -9.9,-9.91 -9.9,-25.97 0,-35.88 l 48.69,-48.68 c 9.91,-9.91 25.97,-9.91 35.87,0 l 48.69,48.68 c 9.9,9.91 9.9,25.97 0,35.88"
             style="fill:#f57a5d;fill-opacity:1;fill-rule:nonzero;stroke:none"
             id="path6601" />
          <path
             d="m 1732.23,1294.68 h -14.55 v -8.6 h 14.55 v 8.6"
             style="fill:#f79447;fill-opacity:1;fill-rule:nonzero;stroke:none"
             id="path6603" />
          <path
             d="m 1719.16,1253.93 0.96,10.56 h 9.67 l 0.96,-10.56 z m 13.07,32.15 h -14.55 l -2.89,-31.75 c -0.24,-2.58 1.79,-4.8 4.37,-4.8 h 11.59 c 2.58,0 4.61,2.22 4.37,4.8 l -2.89,31.75"
             style="fill:#ffffff;fill-opacity:1;fill-rule:nonzero;stroke:none"
             id="path6605" />
          <path
             d="m 2029.24,943.738 h -14.54 v -8.597 h 14.54 v 8.597"
             style="fill:#f79447;fill-opacity:1;fill-rule:nonzero;stroke:none"
             id="path6607" />
          <path
             d="m 2016.18,902.992 0.96,10.559 h 9.66 l 0.96,-10.559 z m 13.06,32.149 h -14.54 l -2.9,-31.762 c -0.23,-2.57 1.79,-4.789 4.38,-4.789 h 11.58 c 2.59,0 4.61,2.219 4.38,4.789 l -2.9,31.762"
             style="fill:#ffffff;fill-opacity:1;fill-rule:nonzero;stroke:none"
             id="path6609" />
          <path
             d="m 2017.25,1451.8 h -34.03 v 72.86 l 34.03,31.67 V 1451.8"
             style="fill:#3698ac;fill-opacity:1;fill-rule:nonzero;stroke:none"
             id="path6611" />
          <path
             d="m 1983.22,1524.66 h 34.03 v -22.48 z"
             style="fill:#2e819a;fill-opacity:1;fill-rule:nonzero;stroke:none"
             id="path6613" />
          <path
             d="m 2097.35,1556.33 h -80.1 l -34.03,-31.67 h 161.02 l -46.89,31.67"
             style="fill:#3698ac;fill-opacity:1;fill-rule:nonzero;stroke:none"
             id="path6615" />
          <path
             d="m 2097.35,1451.8 h 46.89 v 72.86 l -46.89,31.67 V 1451.8"
             style="fill:#3698ac;fill-opacity:1;fill-rule:nonzero;stroke:none"
             id="path6617" />
          <path
             d="m 2144.24,1524.66 h -46.89 v -22.48 z"
             style="fill:#2e819a;fill-opacity:1;fill-rule:nonzero;stroke:none"
             id="path6619" />
          <path
             d="m 2445.45,981.801 h -168.74 v 53.419 h 168.74 v -53.419"
             style="fill:#3698ac;fill-opacity:1;fill-rule:nonzero;stroke:none"
             id="path6621" />
          <path
             d="m 2357.63,702.949 v 0 c -44.7,0 -80.92,36.231 -80.92,80.922 v 197.93 h 168.74 V 790.77 c 0,-48.5 -39.32,-87.821 -87.82,-87.821"
             style="fill:#fccd50;fill-opacity:1;fill-rule:nonzero;stroke:none"
             id="path6623" />
          <path
             d="M 3052.8,617.27 H 2873.05 V 996.371 H 3052.8 V 617.27"
             style="fill:#9f2e46;fill-opacity:1;fill-rule:nonzero;stroke:none"
             id="path6625" />
          <path
             d="m 3745.66,617.27 h 179.75 V 996.371 H 3745.66 V 617.27"
             style="fill:#9f2e46;fill-opacity:1;fill-rule:nonzero;stroke:none"
             id="path6627" />
          <path
             d="m 3052.8,1774.16 h -179.75 v 379.11 h 179.75 v -379.11"
             style="fill:#9f2e46;fill-opacity:1;fill-rule:nonzero;stroke:none"
             id="path6629" />
          <path
             d="m 3745.66,1774.16 h 179.75 v 379.11 h -179.75 v -379.11"
             style="fill:#9f2e46;fill-opacity:1;fill-rule:nonzero;stroke:none"
             id="path6631" />
          <path
             d="m 3879.84,1899.16 h -961.22 l 44.95,159.74 c 54.92,195.15 232.92,329.98 435.66,329.98 202.74,0 380.75,-134.83 435.66,-329.98 l 44.95,-159.74"
             style="fill:#81d5e0;fill-opacity:1;fill-rule:nonzero;stroke:none"
             id="path6633" />
          <path
             d="m 3510.73,2367.74 c 0,-61.57 -49.92,-111.49 -111.5,-111.49 -61.57,0 -111.5,49.92 -111.5,111.49 0,61.59 49.93,111.51 111.5,111.51 61.58,0 111.5,-49.92 111.5,-111.51"
             style="fill:#f7957c;fill-opacity:1;fill-rule:nonzero;stroke:none"
             id="path6635" />
          <path
             d="m 2944.86,2792.76 c -62.78,0 -113.68,-50.89 -113.68,-113.68 0,-62.78 50.9,-113.67 113.68,-113.67 h 61.21 v 227.35 h -61.21"
             style="fill:#f7957c;fill-opacity:1;fill-rule:nonzero;stroke:none"
             id="path6637" />
          <path
             d="m 3853.61,2792.76 c 62.79,0 113.68,-50.89 113.68,-113.68 0,-62.78 -50.89,-113.67 -113.68,-113.67 h -61.21 v 227.35 h 61.21"
             style="fill:#f7957c;fill-opacity:1;fill-rule:nonzero;stroke:none"
             id="path6639" />
          <path
             d="m 3854.25,2783.05 c 0,-251.3 -203.72,-455.01 -455.02,-455.01 -251.3,0 -455.01,203.71 -455.01,455.01 0,251.3 203.71,455.02 455.01,455.02 251.3,0 455.02,-203.72 455.02,-455.02"
             style="fill:#fab590;fill-opacity:1;fill-rule:nonzero;stroke:none"
             id="path6641" />
          <path
             d="m 3204.9,2684.59 c -20.71,0 -37.57,16.86 -37.57,37.57 0,20.72 16.86,37.57 37.57,37.57 20.72,0 37.57,-16.85 37.57,-37.57 0,-20.71 -16.85,-37.57 -37.57,-37.57"
             style="fill:#3f244a;fill-opacity:1;fill-rule:nonzero;stroke:none"
             id="path6643" />
          <path
             d="m 3578.93,2684.59 c -20.71,0 -37.57,16.86 -37.57,37.57 0,20.72 16.86,37.57 37.57,37.57 20.71,0 37.57,-16.85 37.57,-37.57 0,-20.71 -16.86,-37.57 -37.57,-37.57"
             style="fill:#3f244a;fill-opacity:1;fill-rule:nonzero;stroke:none"
             id="path6645" />
          <path
             d="m 3095.33,2839.66 c -3.2,0 -6.43,0.81 -9.4,2.51 -9.08,5.2 -12.23,16.78 -7.03,25.86 35.84,62.59 115.92,84.35 178.51,48.52 9.08,-5.2 12.23,-16.77 7.03,-25.85 -5.2,-9.09 -16.77,-12.23 -25.86,-7.03 -44.45,25.45 -101.33,9.99 -126.79,-34.47 -3.5,-6.11 -9.89,-9.54 -16.46,-9.54"
             style="fill:#be3955;fill-opacity:1;fill-rule:nonzero;stroke:none"
             id="path6647" />
          <path
             d="m 3703.14,2839.66 c -6.57,0 -12.96,3.43 -16.46,9.54 -25.46,44.46 -82.34,59.92 -126.8,34.47 -9.08,-5.21 -20.65,-2.05 -25.85,7.03 -5.2,9.08 -2.05,20.65 7.03,25.85 62.59,35.83 142.67,14.07 178.51,-48.52 5.2,-9.08 2.05,-20.66 -7.03,-25.86 -2.97,-1.7 -6.21,-2.51 -9.4,-2.51"
             style="fill:#be3955;fill-opacity:1;fill-rule:nonzero;stroke:none"
             id="path6649" />
          <path
             d="m 3866.35,2722.16 c -63.86,76.43 -110.36,171.14 -132.49,268.24 -54.05,14.98 -100.59,35.08 -145.31,68.94 -29.02,-28.35 -64.74,-49.81 -103.4,-62.13 17.36,27.94 32.36,57.16 49.73,85.11 -43.04,-51.39 -105.93,-85.7 -172.43,-94.1 48.43,37.1 87.41,80.46 122.28,130.53 -117.23,-85.92 -262.46,-132.25 -407.65,-138.96 -16.49,-93.04 -63.79,-180.35 -132.73,-244.97 -51.4,157.59 1.63,349.26 124.48,460.54 122.85,111.29 312.48,142.09 464.24,75.41 -32.86,48.44 -87.66,89.39 -144.95,101.4 73.69,-4.09 144.62,-43.56 186.95,-104.02 2.99,27.38 -11.19,52.38 -35.74,64.84 37.96,-4.45 70.33,-38.34 73.04,-76.47 39.98,31.09 90.99,47.23 141.53,43.87 -39.37,-10.05 -75.93,-30.93 -104.57,-59.75 48.31,-1.06 96.08,-24.66 128.44,-60.55 32.37,-35.89 52.89,-80.96 67.75,-126.95 33.53,-103.8 41.89,-223.95 20.83,-330.98"
             style="fill:#be3955;fill-opacity:1;fill-rule:nonzero;stroke:none"
             id="path6651" />
          <path
             d="m 3440.11,2584.01 c -30.01,-14.19 -66.36,-14.21 -96.38,-0.05 7.04,-19.19 23.18,-32.67 43.6,-33.61 20.42,-0.93 44.01,15.2 52.78,33.66"
             style="fill:#f7957c;fill-opacity:1;fill-rule:nonzero;stroke:none"
             id="path6653" />
          <path
             d="m 3513.11,2515.5 c -34.51,-20.03 -77.26,-31.43 -120.39,-32.11 -43.14,-0.69 -86.45,9.34 -122,28.26 30.25,-26.25 74.63,-43.18 120.07,-42.62 45.45,0.58 93.19,19.48 122.32,46.47"
             style="fill:#3f244a;fill-opacity:1;fill-rule:nonzero;stroke:none"
             id="path6655" />
          <path
             d="M 2176.37,1765.7 H 4622.1 v 133.461 H 2176.37 Z"
             style="fill:#d5555f;fill-opacity:1;fill-rule:nonzero;stroke:none"
             id="path6657" />
          <path
             d="m 2462.55,996.371 h 1873.37 v 769.328 H 2462.55 Z"
             style="fill:#be3955;fill-opacity:1;fill-rule:nonzero;stroke:none"
             id="path6659" />
          <path
             d="m 2270.58,617.27 h 191.969 V 1765.7 H 2270.58 Z"
             style="fill:#d5555f;fill-opacity:1;fill-rule:nonzero;stroke:none"
             id="path6661" />
          <path
             d="m 4335.92,617.27 h 191.969 V 1765.7 H 4335.92 Z"
             style="fill:#d5555f;fill-opacity:1;fill-rule:nonzero;stroke:none"
             id="path6663" />
          <path
             d="m 2462.55,1674.52 h 1873.37 v 91.1797 H 2462.55 Z"
             style="fill:#993153;fill-opacity:1;fill-rule:nonzero;stroke:none"
             id="path6665" />
          <path
             d="m 2270.58,1674.52 h 191.969 v 91.1797 H 2270.58 Z"
             style="fill:#a9465b;fill-opacity:1;fill-rule:nonzero;stroke:none"
             id="path6667" />
          <path
             d="m 4335.92,1674.52 h 191.969 v 91.1797 H 4335.92 Z"
             style="fill:#a9465b;fill-opacity:1;fill-rule:nonzero;stroke:none"
             id="path6669" />
          <path
             d="M 3326.22,996.371 H 3038.2 V 783.219 h 288.02 v 213.152"
             style="fill:#3f244a;fill-opacity:1;fill-rule:nonzero;stroke:none"
             id="path6671" />
          <path
             d="m 3297.14,682.629 h -366.3 V 617.27 h 366.3 v 65.359"
             style="fill:#ffffff;fill-opacity:1;fill-rule:nonzero;stroke:none"
             id="path6673" />
          <path
             d="m 3075.72,783.219 h 221.42 v -100.59 h -221.42 v 100.59"
             style="fill:#3a476c;fill-opacity:1;fill-rule:nonzero;stroke:none"
             id="path6675" />
          <path
             d="m 3086.34,798.641 c -68.8,0 -128,-47.52 -155.5,-116.012 h 311 c -27.5,68.492 -86.69,116.012 -155.5,116.012"
             style="fill:#3a476c;fill-opacity:1;fill-rule:nonzero;stroke:none"
             id="path6677" />
          <path
             d="m 3472.25,996.371 h 288.02 V 783.219 h -288.02 v 213.152"
             style="fill:#3f244a;fill-opacity:1;fill-rule:nonzero;stroke:none"
             id="path6679" />
          <path
             d="m 3501.33,682.629 h 366.3 V 617.27 h -366.3 v 65.359"
             style="fill:#ffffff;fill-opacity:1;fill-rule:nonzero;stroke:none"
             id="path6681" />
          <path
             d="m 3722.75,783.219 h -221.42 v -100.59 h 221.42 v 100.59"
             style="fill:#3a476c;fill-opacity:1;fill-rule:nonzero;stroke:none"
             id="path6683" />
          <path
             d="m 3712.12,798.641 c 68.81,0 128.01,-47.52 155.51,-116.012 h -311 c 27.5,68.492 86.7,116.012 155.49,116.012"
             style="fill:#3a476c;fill-opacity:1;fill-rule:nonzero;stroke:none"
             id="path6685" />
          <path
             d="m 3784.95,2632.1 c -218.96,-100.39 -299.5,7.72 -393.03,7.72 -93.53,0 -174.07,-108.11 -393.04,-7.72 l -11.44,-73.53 c 37.58,-84.98 202.63,-251.65 404.48,-251.65 201.84,0 366.89,166.67 404.48,251.65 l -11.45,73.53"
             style="fill:#ffffff;fill-opacity:1;fill-rule:nonzero;stroke:none"
             id="path6687" />
          <path
             d="m 6350.71,2548.05 61.79,-314.98 455,157.49 -107.5,311.94 -409.29,-154.45"
             style="fill:#fab590;fill-opacity:1;fill-rule:nonzero;stroke:none"
             id="path6689" />
          <path
             d="m 6240.98,3734.64 c 0,-152.17 -123.36,-275.53 -275.54,-275.53 -152.17,0 -275.53,123.36 -275.53,275.53 0,152.17 123.36,275.53 275.53,275.53 152.18,0 275.54,-123.36 275.54,-275.53"
             style="fill:#3f244a;fill-opacity:1;fill-rule:nonzero;stroke:none"
             id="path6691" />
          <path
             d="m 6400.74,2459.04 v 0 c -318.47,0 -576.66,258.19 -576.66,576.67 v 232.92 c 0,318.48 258.19,576.67 576.66,576.67 318.49,0 576.67,-258.19 576.67,-576.67 v -232.92 c 0,-318.48 -258.18,-576.67 -576.67,-576.67"
             style="fill:#fab590;fill-opacity:1;fill-rule:nonzero;stroke:none"
             id="path6693" />
          <path
             d="m 7029.18,2797.98 v 0 C 6960.97,2716.73 6860.31,2669.8 6754.23,2669.8 H 6582.7 c -40.47,0 -79.03,17.28 -105.96,47.49 -23.2,26.01 -36.01,59.64 -36.01,94.49 v 193.38 l -199.75,121.58 v -233.59 l -24.88,15.58 c -72.21,45.23 -116.06,124.45 -116.06,209.67 v 5.55 c -65.46,14.11 -118.44,66.94 -143.6,128.99 -25.17,62.05 -25.23,132.01 -12.02,197.65 13.22,65.64 39.03,127.97 64.68,189.82 -40.31,102.63 -27.14,231.17 37.05,320.83 64.2,89.66 175.35,143.58 285.51,138.49 110.16,-5.1 215.86,-69.05 271.5,-164.25 73.1,34.92 144.38,51.48 225.32,48.04 80.93,-3.45 163.11,-38.38 210.48,-104.11 47.36,-65.71 51.97,-163.53 0.09,-225.75 58.53,-86.78 88.24,-189.8 84.9,-294.42 l -10.91,-341.89 c -2.56,-80.46 -32.1,-157.72 -83.86,-219.37"
             style="fill:#3f244a;fill-opacity:1;fill-rule:nonzero;stroke:none"
             id="path6695" />
          <path
             d="m 6350.71,3041.02 -308.74,-151.16 -13.19,26.95 308.74,151.15 13.19,-26.94"
             style="fill:#ffffff;fill-opacity:1;fill-rule:nonzero;stroke:none"
             id="path6697" />
          <path
             d="m 6449.46,2881 -308.74,-151.15 -13.19,26.95 308.74,151.15 13.19,-26.95"
             style="fill:#ffffff;fill-opacity:1;fill-rule:nonzero;stroke:none"
             id="path6699" />
          <path
             d="m 6529.94,3005.16 c 0,-97.56 -79.09,-176.65 -176.66,-176.65 -97.57,0 -176.66,79.09 -176.66,176.65 0,97.56 79.09,176.66 176.66,176.66 97.57,0 176.66,-79.1 176.66,-176.66"
             style="fill:#fab590;fill-opacity:1;fill-rule:nonzero;stroke:none"
             id="path6701" />
          <path
             d="m 6353.28,2888.51 c -64.32,0 -116.66,52.32 -116.66,116.65 0,64.33 52.34,116.66 116.66,116.66 64.33,0 116.66,-52.33 116.66,-116.66 0,-64.33 -52.33,-116.65 -116.66,-116.65"
             style="fill:#f7957c;fill-opacity:1;fill-rule:nonzero;stroke:none"
             id="path6703" />
          <path
             d="m 5824.08,3099.3 v 0 c -59.97,-59.97 -82.98,-147.61 -60.18,-229.3 l 25.89,-92.81 c 22.09,-79.21 72.35,-147.63 141.31,-192.41 l 54.11,-35.15 c 54.74,-35.54 118.61,-54.46 183.87,-54.46 l 38.33,251.16 -128.33,223.97 -59.02,5.95 c -80.96,8.17 -153.45,53.69 -195.98,123.05"
             style="fill:#81d5e0;fill-opacity:1;fill-rule:nonzero;stroke:none"
             id="path6705" />
          <path
             d="m 5860.51,3257.67 h -29.52 c -12.56,0 -22.75,10.18 -22.75,22.74 v 29.53 c 0,12.56 10.19,22.73 22.75,22.73 h 29.52 c 12.56,0 22.73,-10.17 22.73,-22.73 v -29.53 c 0,-12.56 -10.17,-22.74 -22.73,-22.74"
             style="fill:#3f244a;fill-opacity:1;fill-rule:nonzero;stroke:none"
             id="path6707" />
          <path
             d="m 5867.41,3166.7 c 0,-24.79 -9.7,-44.88 -21.67,-44.88 -11.96,0 -21.66,20.09 -21.66,44.88 0,24.78 9.7,44.88 21.66,44.88 11.97,0 21.67,-20.1 21.67,-44.88"
             style="fill:#3f244a;fill-opacity:1;fill-rule:nonzero;stroke:none"
             id="path6709" />
          <path
             d="M 6931.89,2412.85 6302.59,2195.03 6288.5,1950 6990,2284.77 6931.89,2412.85"
             style="fill:#66cde0;fill-opacity:1;fill-rule:nonzero;stroke:none"
             id="path6711" />
          <path
             d="M 6990,2284.77 6288.49,1950 c -138.22,-65.97 -222.86,-208.95 -214.17,-361.86 L 6127.53,649.941 6059.97,0 h 1366.7 v 1075.22 l -28.75,377.26 c -24.35,319.43 -170.36,617.34 -407.92,832.29"
             style="fill:#45a9d3;fill-opacity:1;fill-rule:nonzero;stroke:none"
             id="path6713" />
          <path
             d="m 6127.53,649.941 v 0 l -41.47,731.089 518.38,285.35 v -104.49 c 0,-118.02 -34.32,-233.48 -98.8,-332.32 L 6127.53,649.941"
             style="fill:#437faf;fill-opacity:1;fill-rule:nonzero;stroke:none"
             id="path6715" />
          <path
             d="m 4773.87,1832.87 -354.17,-275.56 170.64,-276.8 366.55,258.33 -183.02,294.03"
             style="fill:#66cde0;fill-opacity:1;fill-rule:nonzero;stroke:none"
             id="path6717" />
          <path
             d="m 6557.62,1780.13 v 0 c -112.48,162.16 -351.15,165.44 -468.03,6.41 L 5392.8,838.531 4956.89,1538.84 4590.34,1280.51 5076.75,491.488 c 144.71,-234.718 477.32,-257.566 652.77,-44.84 l 813.66,986.602 c 81.94,99.36 87.84,241.06 14.44,346.88"
             style="fill:#45a9d3;fill-opacity:1;fill-rule:nonzero;stroke:none"
             id="path6719" />
          <path
             d="m 4742.07,1808.13 -28.74,442.09 -137.46,172.33 c -16.33,20.48 -45.81,24.62 -67.15,9.44 -22.45,-15.95 -27.49,-47.2 -11.19,-69.39 L 4580,2250.22 v -82.72 l -137.36,64.53 c -23.77,11.17 -51.78,8.1 -72.56,-7.95 l -169.93,-131.24 c -20.24,-15.62 -30.34,-41.04 -26.36,-66.3 l 14.1,-89.48 c 3.72,-23.6 19.23,-43.68 41.13,-53.25 L 4295,1855 c 11.21,-60.84 46.06,-114.77 96.94,-149.96 l 75.95,-52.54 19.92,-42.19 254.26,197.82"
             style="fill:#fab590;fill-opacity:1;fill-rule:nonzero;stroke:none"
             id="path6721" />
        </g>
      </g>
    </g>
  </g>
</svg>
