<?xml version="1.0" encoding="UTF-8" standalone="no"?>
<!-- Created with Inkscape (http://www.inkscape.org/) -->

<svg
   version="1.1"
   id="svg2371"
   xml:space="preserve"
   width="976.11176"
   height="933.66687"
   viewBox="0 0 976.11172 933.66683"
   sodipodi:docname="voucher.svg"
   inkscape:version="1.1.1 (3bf5ae0d25, 2021-09-20)"
   xmlns:inkscape="http://www.inkscape.org/namespaces/inkscape"
   xmlns:sodipodi="http://sodipodi.sourceforge.net/DTD/sodipodi-0.dtd"
   xmlns="http://www.w3.org/2000/svg"
   xmlns:svg="http://www.w3.org/2000/svg"><defs
     id="defs2375" /><sodipodi:namedview
     id="namedview2373"
     pagecolor="#ffffff"
     bordercolor="#666666"
     borderopacity="1.0"
     inkscape:pageshadow="2"
     inkscape:pageopacity="0.0"
     inkscape:pagecheckerboard="0"
     showgrid="false"
     fit-margin-top="0"
     fit-margin-left="0"
     fit-margin-right="0"
     fit-margin-bottom="0"
     inkscape:zoom="0.38531247"
     inkscape:cx="-28.548258"
     inkscape:cy="336.09086"
     inkscape:window-width="2560"
     inkscape:window-height="1019"
     inkscape:window-x="0"
     inkscape:window-y="25"
     inkscape:window-maximized="1"
     inkscape:current-layer="g2379" /><g
     id="g2377"
     inkscape:groupmode="layer"
     inkscape:label="ink_ext_XXXXXX"
     transform="matrix(1.3333333,0,0,-1.3333333,1748.9176,915.31656)"><g
       id="g2379"
       transform="scale(0.1)"><g
         id="g2579"
         transform="translate(-15046.884,-507.62722)"><path
           d="m 8015.83,370 c -43.77,0 -87.77,1.582 -132.27,5.43 -170.01,14.73 -342.35,22.082 -511.51,43.101 -388.25,48.231 -776.67,51.078 -1167.74,51.078 -155.28,0 -310.57,1.34 -465.81,1.34 -226.04,0 -451.97,-2.847 -677.56,-16.859 -351.97,-21.848 -704.53,-25.328 -1057.14,-25.328 -53.14,0 -106.29,0.078 -159.44,0.179 -3.42,0.008 -6.83,0.008 -10.25,0.008 -195.22,0 -389.67,-11.16 -584.59,-19.039 -195.77,-7.922 -386.12,-20.93 -580.76,-20.93 -17.57,0 -35.22,0.11 -52.87,0.34 -194.5,2.481 -490.66,55.059 -629.41,189.09 -82.39,79.629 -71.22,271.211 11.29,347.992 36.04,33.539 94.14,59.809 141.61,75.798 135.21,45.53 272.8,45.63 414.09,46.58 1.74,0.01 3.46,0.02 5.2,0.02 97.49,0 198.86,-18.24 292.29,-43.58 85.01,-23.048 171.87,-31.13 258.33,-45.47 70.76,-11.75 146.47,-17.371 221.34,-17.371 48.7,0 97.06,2.383 143.44,7 125.54,12.512 251.96,18.34 377.86,28.203 156.35,12.246 309.35,38.808 465.14,53.038 78,7.13 154.19,24.79 232,32.83 206.39,21.3 413.14,25.91 619.89,26.48 16.91,0.05 33.81,0.07 50.73,0.07 98.27,0 196.56,-0.68 294.79,-0.68 79.96,0 159.89,0.22 239.82,0.22 273.7,0 547.17,-2.6 820.13,-25.64 84.58,-7.14 168.61,-2.82 252,-19.8 83.73,-17.05 168.26,-32.62 254.04,-35.65 73.38,-2.6 146.98,-3.45 220.66,-3.45 131.1,0 262.44,2.71 393.11,3.15 13.05,0.04 31.22,0.11 53.74,0.11 292.21,0 1311.38,-12.42 1238.28,-264.748 C 8958.17,646.559 8794.92,520.391 8703.34,479.781 8587.65,428.469 8461.14,398.121 8333.8,387.879 8226.46,379.25 8121.81,370 8015.83,370"
           style="fill:#b6d6db;fill-opacity:1;fill-rule:nonzero;stroke:none"
           id="path2383" /><path
           d="m 5869.28,7085.29 c 2.4,-34.47 -15.44,-66.07 -34.23,-93.18 -124.96,-180.35 -412.57,-371.43 -603.62,-246.28 22.06,4.02 79.23,2.55 124.34,12.08 107.1,22.63 178.29,136.81 236.91,239.46 35.92,62.94 46.19,244.04 115.16,267.75 65.82,22.63 156.63,-111.12 161.44,-179.83"
           style="fill:#ccd2d9;fill-opacity:1;fill-rule:nonzero;stroke:none"
           id="path2385" /><path
           d="m 5264,6991.15 c 48.75,106.02 98.36,173.65 163.39,249.3 65.03,75.64 153.07,132.4 247.28,132.05 11.19,-0.04 22.75,-0.99 32.81,-6.64 11.48,-6.47 19.72,-18.31 27.55,-29.77 43.23,-63.32 126.57,-148.27 133.15,-236.26 -163.14,17.3 -334.98,-40.46 -468.99,-144.23 -100.04,-77.47 -160.54,-220.55 -171.09,-220.29 -100.46,2.43 12.95,205.95 35.9,255.84"
           style="fill:#ffffff;fill-opacity:1;fill-rule:nonzero;stroke:none"
           id="path2387" /><path
           d="m 4542.61,6953.78 c 2.74,-34.43 25.07,-62.77 47.66,-86.52 150.27,-158 462.82,-300.35 632.94,-145.87 -22.38,0.41 -78.65,-10.27 -124.63,-8.14 -109.17,5.08 -196.48,106.38 -269.64,198.34 -44.86,56.37 -81.92,233.63 -153.59,245.92 -68.39,11.73 -138.22,-135.06 -132.74,-203.73"
           style="fill:#ccd2d9;fill-opacity:1;fill-rule:nonzero;stroke:none"
           id="path2389" /><path
           d="m 5154.57,6958.49 c -63.93,96.87 -123,155.67 -198.49,219.91 -75.49,64.24 -170.9,106.1 -263.92,90.55 -11.05,-1.86 -22.34,-4.65 -31.43,-11.86 -10.39,-8.24 -16.76,-21.27 -22.79,-33.86 -33.29,-69.52 -103,-166.91 -96.43,-254.9 158.62,43.42 336.96,14.1 484.78,-66.79 110.36,-60.38 191.4,-191.96 201.78,-190.01 98.88,18.63 -43.42,201.38 -73.5,246.96"
           style="fill:#ffffff;fill-opacity:1;fill-rule:nonzero;stroke:none"
           id="path2391" /><path
           d="M 6329.87,5096.26 4414.41,4940.72 4286.72,6648.05 6202.18,6803.58 6329.87,5096.26"
           style="fill:#d34e4e;fill-opacity:1;fill-rule:nonzero;stroke:none"
           id="path2393" /><path
           d="m 6365.37,6383.07 -2177.35,-176.8 -32.24,431.14 2177.35,176.8 32.24,-431.14"
           style="fill:#d34e4e;fill-opacity:1;fill-rule:nonzero;stroke:none"
           id="path2395" /><path
           d="m 6245.93,6218.66 -1845.38,4.86 1833.87,148.91 1.72,-22.91 9.78,-130.86"
           style="fill:#bd4646;fill-opacity:1;fill-rule:nonzero;stroke:none"
           id="path2397" /><path
           d="m 5474.23,5026.78 -237.06,-19.25 -129.29,1728.69 c -1.31,17.53 10.58,32.78 26.56,34.08 l 179.19,14.55 c 15.98,1.3 30,-11.86 31.31,-29.38 l 129.29,-1728.69"
           style="fill:#ffffff;fill-opacity:1;fill-rule:nonzero;stroke:none"
           id="path2399" /><path
           d="m 7984.52,4313.87 646.46,-700.82 -491.34,-417.17 -72.65,87.61 192.42,399.89 -376.89,332.3 102,298.19"
           style="fill:#d34e4e;fill-opacity:1;fill-rule:nonzero;stroke:none"
           id="path2401" /><path
           d="m 8145.41,2567.43 29.18,-676.76 -85.53,-1150.69 -127.99,-9.101 -155.5,1045.121 -215.12,884.36 554.96,-92.93"
           style="fill:#3a404a;fill-opacity:1;fill-rule:nonzero;stroke:none"
           id="path2403" /><path
           d="m 7965.64,676.961 143.32,-59.359 64.29,74.117 -74.12,64.293 -138.41,-9.84 4.92,-69.211"
           style="fill:#292e35;fill-opacity:1;fill-rule:nonzero;stroke:none"
           id="path2405" /><path
           d="m 7239.4,2806.9 -28.08,-511.54 83.33,-1521.008 128.15,-6.411 192.06,997.589 169.41,1093.98 -544.87,-52.61"
           style="fill:#3a404a;fill-opacity:1;fill-rule:nonzero;stroke:none"
           id="path2407" /><path
           d="m 7419.37,713.941 -142.05,-62.371 -65.83,72.762 72.76,65.828 138.58,-6.93 -3.46,-69.289"
           style="fill:#292e35;fill-opacity:1;fill-rule:nonzero;stroke:none"
           id="path2409" /><path
           d="m 7984.52,4313.87 -399.89,42.84 c 0,0 -222.47,-23.77 -373.42,-552.1 -83.98,-293.94 -109.55,-757.04 -115.7,-1110.11 9.44,-50.36 64.31,-270.96 296.33,-233.54 398.43,64.25 610.49,128.52 784.01,96.39 147.8,-32.14 135.3,171.36 119.06,326.66 l -58.89,480.5 -251.5,949.36"
           style="fill:#3b455a;fill-opacity:1;fill-rule:nonzero;stroke:none"
           id="path2411" /><path
           d="m 7907.3,4811.65 c -100.8,22.22 -204.54,42.12 -305.43,22.15 -22.1,-4.38 -45.83,-12.07 -57.82,-31.15 -4.65,-7.39 -7.1,-15.91 -9.36,-24.34 -25.47,-94.65 -57.77,-234.96 4.54,-322.17 11.88,-16.63 27.84,-29.83 44.99,-40.55 22.92,-14.33 48.3,-24.07 74.56,-29.25 -5.43,-23.53 -12.99,-46.57 -22.58,-68.74 23.08,-34.79 130.71,-38.96 150.62,-5.61 1.11,28.87 2.23,57.73 3.35,86.59 13.1,5.3 25.76,11.73 37.64,19.56 46.01,30.3 76.32,76.27 93.92,127.71 19.18,56.02 46.15,109.26 63.66,166.35 6.38,20.79 11.42,44.53 0.47,63.33 -11.64,20.02 -36.79,26.83 -59.39,31.86 -6.37,1.42 -12.77,2.84 -19.17,4.26"
           style="fill:#aa6755;fill-opacity:1;fill-rule:nonzero;stroke:none"
           id="path2413" /><path
           d="m 7571.81,4757.53 c 49.82,32.04 124.56,45.83 171.4,42.44 141.62,-10.26 193.51,-114.27 201.08,-244.48 39.01,49.58 112.23,111.96 116.65,175.77 3.62,52.23 -3.61,123.45 -32.86,168.56 -27.39,42.2 -97.4,65.39 -139.03,89.84 -39.25,23.06 -78.49,46.11 -117.74,69.17 -8.17,4.79 -16.55,9.67 -25.88,11.29 -11.04,1.92 -22.28,-0.91 -33.12,-3.71 -92.75,-23.97 -185.51,-47.95 -278.28,-71.92 -17.81,-4.61 -38.12,-11.33 -44.68,-28.53 -3.99,-10.46 -1.64,-22.14 0.75,-33.08 10.53,-48.15 30.75,-97.37 35.75,-146.15 5.66,-28.34 22.56,-173.6 72.74,-156.83 14.74,24.09 16.95,53.77 28.42,79.57 8.49,19.07 24.59,35.07 44.8,48.06"
           style="fill:#3b455a;fill-opacity:1;fill-rule:nonzero;stroke:none"
           id="path2415" /><path
           d="m 7584.63,4356.71 -147.8,-44.98 -539.82,-565.52 -32.13,-186.36 258.06,-426.08 69.68,156.17 -109.24,314.89 173.5,122.1 231.35,520.54 96.4,109.24"
           style="fill:#3b455a;fill-opacity:1;fill-rule:nonzero;stroke:none"
           id="path2417" /><path
           d="m 6394.41,5067.45 26.7,164.14 -69.65,14.47 -43.18,-108.35 -29.76,22.13 -5.74,-143.24 70.37,-24.82 51.26,75.67"
           style="fill:#eac1a4;fill-opacity:1;fill-rule:nonzero;stroke:none"
           id="path2419" /><path
           d="m 5522.79,4119.76 462.04,388.75 287.95,508.09 95.56,-25.53 -143.99,-630.75 -488.21,-588.96 -213.35,348.4"
           style="fill:#474ebb;fill-opacity:1;fill-rule:nonzero;stroke:none"
           id="path2421" /><path
           d="m 5454.83,691.48 6.79,-70.578 142.91,-61.23 61.29,75.277 -74.85,65.91 -142.92,61.223 6.78,-70.602"
           style="fill:#292e35;fill-opacity:1;fill-rule:nonzero;stroke:none"
           id="path2423" /><path
           d="m 5335.48,2122.28 110.04,-1408.53 137.71,-18.711 113.98,1200.511 94.25,380.87 -455.98,-154.14"
           style="fill:#4b505b;fill-opacity:1;fill-rule:nonzero;stroke:none"
           id="path2425" /><path
           d="m 5006.15,2491.91 -82.56,-1673.73 125.62,-23.641 261.74,1266.471 143.98,366.7 -448.78,64.2"
           style="fill:#4b505b;fill-opacity:1;fill-rule:nonzero;stroke:none"
           id="path2427" /><path
           d="m 5038.04,739.141 -149.25,-45.641 -54.52,83.992 81.33,58.43 135.84,-25.57 -13.4,-71.211"
           style="fill:#292e35;fill-opacity:1;fill-rule:nonzero;stroke:none"
           id="path2429" /><path
           d="m 5183.76,4299.63 c 101.72,84.2 346.95,35.79 475.97,35.79 -12.42,0 401.47,-1627.06 430.83,-1720.11 48.65,-154.19 48.52,-335.84 34.76,-495.44 -138.46,-38.05 -268.16,-109.32 -410.57,-127.8 -117.16,-15.2 -235.48,6.36 -353.16,16.77 -139.16,12.31 -279.3,9.03 -418.59,19.74 -139.29,10.71 -280.1,36.31 -403.4,102.01 55.15,106.7 97.6,219.43 132.93,334.08 35.09,113.85 80.22,240.28 93.03,359 11.57,107.25 13.46,216.38 29.07,325.11 18.15,126.49 39.96,252.58 70.26,376.78 34.65,142.03 80.36,281.34 136.5,416.33 42.74,102.77 93.73,271.08 174.02,350.19 2.66,2.63 5.45,5.14 8.35,7.55"
           style="fill:#474ebb;fill-opacity:1;fill-rule:nonzero;stroke:none"
           id="path2431" /><path
           d="m 5399.85,4688.96 c -64.43,-11.72 -143.88,-66.78 -159.41,-134.76 -7.48,-32.74 3.18,-62.88 -6.22,-97.6 -18.26,-68.52 64.65,-169.46 -17.42,-217.08 -42.19,-24.48 -94.9,-16.55 -142.89,-7.87 -5.82,1.05 -11.91,2.22 -16.51,5.93 -7.59,6.11 -8.86,17.54 -5.98,26.84 2.88,9.3 9.03,17.16 14.42,25.26 56.4,84.8 42.74,206.43 64.66,303 21.89,96.38 73.67,192.38 169.15,231.94 47.61,-30.84 82.23,-81.08 94.09,-136.55 l 6.11,0.89"
           style="fill:#3b455a;fill-opacity:1;fill-rule:nonzero;stroke:none"
           id="path2433" /><path
           d="m 5319,4274.02 c -61.99,26.52 -103.07,89.64 -116.57,155.7 -13.5,66.06 -2.8,134.84 15.45,199.75 60.75,216 331.84,154.13 395.05,-30.58 55.09,-160.98 -113.67,-401.97 -293.93,-324.87"
           style="fill:#eac1a4;fill-opacity:1;fill-rule:nonzero;stroke:none"
           id="path2435" /><path
           d="m 5634.62,4155.2 c -30.43,18.92 -60.27,38.72 -77.91,74.05 -28.5,57.11 -16.48,145.85 -19.87,207.81 -3.57,65.3 -9.52,136.46 -54.29,184.13 -29.25,31.13 -65.22,39.68 -105.85,43.82 -27.82,2.84 -29.79,-7.61 -52.06,9.36 -17.08,13 -29.57,48.54 -32.03,68.9 -4.16,34.35 12.44,68.79 36.98,93.18 37.78,37.53 80.17,54.15 131.98,50.87 181.86,-11.49 308.94,-130.74 344.97,-312.45 17.32,-87.35 -8.99,-180.7 10.26,-264.98 11.87,-52.03 41.44,-88.54 50,-143.6 22.18,-142.87 84.23,-328.45 65.99,-472.66 -0.68,-5.34 -1.81,-11.22 -6.13,-14.43 -8.79,-6.54 -20.27,3.32 -26.68,12.21 -37.44,51.84 -74.87,103.7 -112.31,155.54 -14.7,20.36 -29.59,41.07 -38.11,64.7 -21.21,58.82 -1.5,130.88 -38.1,181.58 -19.96,27.66 -48.66,44.44 -76.84,61.97"
           style="fill:#3b455a;fill-opacity:1;fill-rule:nonzero;stroke:none"
           id="path2437" /><path
           d="m 4333.35,4924.78 -44.95,160.11 67.6,22.19 55.05,-102.82 27.1,25.33 21.78,-141.69 -67.15,-32.56 -59.43,69.44"
           style="fill:#eac1a4;fill-opacity:1;fill-rule:nonzero;stroke:none"
           id="path2439" /><path
           d="m 5305.82,4080.88 -502.75,334.44 -343.14,472.58 -92.09,-36.09 213.85,-610.61 551.21,-530.47 172.92,370.15"
           style="fill:#474ebb;fill-opacity:1;fill-rule:nonzero;stroke:none"
           id="path2441" /><path
           d="m 2477.44,5122.66 114.96,171.42 96.13,-41.59 -45.38,-133.29 55.35,-3.16 -121.3,-135.78 -106.25,32.69 6.49,109.71"
           style="fill:#eac1a4;fill-opacity:1;fill-rule:nonzero;stroke:none"
           id="path2443" /><path
           d="m 3209.5,4192.11 161.09,-55.25 260.64,-390.64 333.77,223.3 106.06,-125.88 -168.33,-249.78 -303.09,-216.44 -390.14,408.3 v 406.39"
           style="fill:#7fc5a3;fill-opacity:1;fill-rule:nonzero;stroke:none"
           id="path2445" /><path
           d="m 3588.17,3068.03 11.47,-991.6 -105.68,-1276.508 h -143.68 l -171.93,1177.688 -196.62,1179.7 606.44,-89.28"
           style="fill:#c2c3c4;fill-opacity:1;fill-rule:nonzero;stroke:none"
           id="path2447" /><path
           d="m 3351.11,739.34 155.37,-77.692 77.69,77.692 -77.69,77.68 h -155.37 v -77.68"
           style="fill:#292e35;fill-opacity:1;fill-rule:nonzero;stroke:none"
           id="path2449" /><path
           d="m 2603.06,3068.03 -2.82,-573.67 96.9,-1694.438 h 143.69 l 240.36,1124.418 128.31,1232.97 -606.44,-89.28"
           style="fill:#c2c3c4;fill-opacity:1;fill-rule:nonzero;stroke:none"
           id="path2451" /><path
           d="m 2840,739.34 -155.38,-77.692 -77.69,77.692 77.69,77.68 H 2840 v -77.68"
           style="fill:#292e35;fill-opacity:1;fill-rule:nonzero;stroke:none"
           id="path2453" /><path
           d="m 2453.64,2722.61 c -3.08,-91.03 -1.11,-212.78 37.21,-217.33 7.18,-0.85 14.1,2.33 20.41,5.39 66.64,32.38 114.15,78.15 179.84,109.43 68.85,32.77 147.09,49.92 223.56,61.77 114.05,18.21 229.99,29.16 344.78,30.17 98.65,0.88 201.25,-44.12 294.51,-68.88 35.9,-9.52 65.11,-35.68 94.93,-56.21 44.05,-30.3 63.37,-42.3 57.36,19.62 -9.8,101.04 -19.99,202.06 -32.41,302.81 -24.8,200.96 -58.55,401.45 -115.65,595.99 -21.81,74.33 -46.98,147.61 -72.14,220.87 -30.63,89.21 -61.26,178.42 -91.9,267.63 -38.07,110.87 -102.33,188.97 -214.84,227.76 -97.24,33.51 -218.03,42.68 -312.6,-4.24 -105.14,-52.15 -155.14,-229.83 -206.21,-324.78 -44.76,-83.21 -101.18,-310.15 -117.94,-399.86 -20.16,-107.96 -38.79,-215.43 -53.45,-322.59 -16.24,-118.7 -27.69,-237.06 -31.01,-354.72 -0.37,-13.01 -2.99,-49.38 -4.45,-92.83"
           style="fill:#ebb044;fill-opacity:1;fill-rule:nonzero;stroke:none"
           id="path2455" /><path
           d="m 3090.74,4197.93 c -2.28,-1.97 -4.91,-3.53 -7.94,-4.53 -6.04,-1.99 -12.59,-1.27 -18.89,-0.52 -25.69,3.04 -51.37,6.08 -77.06,9.12 8.47,78.65 -37.5,96.45 -82.31,147.03 -45.41,51.29 -31.43,120.43 -28.89,183.2 0.74,17.48 1.59,35.48 8.98,51.34 12.97,27.83 43.16,43.19 72.48,52.3 74.81,23.25 160.37,17.52 226.24,-24.88 17.53,-11.29 33.91,-25.47 43.4,-44.03 14.64,-28.62 10.92,-62.77 6.84,-94.66 -6.28,-49.01 -20.78,-97.14 -48.49,-138.45 -25.82,-38.48 -75.05,-56.92 -80.71,-103.1 -1.46,-11.93 -5.07,-25.36 -13.65,-32.82"
           style="fill:#eac1a4;fill-opacity:1;fill-rule:nonzero;stroke:none"
           id="path2457" /><path
           d="m 3231.43,4529.27 c -4.37,-19.76 -13.59,-39.76 -8.79,-59.42 31.4,10.65 51.91,42.77 63.03,75.41 5.04,14.79 8.71,30.46 7.44,46.12 -1.27,15.65 -8.07,31.38 -20.43,40.23 -17.25,12.35 -48.18,7.49 -53.12,-14.88 -4.98,-22.56 18.44,-57.72 11.87,-87.46"
           style="fill:#3b455a;fill-opacity:1;fill-rule:nonzero;stroke:none"
           id="path2459" /><path
           d="m 3398.11,4702.9 c -0.75,23.68 -9.77,44.84 -30.94,59.14 -18.24,12.32 -39.27,22.54 -50.36,42.13 -8.6,15.2 -9.87,34.02 -18.39,49.27 -15.44,27.61 -48.94,35.74 -78.09,45.1 -72.91,23.42 -112.17,50.45 -189.39,20.47 -54.91,-21.31 -125.85,-24.17 -176.81,-55.26 -21.29,-12.98 -39.39,-33.84 -54.26,-57.07 -51.48,-80.49 -63.83,-193.67 -30.3,-277.62 7.5,-18.8 17.04,-36.08 27.23,-52.62 20.39,-33.09 42.22,-73.8 78.32,-89.99 2.27,15.59 13.88,24.19 17.51,39.51 2.62,11.03 1.74,22.58 1.17,33.93 -2.22,44.14 -15.76,113.94 28.33,135.83 55.74,27.68 160.3,2.71 213.99,-20.72 47.51,-20.74 127.68,-47.71 178.32,-25.5 47.02,20.62 85.25,102.8 83.67,153.4"
           style="fill:#3b455a;fill-opacity:1;fill-rule:nonzero;stroke:none"
           id="path2461" /><path
           d="m 2910.71,4227.48 -492.92,145.26 182.45,616.26 -150.35,107.84 -362.93,-713.4 100.37,-247.05 470.96,-243.09 252.42,334.18"
           style="fill:#ebb044;fill-opacity:1;fill-rule:nonzero;stroke:none"
           id="path2463" /><path
           d="m 7250.12,3761.33 38.25,-84.43 -139.19,-60.52 -128.87,89.14 67.87,116.87 161.94,-61.06"
           style="fill:#aa6755;fill-opacity:1;fill-rule:nonzero;stroke:none"
           id="path2465" /><path
           d="M 7577.09,1942.17 2219.95,1606 l -128.49,2047.59 5357.13,336.18 128.5,-2047.6"
           style="fill:#f2f2f2;fill-opacity:1;fill-rule:nonzero;stroke:none"
           id="path2467" /><path
           d="M 2275.92,3500.15 2383.78,1781.3 7392.62,2095.62 7284.77,3814.46 Z M 2353.71,1747.2 2241.82,3530.22 7314.83,3848.57 7426.73,2065.54 2353.71,1747.2"
           style="fill:#ffffff;fill-opacity:1;fill-rule:nonzero;stroke:none"
           id="path2469" /><path
           d="m 3152.35,2987.13 156.62,9.82 -231.47,-606.88 -123.47,-7.75 -305.53,573.19 161.59,10.13 194.75,-385.45 147.51,406.94"
           style="fill:#474ebb;fill-opacity:1;fill-rule:nonzero;stroke:none"
           id="path2471" /><path
           d="m 3737.57,2590.4 c 23.16,33.07 32.86,79.71 29.08,139.92 -3.74,59.67 -19.17,104.32 -46.26,133.97 -27.1,29.62 -62.75,43.06 -106.94,40.29 -44.21,-2.77 -77.76,-20.42 -100.68,-52.91 -22.92,-32.51 -32.49,-78.87 -28.71,-139.07 3.82,-60.78 19.13,-106 45.95,-135.65 26.82,-29.66 62.32,-43.09 106.53,-40.32 44.19,2.77 77.86,20.69 101.03,53.77 z M 3484.2,2445.13 c -46.28,21.76 -82.89,54.82 -109.8,99.18 -26.91,44.34 -42.29,97.18 -46.13,158.5 -3.85,61.33 4.95,115.4 26.42,162.24 21.46,46.82 53.65,83.91 96.6,111.3 42.92,27.37 94.5,42.96 154.72,46.74 60.21,3.77 113.33,-5.25 159.35,-27.04 46.01,-21.79 82.33,-54.59 108.93,-98.39 26.59,-43.82 41.82,-96.39 45.67,-157.71 3.85,-61.33 -4.68,-115.66 -25.55,-163.01 -20.87,-47.35 -52.79,-84.71 -95.71,-112.08 -42.94,-27.38 -94.52,-42.96 -154.73,-46.74 -60.22,-3.77 -113.47,5.22 -159.77,27.01"
           style="fill:#474ebb;fill-opacity:1;fill-rule:nonzero;stroke:none"
           id="path2473" /><path
           d="m 4089.87,2511.42 c -46.93,40.59 -73.01,102.88 -78.28,186.85 l -21.43,341.43 151.66,9.52 21.79,-347.23 c 2.66,-42.55 14.24,-74.54 34.72,-95.99 20.48,-21.47 48.4,-31.08 83.76,-28.85 34.81,2.18 60.88,15.32 78.23,39.43 17.34,24.09 24.7,57.15 22.06,99.14 l -21.78,347.23 153.3,9.62 21.43,-341.43 c 5.2,-82.87 -13.34,-147.67 -55.6,-194.42 -42.28,-46.75 -105.67,-72.77 -190.2,-78.08 -86.19,-5.41 -152.74,12.17 -199.66,52.78"
           style="fill:#474ebb;fill-opacity:1;fill-rule:nonzero;stroke:none"
           id="path2475" /><path
           d="m 4777.34,2527.11 c -47.15,22.26 -84.47,55.56 -111.92,99.88 -27.48,44.31 -43.09,96.57 -46.87,156.8 -3.74,59.67 5.24,113.06 26.97,160.18 21.72,47.11 54.59,84.67 98.59,112.68 44.01,27.99 96.67,43.92 157.99,47.76 38.67,2.44 76.46,-1.02 113.38,-10.36 36.9,-9.32 67.04,-23.24 90.39,-41.75 l -40.32,-113.17 c -50.25,31.79 -101.06,46.07 -152.43,42.84 -47.53,-2.98 -83.05,-20.32 -106.57,-52.03 -23.52,-31.71 -33.43,-77.12 -29.72,-136.22 3.75,-59.67 19.28,-103.91 46.6,-132.69 27.31,-28.79 64.73,-41.69 112.25,-38.72 51.38,3.23 100.01,23.75 145.89,61.58 l 54.15,-107.26 c -20.85,-21.28 -49.01,-38.85 -84.46,-52.72 -35.46,-13.87 -72.53,-22.03 -111.2,-24.45 -61.32,-3.84 -115.56,5.35 -162.72,27.65"
           style="fill:#474ebb;fill-opacity:1;fill-rule:nonzero;stroke:none"
           id="path2477" /><path
           d="m 5574.64,3139.13 152.48,9.57 37.03,-590.04 -152.48,-9.57 -14.98,238.67 -238.67,-14.98 14.98,-238.66 -152.48,-9.57 -37.03,590.04 152.49,9.56 14.4,-229.55 238.66,14.98 -14.4,229.55"
           style="fill:#474ebb;fill-opacity:1;fill-rule:nonzero;stroke:none"
           id="path2479" /><path
           d="m 5870.22,2565.32 -37.03,590.03 420.99,26.43 7.49,-119.34 -269.33,-16.9 6.97,-111.05 251.92,15.81 7.49,-119.33 -251.92,-15.81 7.59,-120.99 269.33,16.89 7.48,-119.32 -420.98,-26.42"
           style="fill:#474ebb;fill-opacity:1;fill-rule:nonzero;stroke:none"
           id="path2481" /><path
           d="m 6669.64,2977.8 c 14.27,11.16 20.73,27.51 19.38,49.06 -1.42,22.64 -9.77,38.49 -25.03,47.51 -15.27,9.03 -39.75,12.49 -73.44,10.37 l -97.79,-6.14 7.96,-126.78 97.79,6.13 c 33.14,2.08 56.85,8.69 71.13,19.85 z m 214.07,-348.88 -164.91,-10.36 -88.57,191.63 c -10.22,21.53 -31.64,31.29 -64.22,29.24 l -56.36,-3.53 14.4,-229.55 -153.3,-9.62 -37.03,590.04 274.3,17.2 c 71.28,4.48 125.82,-7.49 163.66,-35.89 37.83,-28.41 58.53,-71.08 62.1,-127.97 2.5,-39.79 -5.99,-74.85 -25.42,-105.18 -19.45,-30.34 -48.15,-52.81 -86.05,-67.38 16.78,-2.28 32.19,-9.08 46.22,-20.4 14.02,-11.33 25.52,-26.97 34.55,-46.92 l 80.63,-171.31"
           style="fill:#474ebb;fill-opacity:1;fill-rule:nonzero;stroke:none"
           id="path2483" /><path
           d="m 7489.55,1463.51 565.02,996.65 -270.32,153.25 -270.32,153.25 -565.02,-996.65 378.21,37.06 162.43,-343.56"
           style="fill:#d34e4e;fill-opacity:1;fill-rule:nonzero;stroke:none"
           id="path2485" /><path
           d="m 8253.47,1354.09 -262.55,1115.19 302.47,71.2 302.47,71.21 262.55,-1115.18 -352.61,141.73 -252.33,-284.15"
           style="fill:#d34e4e;fill-opacity:1;fill-rule:nonzero;stroke:none"
           id="path2487" /><path
           d="m 9083.01,3041.61 163.87,104.94 -127.17,147.3 131.13,143.78 -160.96,109.36 89.45,172.81 -183.79,63.98 41.67,190.08 -194.08,14.23 -8.95,194.39 -191.14,-36.49 -58.96,185.45 -175.18,-84.72 -104.95,163.87 -147.29,-127.17 -143.79,131.13 -109.35,-160.97 -172.83,89.45 -63.96,-183.78 -190.09,41.66 -14.22,-194.07 -194.39,-8.95 36.48,-191.14 -185.45,-58.97 84.73,-175.18 -163.88,-104.94 127.18,-147.3 -131.13,-143.78 160.96,-109.35 -89.45,-172.83 183.79,-63.97 -41.67,-190.08 194.08,-14.23 8.95,-194.38 191.14,36.48 58.95,-185.45 175.2,84.72 104.94,-163.87 147.29,127.17 143.79,-131.12 109.35,160.95 172.82,-89.44 63.97,183.78 190.09,-41.66 14.22,194.07 194.39,8.95 -36.48,191.15 185.44,58.96 -84.72,175.18"
           style="fill:#ebb044;fill-opacity:1;fill-rule:nonzero;stroke:none"
           id="path2489" /><path
           d="m 7466.71,3404.02 c 53.53,373.73 399.88,633.3 773.61,579.77 373.72,-53.53 633.29,-399.88 579.77,-773.6 -53.53,-373.73 -399.88,-633.3 -773.62,-579.77 -373.72,53.53 -633.29,399.88 -579.76,773.6"
           style="fill:#ffffff;fill-opacity:1;fill-rule:nonzero;stroke:none"
           id="path2491" /><path
           d="m 8221.9,3767.43 99.07,-284.64 c 1.63,-4.67 5.45,-8.25 10.22,-9.56 l 289.96,-79.32 c 12.01,-3.29 15.05,-18.97 5.13,-26.54 L 8386.96,3184.7 c -3.93,-3.01 -6.15,-7.77 -5.92,-12.72 l 14.19,-301.21 c 0.59,-12.48 -13.35,-20.22 -23.58,-13.11 l -246.96,171.73 c -4.06,2.83 -9.26,3.47 -13.89,1.71 l -281.19,-106.83 c -11.65,-4.44 -23.3,6.46 -19.71,18.43 l 86.69,288.81 c 1.43,4.75 0.43,9.91 -2.66,13.77 l -187.97,235.18 c -7.8,9.75 -1.06,24.23 11.39,24.51 l 300.55,6.76 c 4.94,0.11 9.52,2.65 12.24,6.81 l 165.02,252.18 c 6.83,10.45 22.64,8.51 26.74,-3.29"
           style="fill:#ebb044;fill-opacity:1;fill-rule:nonzero;stroke:none"
           id="path2493" /><path
           d="m 7802.88,2890.31 v 0 l 0.06,-0.01 z"
           style="fill:#ccd2d9;fill-opacity:1;fill-rule:nonzero;stroke:none"
           id="path2495" /><path
           d="m 9063.3,4011.63 21.49,-90.17 -148.17,-32.93 -109.54,112.03 88.87,101.83 147.35,-90.76"
           style="fill:#aa6755;fill-opacity:1;fill-rule:nonzero;stroke:none"
           id="path2497" /><path
           d="m 3974.92,3997.08 164.5,-61.71 40.83,-174.56 -95.41,-21.72 -77.33,105.77 -63.56,3.94 -59.7,96.41 90.67,51.87"
           style="fill:#eac1a4;fill-opacity:1;fill-rule:nonzero;stroke:none"
           id="path2499" /></g></g></g></svg>
